%TF.GenerationSoftware,KiCad,Pcbnew,(6.0.4-0)*%
%TF.CreationDate,2022-09-22T13:53:57+02:00*%
%TF.ProjectId,ESP32_S2_MINI_1,45535033-325f-4533-925f-4d494e495f31,rev?*%
%TF.SameCoordinates,Original*%
%TF.FileFunction,Legend,Bot*%
%TF.FilePolarity,Positive*%
%FSLAX46Y46*%
G04 Gerber Fmt 4.6, Leading zero omitted, Abs format (unit mm)*
G04 Created by KiCad (PCBNEW (6.0.4-0)) date 2022-09-22 13:53:57*
%MOMM*%
%LPD*%
G01*
G04 APERTURE LIST*
%ADD10C,0.100000*%
G04 APERTURE END LIST*
D10*
X201175952Y-102517857D02*
X201135476Y-102415000D01*
X201135476Y-102243571D01*
X201175952Y-102175000D01*
X201216428Y-102140714D01*
X201297380Y-102106428D01*
X201378333Y-102106428D01*
X201459285Y-102140714D01*
X201499761Y-102175000D01*
X201540238Y-102243571D01*
X201580714Y-102380714D01*
X201621190Y-102449285D01*
X201661666Y-102483571D01*
X201742619Y-102517857D01*
X201823571Y-102517857D01*
X201904523Y-102483571D01*
X201945000Y-102449285D01*
X201985476Y-102380714D01*
X201985476Y-102209285D01*
X201945000Y-102106428D01*
X201135476Y-101797857D02*
X201985476Y-101797857D01*
X201985476Y-101626428D01*
X201945000Y-101523571D01*
X201864047Y-101455000D01*
X201783095Y-101420714D01*
X201621190Y-101386428D01*
X201499761Y-101386428D01*
X201337857Y-101420714D01*
X201256904Y-101455000D01*
X201175952Y-101523571D01*
X201135476Y-101626428D01*
X201135476Y-101797857D01*
X201378333Y-101112142D02*
X201378333Y-100769285D01*
X201135476Y-101180714D02*
X201985476Y-100940714D01*
X201135476Y-100700714D01*
X201175952Y-99946428D02*
X201135476Y-99843571D01*
X201135476Y-99672142D01*
X201175952Y-99603571D01*
X201216428Y-99569285D01*
X201297380Y-99535000D01*
X201378333Y-99535000D01*
X201459285Y-99569285D01*
X201499761Y-99603571D01*
X201540238Y-99672142D01*
X201580714Y-99809285D01*
X201621190Y-99877857D01*
X201661666Y-99912142D01*
X201742619Y-99946428D01*
X201823571Y-99946428D01*
X201904523Y-99912142D01*
X201945000Y-99877857D01*
X201985476Y-99809285D01*
X201985476Y-99637857D01*
X201945000Y-99535000D01*
X201216428Y-98815000D02*
X201175952Y-98849285D01*
X201135476Y-98952142D01*
X201135476Y-99020714D01*
X201175952Y-99123571D01*
X201256904Y-99192142D01*
X201337857Y-99226428D01*
X201499761Y-99260714D01*
X201621190Y-99260714D01*
X201783095Y-99226428D01*
X201864047Y-99192142D01*
X201945000Y-99123571D01*
X201985476Y-99020714D01*
X201985476Y-98952142D01*
X201945000Y-98849285D01*
X201904523Y-98815000D01*
X201135476Y-98163571D02*
X201135476Y-98506428D01*
X201985476Y-98506428D01*
X201135476Y-96826428D02*
X201985476Y-96826428D01*
X201985476Y-96655000D01*
X201945000Y-96552142D01*
X201864047Y-96483571D01*
X201783095Y-96449285D01*
X201621190Y-96415000D01*
X201499761Y-96415000D01*
X201337857Y-96449285D01*
X201256904Y-96483571D01*
X201175952Y-96552142D01*
X201135476Y-96655000D01*
X201135476Y-96826428D01*
X201985476Y-95763571D02*
X201985476Y-96106428D01*
X201580714Y-96140714D01*
X201621190Y-96106428D01*
X201661666Y-96037857D01*
X201661666Y-95866428D01*
X201621190Y-95797857D01*
X201580714Y-95763571D01*
X201499761Y-95729285D01*
X201297380Y-95729285D01*
X201216428Y-95763571D01*
X201175952Y-95797857D01*
X201135476Y-95866428D01*
X201135476Y-96037857D01*
X201175952Y-96106428D01*
X201216428Y-96140714D01*
X201135476Y-94323571D02*
X201985476Y-94323571D01*
X201985476Y-94152142D01*
X201945000Y-94049285D01*
X201864047Y-93980714D01*
X201783095Y-93946428D01*
X201621190Y-93912142D01*
X201499761Y-93912142D01*
X201337857Y-93946428D01*
X201256904Y-93980714D01*
X201175952Y-94049285D01*
X201135476Y-94152142D01*
X201135476Y-94323571D01*
X201985476Y-93294999D02*
X201985476Y-93432142D01*
X201945000Y-93500714D01*
X201904523Y-93534999D01*
X201783095Y-93603571D01*
X201621190Y-93637857D01*
X201297380Y-93637857D01*
X201216428Y-93603571D01*
X201175952Y-93569285D01*
X201135476Y-93500714D01*
X201135476Y-93363571D01*
X201175952Y-93294999D01*
X201216428Y-93260714D01*
X201297380Y-93226428D01*
X201499761Y-93226428D01*
X201580714Y-93260714D01*
X201621190Y-93294999D01*
X201661666Y-93363571D01*
X201661666Y-93500714D01*
X201621190Y-93569285D01*
X201580714Y-93603571D01*
X201499761Y-93637857D01*
X201135476Y-91820714D02*
X201985476Y-91820714D01*
X201985476Y-91649285D01*
X201945000Y-91546428D01*
X201864047Y-91477857D01*
X201783095Y-91443571D01*
X201621190Y-91409285D01*
X201499761Y-91409285D01*
X201337857Y-91443571D01*
X201256904Y-91477857D01*
X201175952Y-91546428D01*
X201135476Y-91649285D01*
X201135476Y-91820714D01*
X201135476Y-91066428D02*
X201135476Y-90929285D01*
X201175952Y-90860714D01*
X201216428Y-90826428D01*
X201337857Y-90757857D01*
X201499761Y-90723571D01*
X201823571Y-90723571D01*
X201904523Y-90757857D01*
X201945000Y-90792142D01*
X201985476Y-90860714D01*
X201985476Y-90997857D01*
X201945000Y-91066428D01*
X201904523Y-91100714D01*
X201823571Y-91134999D01*
X201621190Y-91134999D01*
X201540238Y-91100714D01*
X201499761Y-91066428D01*
X201459285Y-90997857D01*
X201459285Y-90860714D01*
X201499761Y-90792142D01*
X201540238Y-90757857D01*
X201621190Y-90723571D01*
X201135476Y-89866428D02*
X201985476Y-89866428D01*
X201985476Y-89694999D01*
X201945000Y-89592142D01*
X201864047Y-89523571D01*
X201783095Y-89489285D01*
X201621190Y-89454999D01*
X201499761Y-89454999D01*
X201337857Y-89489285D01*
X201256904Y-89523571D01*
X201175952Y-89592142D01*
X201135476Y-89694999D01*
X201135476Y-89866428D01*
X201135476Y-88769285D02*
X201135476Y-89180714D01*
X201135476Y-88974999D02*
X201985476Y-88974999D01*
X201864047Y-89043571D01*
X201783095Y-89112142D01*
X201742619Y-89180714D01*
X201985476Y-88323571D02*
X201985476Y-88254999D01*
X201945000Y-88186428D01*
X201904523Y-88152142D01*
X201823571Y-88117857D01*
X201661666Y-88083571D01*
X201459285Y-88083571D01*
X201297380Y-88117857D01*
X201216428Y-88152142D01*
X201175952Y-88186428D01*
X201135476Y-88254999D01*
X201135476Y-88323571D01*
X201175952Y-88392142D01*
X201216428Y-88426428D01*
X201297380Y-88460714D01*
X201459285Y-88494999D01*
X201661666Y-88494999D01*
X201823571Y-88460714D01*
X201904523Y-88426428D01*
X201945000Y-88392142D01*
X201985476Y-88323571D01*
X201135476Y-87226428D02*
X201985476Y-87226428D01*
X201985476Y-87054999D01*
X201945000Y-86952142D01*
X201864047Y-86883571D01*
X201783095Y-86849285D01*
X201621190Y-86814999D01*
X201499761Y-86814999D01*
X201337857Y-86849285D01*
X201256904Y-86883571D01*
X201175952Y-86952142D01*
X201135476Y-87054999D01*
X201135476Y-87226428D01*
X201135476Y-86129285D02*
X201135476Y-86540714D01*
X201135476Y-86334999D02*
X201985476Y-86334999D01*
X201864047Y-86403571D01*
X201783095Y-86472142D01*
X201742619Y-86540714D01*
X201135476Y-85443571D02*
X201135476Y-85854999D01*
X201135476Y-85649285D02*
X201985476Y-85649285D01*
X201864047Y-85717857D01*
X201783095Y-85786428D01*
X201742619Y-85854999D01*
X201135476Y-84586428D02*
X201985476Y-84586428D01*
X201985476Y-84414999D01*
X201945000Y-84312142D01*
X201864047Y-84243571D01*
X201783095Y-84209285D01*
X201621190Y-84174999D01*
X201499761Y-84174999D01*
X201337857Y-84209285D01*
X201256904Y-84243571D01*
X201175952Y-84312142D01*
X201135476Y-84414999D01*
X201135476Y-84586428D01*
X201135476Y-83489285D02*
X201135476Y-83900714D01*
X201135476Y-83694999D02*
X201985476Y-83694999D01*
X201864047Y-83763571D01*
X201783095Y-83832142D01*
X201742619Y-83900714D01*
X201904523Y-83214999D02*
X201945000Y-83180714D01*
X201985476Y-83112142D01*
X201985476Y-82940714D01*
X201945000Y-82872142D01*
X201904523Y-82837857D01*
X201823571Y-82803571D01*
X201742619Y-82803571D01*
X201621190Y-82837857D01*
X201135476Y-83249285D01*
X201135476Y-82803571D01*
X201135476Y-81946428D02*
X201985476Y-81946428D01*
X201985476Y-81774999D01*
X201945000Y-81672142D01*
X201864047Y-81603571D01*
X201783095Y-81569285D01*
X201621190Y-81534999D01*
X201499761Y-81534999D01*
X201337857Y-81569285D01*
X201256904Y-81603571D01*
X201175952Y-81672142D01*
X201135476Y-81774999D01*
X201135476Y-81946428D01*
X201135476Y-80849285D02*
X201135476Y-81260714D01*
X201135476Y-81054999D02*
X201985476Y-81054999D01*
X201864047Y-81123571D01*
X201783095Y-81192142D01*
X201742619Y-81260714D01*
X201985476Y-80609285D02*
X201985476Y-80163571D01*
X201661666Y-80403571D01*
X201661666Y-80300714D01*
X201621190Y-80232142D01*
X201580714Y-80197857D01*
X201499761Y-80163571D01*
X201297380Y-80163571D01*
X201216428Y-80197857D01*
X201175952Y-80232142D01*
X201135476Y-80300714D01*
X201135476Y-80506428D01*
X201175952Y-80574999D01*
X201216428Y-80609285D01*
X201985476Y-79306428D02*
X201297380Y-79306428D01*
X201216428Y-79272142D01*
X201175952Y-79237857D01*
X201135476Y-79169285D01*
X201135476Y-79032142D01*
X201175952Y-78963571D01*
X201216428Y-78929285D01*
X201297380Y-78894999D01*
X201985476Y-78894999D01*
X201175952Y-78586428D02*
X201135476Y-78483571D01*
X201135476Y-78312142D01*
X201175952Y-78243571D01*
X201216428Y-78209285D01*
X201297380Y-78174999D01*
X201378333Y-78174999D01*
X201459285Y-78209285D01*
X201499761Y-78243571D01*
X201540238Y-78312142D01*
X201580714Y-78449285D01*
X201621190Y-78517857D01*
X201661666Y-78552142D01*
X201742619Y-78586428D01*
X201823571Y-78586428D01*
X201904523Y-78552142D01*
X201945000Y-78517857D01*
X201985476Y-78449285D01*
X201985476Y-78277857D01*
X201945000Y-78174999D01*
X201580714Y-77626428D02*
X201540238Y-77523571D01*
X201499761Y-77489285D01*
X201418809Y-77454999D01*
X201297380Y-77454999D01*
X201216428Y-77489285D01*
X201175952Y-77523571D01*
X201135476Y-77592142D01*
X201135476Y-77866428D01*
X201985476Y-77866428D01*
X201985476Y-77626428D01*
X201945000Y-77557857D01*
X201904523Y-77523571D01*
X201823571Y-77489285D01*
X201742619Y-77489285D01*
X201661666Y-77523571D01*
X201621190Y-77557857D01*
X201580714Y-77626428D01*
X201580714Y-77866428D01*
X201580714Y-76049285D02*
X201580714Y-75809285D01*
X201135476Y-75706428D02*
X201135476Y-76049285D01*
X201985476Y-76049285D01*
X201985476Y-75706428D01*
X201135476Y-75397857D02*
X201985476Y-75397857D01*
X201135476Y-74986428D01*
X201985476Y-74986428D01*
X201985476Y-74197857D02*
X201135476Y-73957857D01*
X201985476Y-73717857D01*
X201580714Y-73237857D02*
X201540238Y-73134999D01*
X201499761Y-73100714D01*
X201418809Y-73066428D01*
X201297380Y-73066428D01*
X201216428Y-73100714D01*
X201175952Y-73134999D01*
X201135476Y-73203571D01*
X201135476Y-73477857D01*
X201985476Y-73477857D01*
X201985476Y-73237857D01*
X201945000Y-73169285D01*
X201904523Y-73134999D01*
X201823571Y-73100714D01*
X201742619Y-73100714D01*
X201661666Y-73134999D01*
X201621190Y-73169285D01*
X201580714Y-73237857D01*
X201580714Y-73477857D01*
X201378333Y-72792142D02*
X201378333Y-72449285D01*
X201135476Y-72860714D02*
X201985476Y-72620714D01*
X201135476Y-72380714D01*
X201985476Y-72243571D02*
X201985476Y-71832142D01*
X201135476Y-72037857D02*
X201985476Y-72037857D01*
X185054523Y-63117857D02*
X184649761Y-62877857D01*
X185054523Y-62706428D02*
X184204523Y-62706428D01*
X184204523Y-62980714D01*
X184245000Y-63049285D01*
X184285476Y-63083571D01*
X184366428Y-63117857D01*
X184487857Y-63117857D01*
X184568809Y-63083571D01*
X184609285Y-63049285D01*
X184649761Y-62980714D01*
X184649761Y-62706428D01*
X185014047Y-63392142D02*
X185054523Y-63495000D01*
X185054523Y-63666428D01*
X185014047Y-63735000D01*
X184973571Y-63769285D01*
X184892619Y-63803571D01*
X184811666Y-63803571D01*
X184730714Y-63769285D01*
X184690238Y-63735000D01*
X184649761Y-63666428D01*
X184609285Y-63529285D01*
X184568809Y-63460714D01*
X184528333Y-63426428D01*
X184447380Y-63392142D01*
X184366428Y-63392142D01*
X184285476Y-63426428D01*
X184245000Y-63460714D01*
X184204523Y-63529285D01*
X184204523Y-63700714D01*
X184245000Y-63803571D01*
X184204523Y-64009285D02*
X184204523Y-64420714D01*
X185054523Y-64215000D02*
X184204523Y-64215000D01*
X184204523Y-65140714D02*
X184204523Y-65586428D01*
X184528333Y-65346428D01*
X184528333Y-65449285D01*
X184568809Y-65517857D01*
X184609285Y-65552142D01*
X184690238Y-65586428D01*
X184892619Y-65586428D01*
X184973571Y-65552142D01*
X185014047Y-65517857D01*
X185054523Y-65449285D01*
X185054523Y-65243571D01*
X185014047Y-65175000D01*
X184973571Y-65140714D01*
X184204523Y-65792142D02*
X185054523Y-66032142D01*
X184204523Y-66272142D01*
X184204523Y-66443571D02*
X184204523Y-66889285D01*
X184528333Y-66649285D01*
X184528333Y-66752142D01*
X184568809Y-66820714D01*
X184609285Y-66855000D01*
X184690238Y-66889285D01*
X184892619Y-66889285D01*
X184973571Y-66855000D01*
X185014047Y-66820714D01*
X185054523Y-66752142D01*
X185054523Y-66546428D01*
X185014047Y-66477857D01*
X184973571Y-66443571D01*
X184204523Y-67677857D02*
X184204523Y-68123571D01*
X184528333Y-67883571D01*
X184528333Y-67986428D01*
X184568809Y-68055000D01*
X184609285Y-68089285D01*
X184690238Y-68123571D01*
X184892619Y-68123571D01*
X184973571Y-68089285D01*
X185014047Y-68055000D01*
X185054523Y-67986428D01*
X185054523Y-67780714D01*
X185014047Y-67712142D01*
X184973571Y-67677857D01*
X184204523Y-68329285D02*
X185054523Y-68569285D01*
X184204523Y-68809285D01*
X184204523Y-68980714D02*
X184204523Y-69426428D01*
X184528333Y-69186428D01*
X184528333Y-69289285D01*
X184568809Y-69357857D01*
X184609285Y-69392142D01*
X184690238Y-69426428D01*
X184892619Y-69426428D01*
X184973571Y-69392142D01*
X185014047Y-69357857D01*
X185054523Y-69289285D01*
X185054523Y-69083571D01*
X185014047Y-69015000D01*
X184973571Y-68980714D01*
X184245000Y-70660714D02*
X184204523Y-70592142D01*
X184204523Y-70489285D01*
X184245000Y-70386428D01*
X184325952Y-70317857D01*
X184406904Y-70283571D01*
X184568809Y-70249285D01*
X184690238Y-70249285D01*
X184852142Y-70283571D01*
X184933095Y-70317857D01*
X185014047Y-70386428D01*
X185054523Y-70489285D01*
X185054523Y-70557857D01*
X185014047Y-70660714D01*
X184973571Y-70695000D01*
X184690238Y-70695000D01*
X184690238Y-70557857D01*
X185054523Y-71003571D02*
X184204523Y-71003571D01*
X185054523Y-71415000D01*
X184204523Y-71415000D01*
X185054523Y-71757857D02*
X184204523Y-71757857D01*
X184204523Y-71929285D01*
X184245000Y-72032142D01*
X184325952Y-72100714D01*
X184406904Y-72135000D01*
X184568809Y-72169285D01*
X184690238Y-72169285D01*
X184852142Y-72135000D01*
X184933095Y-72100714D01*
X185014047Y-72032142D01*
X185054523Y-71929285D01*
X185054523Y-71757857D01*
X184811666Y-72992142D02*
X184811666Y-73335000D01*
X185054523Y-72923571D02*
X184204523Y-73163571D01*
X185054523Y-73403571D01*
X184204523Y-73780714D02*
X184204523Y-73849285D01*
X184245000Y-73917857D01*
X184285476Y-73952142D01*
X184366428Y-73986428D01*
X184528333Y-74020714D01*
X184730714Y-74020714D01*
X184892619Y-73986428D01*
X184973571Y-73952142D01*
X185014047Y-73917857D01*
X185054523Y-73849285D01*
X185054523Y-73780714D01*
X185014047Y-73712142D01*
X184973571Y-73677857D01*
X184892619Y-73643571D01*
X184730714Y-73609285D01*
X184528333Y-73609285D01*
X184366428Y-73643571D01*
X184285476Y-73677857D01*
X184245000Y-73712142D01*
X184204523Y-73780714D01*
X184811666Y-75392142D02*
X184811666Y-75735000D01*
X185054523Y-75323571D02*
X184204523Y-75563571D01*
X185054523Y-75803571D01*
X185054523Y-76420714D02*
X185054523Y-76009285D01*
X185054523Y-76215000D02*
X184204523Y-76215000D01*
X184325952Y-76146428D01*
X184406904Y-76077857D01*
X184447380Y-76009285D01*
X184811666Y-77792142D02*
X184811666Y-78135000D01*
X185054523Y-77723571D02*
X184204523Y-77963571D01*
X185054523Y-78203571D01*
X184285476Y-78409285D02*
X184245000Y-78443571D01*
X184204523Y-78512142D01*
X184204523Y-78683571D01*
X184245000Y-78752142D01*
X184285476Y-78786428D01*
X184366428Y-78820714D01*
X184447380Y-78820714D01*
X184568809Y-78786428D01*
X185054523Y-78375000D01*
X185054523Y-78820714D01*
X184811666Y-80740714D02*
X184811666Y-81083571D01*
X185054523Y-80672142D02*
X184204523Y-80912142D01*
X185054523Y-81152142D01*
X184204523Y-81323571D02*
X184204523Y-81769285D01*
X184528333Y-81529285D01*
X184528333Y-81632142D01*
X184568809Y-81700714D01*
X184609285Y-81735000D01*
X184690238Y-81769285D01*
X184892619Y-81769285D01*
X184973571Y-81735000D01*
X185014047Y-81700714D01*
X185054523Y-81632142D01*
X185054523Y-81426428D01*
X185014047Y-81357857D01*
X184973571Y-81323571D01*
X184811666Y-83140714D02*
X184811666Y-83483571D01*
X185054523Y-83072142D02*
X184204523Y-83312142D01*
X185054523Y-83552142D01*
X184487857Y-84100714D02*
X185054523Y-84100714D01*
X184164047Y-83929285D02*
X184771190Y-83757857D01*
X184771190Y-84203571D01*
X184811666Y-85540714D02*
X184811666Y-85883571D01*
X185054523Y-85472142D02*
X184204523Y-85712142D01*
X185054523Y-85952142D01*
X184204523Y-86535000D02*
X184204523Y-86192142D01*
X184609285Y-86157857D01*
X184568809Y-86192142D01*
X184528333Y-86260714D01*
X184528333Y-86432142D01*
X184568809Y-86500714D01*
X184609285Y-86535000D01*
X184690238Y-86569285D01*
X184892619Y-86569285D01*
X184973571Y-86535000D01*
X185014047Y-86500714D01*
X185054523Y-86432142D01*
X185054523Y-86260714D01*
X185014047Y-86192142D01*
X184973571Y-86157857D01*
X185014047Y-87940714D02*
X185054523Y-88043571D01*
X185054523Y-88215000D01*
X185014047Y-88283571D01*
X184973571Y-88317857D01*
X184892619Y-88352142D01*
X184811666Y-88352142D01*
X184730714Y-88317857D01*
X184690238Y-88283571D01*
X184649761Y-88215000D01*
X184609285Y-88077857D01*
X184568809Y-88009285D01*
X184528333Y-87975000D01*
X184447380Y-87940714D01*
X184366428Y-87940714D01*
X184285476Y-87975000D01*
X184245000Y-88009285D01*
X184204523Y-88077857D01*
X184204523Y-88249285D01*
X184245000Y-88352142D01*
X184973571Y-89072142D02*
X185014047Y-89037857D01*
X185054523Y-88935000D01*
X185054523Y-88866428D01*
X185014047Y-88763571D01*
X184933095Y-88695000D01*
X184852142Y-88660714D01*
X184690238Y-88626428D01*
X184568809Y-88626428D01*
X184406904Y-88660714D01*
X184325952Y-88695000D01*
X184245000Y-88763571D01*
X184204523Y-88866428D01*
X184204523Y-88935000D01*
X184245000Y-89037857D01*
X184285476Y-89072142D01*
X185054523Y-89380714D02*
X184204523Y-89380714D01*
X185054523Y-89792142D02*
X184568809Y-89483571D01*
X184204523Y-89792142D02*
X184690238Y-89380714D01*
X185054523Y-90649285D02*
X184204523Y-90649285D01*
X184811666Y-90889285D01*
X184204523Y-91129285D01*
X185054523Y-91129285D01*
X184204523Y-91609285D02*
X184204523Y-91746428D01*
X184245000Y-91815000D01*
X184325952Y-91883571D01*
X184487857Y-91917857D01*
X184771190Y-91917857D01*
X184933095Y-91883571D01*
X185014047Y-91815000D01*
X185054523Y-91746428D01*
X185054523Y-91609285D01*
X185014047Y-91540714D01*
X184933095Y-91472142D01*
X184771190Y-91437857D01*
X184487857Y-91437857D01*
X184325952Y-91472142D01*
X184245000Y-91540714D01*
X184204523Y-91609285D01*
X185014047Y-92192142D02*
X185054523Y-92295000D01*
X185054523Y-92466428D01*
X185014047Y-92535000D01*
X184973571Y-92569285D01*
X184892619Y-92603571D01*
X184811666Y-92603571D01*
X184730714Y-92569285D01*
X184690238Y-92535000D01*
X184649761Y-92466428D01*
X184609285Y-92329285D01*
X184568809Y-92260714D01*
X184528333Y-92226428D01*
X184447380Y-92192142D01*
X184366428Y-92192142D01*
X184285476Y-92226428D01*
X184245000Y-92260714D01*
X184204523Y-92329285D01*
X184204523Y-92500714D01*
X184245000Y-92603571D01*
X185054523Y-93460714D02*
X184204523Y-93460714D01*
X184811666Y-93700714D01*
X184204523Y-93940714D01*
X185054523Y-93940714D01*
X185054523Y-94283571D02*
X184204523Y-94283571D01*
X185014047Y-94592142D02*
X185054523Y-94695000D01*
X185054523Y-94866428D01*
X185014047Y-94935000D01*
X184973571Y-94969285D01*
X184892619Y-95003571D01*
X184811666Y-95003571D01*
X184730714Y-94969285D01*
X184690238Y-94935000D01*
X184649761Y-94866428D01*
X184609285Y-94729285D01*
X184568809Y-94660714D01*
X184528333Y-94626428D01*
X184447380Y-94592142D01*
X184366428Y-94592142D01*
X184285476Y-94626428D01*
X184245000Y-94660714D01*
X184204523Y-94729285D01*
X184204523Y-94900714D01*
X184245000Y-95003571D01*
X185054523Y-96272142D02*
X184649761Y-96032142D01*
X185054523Y-95860714D02*
X184204523Y-95860714D01*
X184204523Y-96135000D01*
X184245000Y-96203571D01*
X184285476Y-96237857D01*
X184366428Y-96272142D01*
X184487857Y-96272142D01*
X184568809Y-96237857D01*
X184609285Y-96203571D01*
X184649761Y-96135000D01*
X184649761Y-95860714D01*
X184204523Y-96512142D02*
X185054523Y-96992142D01*
X184204523Y-96992142D02*
X185054523Y-96512142D01*
X184204523Y-98260714D02*
X184204523Y-98672142D01*
X185054523Y-98466428D02*
X184204523Y-98466428D01*
X184204523Y-98843571D02*
X185054523Y-99323571D01*
X184204523Y-99323571D02*
X185054523Y-98843571D01*
X185054523Y-100695000D02*
X184204523Y-100695000D01*
X184204523Y-100866428D01*
X184245000Y-100969285D01*
X184325952Y-101037857D01*
X184406904Y-101072142D01*
X184568809Y-101106428D01*
X184690238Y-101106428D01*
X184852142Y-101072142D01*
X184933095Y-101037857D01*
X185014047Y-100969285D01*
X185054523Y-100866428D01*
X185054523Y-100695000D01*
X184204523Y-101312142D02*
X184204523Y-101723571D01*
X185054523Y-101517857D02*
X184204523Y-101517857D01*
X184204523Y-101895000D02*
X185054523Y-102375000D01*
X184204523Y-102375000D02*
X185054523Y-101895000D01*
%TO.C,H4*%
G36*
X200013803Y-92314925D02*
G01*
X195599194Y-92314925D01*
X195599194Y-91163287D01*
X200013803Y-91163287D01*
X200013803Y-92314925D01*
G37*
G36*
X191951720Y-74364841D02*
G01*
X192153189Y-74458364D01*
X192200435Y-74505868D01*
X192320959Y-74717510D01*
X192433365Y-75050178D01*
X192490916Y-75247247D01*
X192556475Y-75418065D01*
X192621993Y-75507300D01*
X192701236Y-75540129D01*
X192810053Y-75522632D01*
X192934639Y-75416771D01*
X193011653Y-75253658D01*
X193014047Y-75073631D01*
X192946716Y-74940680D01*
X192815055Y-74809887D01*
X192808004Y-74805155D01*
X192696591Y-74686089D01*
X192653286Y-74553217D01*
X192681106Y-74445167D01*
X192783071Y-74400567D01*
X192810801Y-74403779D01*
X192951545Y-74464044D01*
X193106921Y-74576512D01*
X193246181Y-74747811D01*
X193336511Y-74997055D01*
X193344006Y-75262248D01*
X193276712Y-75516069D01*
X193142674Y-75731196D01*
X192949939Y-75880308D01*
X192706551Y-75936083D01*
X192559852Y-75908505D01*
X192359683Y-75777899D01*
X192202863Y-75563855D01*
X192113911Y-75292979D01*
X192094862Y-75189880D01*
X192006558Y-74919107D01*
X191880053Y-74767612D01*
X191713346Y-74732598D01*
X191638299Y-74751847D01*
X191512202Y-74859129D01*
X191454515Y-75025995D01*
X191465879Y-75218086D01*
X191546933Y-75401042D01*
X191698315Y-75540503D01*
X191768007Y-75590459D01*
X191867800Y-75725048D01*
X191891723Y-75864187D01*
X191827199Y-75966333D01*
X191789832Y-75979972D01*
X191646985Y-75959912D01*
X191477057Y-75874328D01*
X191320308Y-75747219D01*
X191216997Y-75602584D01*
X191147026Y-75359130D01*
X191132154Y-75065048D01*
X191178776Y-74784227D01*
X191280486Y-74552504D01*
X191430881Y-74405717D01*
X191468712Y-74387765D01*
X191702511Y-74339774D01*
X191951720Y-74364841D01*
G37*
G36*
X193295919Y-80320537D02*
G01*
X192455490Y-80612881D01*
X191615060Y-80905224D01*
X192439495Y-81195552D01*
X192527646Y-81226625D01*
X192831593Y-81335580D01*
X193038564Y-81416584D01*
X193167922Y-81480885D01*
X193239035Y-81539731D01*
X193271265Y-81604368D01*
X193283978Y-81686044D01*
X193284989Y-81697041D01*
X193279659Y-81831011D01*
X193243685Y-81886209D01*
X193208234Y-81877705D01*
X193069460Y-81833376D01*
X192851094Y-81759003D01*
X192577883Y-81663464D01*
X192274570Y-81555641D01*
X191965903Y-81444411D01*
X191676625Y-81338656D01*
X191431483Y-81247253D01*
X191255221Y-81179083D01*
X191172586Y-81143026D01*
X191169310Y-81140582D01*
X191134803Y-81052945D01*
X191120605Y-80899042D01*
X191124046Y-80808162D01*
X191150944Y-80729543D01*
X191225717Y-80666612D01*
X191372755Y-80600310D01*
X191616448Y-80511577D01*
X191692845Y-80484478D01*
X192013828Y-80370058D01*
X192372334Y-80241619D01*
X192704106Y-80122165D01*
X193295919Y-79908359D01*
X193295919Y-80320537D01*
G37*
G36*
X196670856Y-79149524D02*
G01*
X197742519Y-79167066D01*
X197762764Y-79343010D01*
X197783008Y-79518955D01*
X195599194Y-79518955D01*
X195599194Y-79131982D01*
X196670856Y-79149524D01*
G37*
G36*
X196414937Y-74528766D02*
G01*
X196662091Y-74531441D01*
X197033440Y-74552605D01*
X197306263Y-74599984D01*
X197498972Y-74679679D01*
X197629979Y-74797791D01*
X197717693Y-74960420D01*
X197757566Y-75152119D01*
X197753559Y-75401210D01*
X197705420Y-75636395D01*
X197619568Y-75802589D01*
X197567888Y-75863078D01*
X197555100Y-75919785D01*
X197643991Y-75953953D01*
X197732338Y-76006336D01*
X197774509Y-76154023D01*
X197774509Y-76319962D01*
X195599194Y-76319962D01*
X195599194Y-75936083D01*
X196355800Y-75936083D01*
X196590981Y-75935546D01*
X196841354Y-75930652D01*
X197007810Y-75916727D01*
X197116414Y-75889134D01*
X197193227Y-75843232D01*
X197264313Y-75774384D01*
X197353832Y-75647808D01*
X197417958Y-75423967D01*
X197389549Y-75204881D01*
X197268378Y-75032122D01*
X197194478Y-74983799D01*
X197087993Y-74947501D01*
X196930473Y-74925753D01*
X196696302Y-74915180D01*
X196359864Y-74912406D01*
X195599194Y-74912406D01*
X195599194Y-74528527D01*
X196414937Y-74528766D01*
G37*
G36*
X189968967Y-81374371D02*
G01*
X186769975Y-81374371D01*
X186769975Y-80990491D01*
X189968967Y-80990491D01*
X189968967Y-81374371D01*
G37*
G36*
X189968967Y-82398048D02*
G01*
X186769975Y-82398048D01*
X186769975Y-82014169D01*
X189968967Y-82014169D01*
X189968967Y-82398048D01*
G37*
G36*
X192447534Y-79725884D02*
G01*
X192059144Y-79743134D01*
X191714908Y-79654193D01*
X191431928Y-79466055D01*
X191227307Y-79185714D01*
X191138620Y-78900876D01*
X191128660Y-78591234D01*
X191192207Y-78295717D01*
X191321789Y-78048724D01*
X191509934Y-77884650D01*
X191599818Y-77840678D01*
X191739009Y-77799039D01*
X191806648Y-77843021D01*
X191824383Y-77979127D01*
X191801572Y-78116228D01*
X191703304Y-78205184D01*
X191662293Y-78222962D01*
X191542329Y-78351190D01*
X191474950Y-78548025D01*
X191463515Y-78774203D01*
X191511378Y-78990457D01*
X191621898Y-79157522D01*
X191757910Y-79240652D01*
X191940546Y-79302263D01*
X192144282Y-79343010D01*
X192144282Y-78751197D01*
X192464181Y-78751197D01*
X192465070Y-78879717D01*
X192471854Y-79109184D01*
X192483861Y-79267799D01*
X192499348Y-79327015D01*
X192559944Y-79317220D01*
X192722788Y-79230225D01*
X192875714Y-79085928D01*
X192971621Y-78924475D01*
X192993293Y-78839084D01*
X192988681Y-78594657D01*
X192896949Y-78382144D01*
X192736354Y-78232174D01*
X192525151Y-78175378D01*
X192512244Y-78187848D01*
X192487451Y-78295903D01*
X192470476Y-78492697D01*
X192464181Y-78751197D01*
X192144282Y-78751197D01*
X192144282Y-77716272D01*
X192416196Y-77761451D01*
X192672279Y-77823935D01*
X192993308Y-77986279D01*
X193215272Y-78224241D01*
X193333348Y-78533758D01*
X193353244Y-78744899D01*
X193294919Y-79079362D01*
X193128551Y-79362469D01*
X192864965Y-79578637D01*
X192514982Y-79712277D01*
X192499348Y-79715431D01*
X192447534Y-79725884D01*
G37*
G36*
X194127657Y-86108879D02*
G01*
X193183955Y-86110406D01*
X192875356Y-86112722D01*
X192427229Y-86127699D01*
X192085130Y-86161406D01*
X191835343Y-86219474D01*
X191664149Y-86307536D01*
X191557829Y-86431225D01*
X191502666Y-86596175D01*
X191484942Y-86808016D01*
X191484769Y-86820874D01*
X191495268Y-87034219D01*
X191545358Y-87179104D01*
X191653570Y-87310789D01*
X191827163Y-87484446D01*
X192977410Y-87506656D01*
X194127657Y-87528865D01*
X194127657Y-87900315D01*
X193024005Y-87898910D01*
X193016547Y-87898900D01*
X192524131Y-87893106D01*
X192141479Y-87874096D01*
X191850898Y-87836973D01*
X191634698Y-87776840D01*
X191475185Y-87688802D01*
X191354670Y-87567961D01*
X191255459Y-87409421D01*
X191210407Y-87313288D01*
X191125947Y-86975613D01*
X191135857Y-86631970D01*
X191232604Y-86311515D01*
X191408659Y-86043408D01*
X191656489Y-85856806D01*
X191683823Y-85843846D01*
X191797082Y-85798402D01*
X191924257Y-85766134D01*
X192088152Y-85744851D01*
X192311572Y-85732362D01*
X192617324Y-85726475D01*
X193028210Y-85725000D01*
X194127657Y-85725000D01*
X194127657Y-86108879D01*
G37*
G36*
X196041968Y-78665405D02*
G01*
X195802289Y-78560672D01*
X195624498Y-78360275D01*
X195557566Y-78169619D01*
X195549906Y-77925859D01*
X195866277Y-77925859D01*
X195885439Y-78082102D01*
X195974169Y-78199310D01*
X195987702Y-78211159D01*
X196156910Y-78295117D01*
X196312290Y-78265502D01*
X196440186Y-78135646D01*
X196526939Y-77918881D01*
X196558892Y-77628539D01*
X196557680Y-77510427D01*
X196539052Y-77394439D01*
X196476880Y-77350508D01*
X196344878Y-77343640D01*
X196182801Y-77368795D01*
X196019557Y-77466634D01*
X196007103Y-77481662D01*
X195926057Y-77639189D01*
X195875355Y-77834872D01*
X195866277Y-77925859D01*
X195549906Y-77925859D01*
X195548237Y-77872755D01*
X195627919Y-77565515D01*
X195644942Y-77521941D01*
X195677207Y-77394783D01*
X195659909Y-77343640D01*
X195659167Y-77343626D01*
X195616785Y-77286482D01*
X195599194Y-77151701D01*
X195599194Y-76959761D01*
X196427922Y-76959761D01*
X196757389Y-76963021D01*
X197085382Y-76979682D01*
X197321709Y-77015291D01*
X197486635Y-77075161D01*
X197600423Y-77164606D01*
X197683337Y-77288939D01*
X197693247Y-77308971D01*
X197763604Y-77562385D01*
X197765217Y-77843804D01*
X197705899Y-78115639D01*
X197593462Y-78340305D01*
X197435720Y-78480214D01*
X197242120Y-78565993D01*
X197130403Y-78587723D01*
X197081523Y-78538081D01*
X197070730Y-78412471D01*
X197070808Y-78400656D01*
X197104479Y-78234472D01*
X197213782Y-78142565D01*
X197290468Y-78097780D01*
X197408699Y-77945873D01*
X197442539Y-77759050D01*
X197397593Y-77574029D01*
X197279466Y-77427525D01*
X197093760Y-77356255D01*
X196896853Y-77336880D01*
X196863789Y-77748782D01*
X196855498Y-77833822D01*
X196777338Y-78197181D01*
X196640435Y-78461682D01*
X196449337Y-78617785D01*
X196309929Y-78663983D01*
X196156910Y-78664795D01*
X196041968Y-78665405D01*
G37*
G36*
X187758085Y-85326881D02*
G01*
X187776672Y-85352461D01*
X187797041Y-85480465D01*
X187760772Y-85619134D01*
X187681688Y-85700820D01*
X187500165Y-85773303D01*
X187265836Y-85948288D01*
X187132267Y-86195083D01*
X187089874Y-86527068D01*
X187118180Y-86796011D01*
X187242775Y-87082305D01*
X187465968Y-87287544D01*
X187787034Y-87411128D01*
X188205251Y-87452456D01*
X188553575Y-87429851D01*
X188901676Y-87334792D01*
X189152157Y-87162058D01*
X189309925Y-86907958D01*
X189379889Y-86568798D01*
X189387365Y-86441867D01*
X189380929Y-86262355D01*
X189336036Y-86132340D01*
X189240142Y-86000839D01*
X189213573Y-85970934D01*
X189059196Y-85837655D01*
X188913488Y-85762755D01*
X188876623Y-85752068D01*
X188778986Y-85680159D01*
X188753350Y-85531842D01*
X188767509Y-85415750D01*
X188833477Y-85348752D01*
X188968170Y-85365353D01*
X189187763Y-85462992D01*
X189315801Y-85543139D01*
X189538238Y-85780748D01*
X189679494Y-86082898D01*
X189737037Y-86423999D01*
X189708332Y-86778460D01*
X189590845Y-87120692D01*
X189382042Y-87425104D01*
X189336054Y-87472703D01*
X189020751Y-87707913D01*
X188661000Y-87851635D01*
X188278819Y-87907521D01*
X187896224Y-87879222D01*
X187535232Y-87770390D01*
X187217859Y-87584676D01*
X186966121Y-87325732D01*
X186802036Y-86997209D01*
X186780950Y-86925683D01*
X186731909Y-86721484D01*
X186710275Y-86569075D01*
X186711463Y-86487368D01*
X186767709Y-86173142D01*
X186889235Y-85870374D01*
X187054907Y-85636273D01*
X187139082Y-85563233D01*
X187316749Y-85447748D01*
X187504159Y-85358852D01*
X187663781Y-85313059D01*
X187758085Y-85326881D01*
G37*
G36*
X191500472Y-71888478D02*
G01*
X191484981Y-72018862D01*
X191472077Y-72104439D01*
X191484325Y-72213520D01*
X191554226Y-72285617D01*
X191699300Y-72328050D01*
X191937064Y-72348142D01*
X192285038Y-72353212D01*
X192976020Y-72353212D01*
X192976020Y-72129282D01*
X192983521Y-71997372D01*
X193027802Y-71922083D01*
X193135970Y-71905353D01*
X193227784Y-71915061D01*
X193283468Y-71975661D01*
X193295919Y-72125420D01*
X193296058Y-72156795D01*
X193311282Y-72286082D01*
X193378569Y-72342956D01*
X193535844Y-72365345D01*
X193547613Y-72366336D01*
X193699423Y-72390621D01*
X193762946Y-72449830D01*
X193775768Y-72577141D01*
X193775747Y-72586559D01*
X193761096Y-72709219D01*
X193693657Y-72765619D01*
X193535844Y-72788938D01*
X193434414Y-72801314D01*
X193325376Y-72845538D01*
X193295919Y-72932893D01*
X193262155Y-73026280D01*
X193135970Y-73056990D01*
X193016484Y-73031357D01*
X192976020Y-72934389D01*
X192973860Y-72904907D01*
X192949632Y-72861826D01*
X192881368Y-72832743D01*
X192748089Y-72813753D01*
X192528818Y-72800951D01*
X192202576Y-72790434D01*
X191900455Y-72781257D01*
X191668454Y-72769002D01*
X191515253Y-72748970D01*
X191415162Y-72715510D01*
X191342491Y-72662974D01*
X191271552Y-72585713D01*
X191223147Y-72524987D01*
X191142447Y-72354828D01*
X191133283Y-72137855D01*
X191135724Y-72106156D01*
X191160278Y-71951219D01*
X191218259Y-71879581D01*
X191337561Y-71852248D01*
X191451402Y-71846052D01*
X191500472Y-71888478D01*
G37*
G36*
X186848521Y-89584274D02*
G01*
X186959358Y-89682581D01*
X187138306Y-89850931D01*
X187372368Y-90076870D01*
X187648545Y-90347941D01*
X187953842Y-90651689D01*
X189040328Y-91739587D01*
X186769975Y-94009940D01*
X186769975Y-91786866D01*
X186770952Y-91343919D01*
X186774430Y-90860537D01*
X186780122Y-90432458D01*
X186787710Y-90074213D01*
X186796875Y-89800333D01*
X186807300Y-89625348D01*
X186818665Y-89563791D01*
X186848521Y-89584274D01*
G37*
G36*
X196051567Y-86182265D02*
G01*
X196123749Y-86247077D01*
X196372715Y-86470092D01*
X196613554Y-86685149D01*
X196802791Y-86853408D01*
X197101642Y-87118089D01*
X197782293Y-86485524D01*
X197885776Y-86389776D01*
X198118107Y-86178111D01*
X198310093Y-86007779D01*
X198444127Y-85894242D01*
X198502605Y-85852960D01*
X198506641Y-85854075D01*
X198531930Y-85923741D01*
X198542267Y-86068435D01*
X198537729Y-86139319D01*
X198509849Y-86230096D01*
X198443452Y-86332137D01*
X198323733Y-86463276D01*
X198135889Y-86641345D01*
X197865118Y-86884179D01*
X197187969Y-87484446D01*
X197865118Y-87502606D01*
X198542267Y-87520765D01*
X198542267Y-87900315D01*
X195599194Y-87900315D01*
X195599194Y-87516436D01*
X196944767Y-87516436D01*
X196271980Y-86899070D01*
X196226601Y-86857402D01*
X195974157Y-86622976D01*
X195800299Y-86452219D01*
X195690450Y-86326275D01*
X195630034Y-86226286D01*
X195604475Y-86133398D01*
X195599194Y-86028753D01*
X195599194Y-85775802D01*
X196051567Y-86182265D01*
G37*
G36*
X194013296Y-82296810D02*
G01*
X194127452Y-82373654D01*
X194185754Y-82495552D01*
X194152463Y-82637973D01*
X194077485Y-82722933D01*
X193932922Y-82765293D01*
X193783534Y-82684583D01*
X193710325Y-82600708D01*
X193689716Y-82501152D01*
X193764002Y-82371329D01*
X193879024Y-82289552D01*
X194013296Y-82296810D01*
G37*
G36*
X196430115Y-81473099D02*
G01*
X196607685Y-81565894D01*
X196653404Y-81617742D01*
X196762886Y-81813308D01*
X196845439Y-82053593D01*
X196878434Y-82278995D01*
X196908652Y-82386209D01*
X196994727Y-82527047D01*
X196996519Y-82529246D01*
X197128968Y-82626595D01*
X197257021Y-82620886D01*
X197362556Y-82535924D01*
X197427449Y-82395512D01*
X197433578Y-82223456D01*
X197362819Y-82043559D01*
X197273787Y-81934480D01*
X197197215Y-81886209D01*
X197196444Y-81886195D01*
X197152817Y-81829043D01*
X197134710Y-81694270D01*
X197138240Y-81615969D01*
X197176224Y-81522915D01*
X197273675Y-81518881D01*
X197452458Y-81597187D01*
X197549733Y-81664990D01*
X197690390Y-81863260D01*
X197759809Y-82117076D01*
X197756079Y-82391448D01*
X197677290Y-82651386D01*
X197521530Y-82861902D01*
X197344023Y-82989675D01*
X197150985Y-83032634D01*
X196918836Y-82976929D01*
X196791130Y-82902272D01*
X196685336Y-82769112D01*
X196591901Y-82555506D01*
X196497506Y-82238099D01*
X196495611Y-82230910D01*
X196435544Y-82022103D01*
X196380038Y-81906720D01*
X196305840Y-81854246D01*
X196189697Y-81834168D01*
X196090179Y-81829807D01*
X195983438Y-81868912D01*
X195914467Y-81994117D01*
X195896789Y-82048810D01*
X195884587Y-82287208D01*
X195966619Y-82498380D01*
X196129322Y-82641464D01*
X196202875Y-82692024D01*
X196290241Y-82823502D01*
X196306612Y-82965174D01*
X196239701Y-83069399D01*
X196209182Y-83080571D01*
X196075379Y-83058841D01*
X195910783Y-82971864D01*
X195754540Y-82844011D01*
X195645795Y-82699654D01*
X195565667Y-82450161D01*
X195548277Y-82162704D01*
X195593219Y-81885292D01*
X195694340Y-81654645D01*
X195845491Y-81507480D01*
X195955714Y-81464869D01*
X196193641Y-81437957D01*
X196430115Y-81473099D01*
G37*
G36*
X193295919Y-73888728D02*
G01*
X192250915Y-73888728D01*
X192008945Y-73887499D01*
X191683410Y-73881572D01*
X191418498Y-73871577D01*
X191236654Y-73858453D01*
X191160320Y-73843138D01*
X191135369Y-73774959D01*
X191133662Y-73635203D01*
X191152594Y-73472859D01*
X192224257Y-73455317D01*
X193295919Y-73437775D01*
X193295919Y-73888728D01*
G37*
G36*
X197762764Y-83725630D02*
G01*
X197742519Y-83901575D01*
X196670856Y-83919117D01*
X195599194Y-83936658D01*
X195599194Y-83549685D01*
X197783008Y-83549685D01*
X197762764Y-83725630D01*
G37*
G36*
X187891260Y-78214296D02*
G01*
X187586024Y-78171172D01*
X187311159Y-78051935D01*
X187082916Y-77870007D01*
X186917548Y-77638810D01*
X186831307Y-77371764D01*
X186834508Y-77270349D01*
X187186260Y-77270349D01*
X187250424Y-77485986D01*
X187298572Y-77562977D01*
X187439178Y-77700045D01*
X187635978Y-77771163D01*
X187922327Y-77791499D01*
X187940972Y-77791453D01*
X188152614Y-77776750D01*
X188299218Y-77721383D01*
X188438372Y-77604481D01*
X188530498Y-77492206D01*
X188619464Y-77266390D01*
X188607747Y-77041434D01*
X188511201Y-76836314D01*
X188345682Y-76670005D01*
X188127045Y-76561483D01*
X187871145Y-76529726D01*
X187593839Y-76593709D01*
X187576780Y-76601037D01*
X187409172Y-76691849D01*
X187294713Y-76784192D01*
X187269714Y-76818645D01*
X187194009Y-77027001D01*
X187186260Y-77270349D01*
X186834508Y-77270349D01*
X186840444Y-77082293D01*
X186961213Y-76783816D01*
X187087993Y-76575882D01*
X186865004Y-76575882D01*
X186660901Y-76615154D01*
X186464463Y-76759107D01*
X186348692Y-76990544D01*
X186333783Y-77069616D01*
X186340600Y-77321779D01*
X186416835Y-77548987D01*
X186549035Y-77703372D01*
X186594577Y-77741598D01*
X186674797Y-77867898D01*
X186710980Y-78010507D01*
X186696383Y-78127107D01*
X186624261Y-78175378D01*
X186598775Y-78173255D01*
X186443046Y-78103559D01*
X186272422Y-77958144D01*
X186124934Y-77768037D01*
X186017001Y-77481837D01*
X185997527Y-77150817D01*
X186060890Y-76816490D01*
X186199711Y-76517508D01*
X186406610Y-76292521D01*
X186461915Y-76255291D01*
X186541967Y-76217875D01*
X186648941Y-76191731D01*
X186803045Y-76174865D01*
X187024482Y-76165285D01*
X187333461Y-76160999D01*
X187750187Y-76160013D01*
X188913300Y-76160013D01*
X188933579Y-76336321D01*
X188929043Y-76457922D01*
X188855187Y-76550494D01*
X188802688Y-76579076D01*
X188792987Y-76641559D01*
X188850903Y-76770882D01*
X188906878Y-76907382D01*
X188947755Y-77225893D01*
X188884959Y-77544314D01*
X188728249Y-77828468D01*
X188487382Y-78044176D01*
X188210614Y-78167886D01*
X187922327Y-78209781D01*
X187891260Y-78214296D01*
G37*
G36*
X192327221Y-83308417D02*
G01*
X192690027Y-83341623D01*
X192957302Y-83411960D01*
X193144055Y-83523490D01*
X193265292Y-83680280D01*
X193332587Y-83866056D01*
X193349063Y-84178575D01*
X193259695Y-84476113D01*
X193203752Y-84621345D01*
X193228100Y-84689379D01*
X193234630Y-84692569D01*
X193278125Y-84777441D01*
X193295919Y-84930584D01*
X193295919Y-85149182D01*
X192250915Y-85149182D01*
X192008945Y-85147953D01*
X191683410Y-85142025D01*
X191418498Y-85132030D01*
X191236654Y-85118906D01*
X191160320Y-85103591D01*
X191135369Y-85035412D01*
X191133662Y-84895657D01*
X191152594Y-84733313D01*
X191973699Y-84701323D01*
X192132998Y-84694662D01*
X192467705Y-84673158D01*
X192700053Y-84637648D01*
X192848551Y-84578011D01*
X192931706Y-84484122D01*
X192968026Y-84345859D01*
X192976020Y-84153100D01*
X192974849Y-84080965D01*
X192955940Y-83936866D01*
X192899702Y-83835009D01*
X192788010Y-83767250D01*
X192602740Y-83725445D01*
X192325767Y-83701450D01*
X191938968Y-83687122D01*
X191113363Y-83664609D01*
X191132979Y-83495182D01*
X191152594Y-83325756D01*
X191888363Y-83307358D01*
X192327221Y-83308417D01*
G37*
G36*
X194098359Y-73486094D02*
G01*
X194177157Y-73600177D01*
X194177271Y-73744379D01*
X194089515Y-73869149D01*
X193995363Y-73929508D01*
X193892689Y-73939384D01*
X193780338Y-73852168D01*
X193695028Y-73702520D01*
X193717319Y-73564482D01*
X193829185Y-73470340D01*
X194012171Y-73451953D01*
X194098359Y-73486094D01*
G37*
G36*
X198482634Y-79108617D02*
G01*
X198576776Y-79220482D01*
X198595163Y-79403469D01*
X198561022Y-79489657D01*
X198446939Y-79568455D01*
X198302737Y-79568569D01*
X198177967Y-79480813D01*
X198117608Y-79386661D01*
X198107732Y-79283987D01*
X198194948Y-79171636D01*
X198344596Y-79086326D01*
X198482634Y-79108617D01*
G37*
G36*
X196205705Y-73056990D02*
G01*
X195998808Y-73037975D01*
X195787109Y-72941994D01*
X195634946Y-72751477D01*
X195557780Y-72524794D01*
X195552946Y-72327955D01*
X195857000Y-72327955D01*
X195902042Y-72514842D01*
X196022211Y-72634191D01*
X196208675Y-72662605D01*
X196266824Y-72651548D01*
X196428964Y-72546547D01*
X196525416Y-72336226D01*
X196557948Y-72017318D01*
X196557327Y-71919849D01*
X196543227Y-71782917D01*
X196497805Y-71725228D01*
X196404175Y-71713413D01*
X196256923Y-71724425D01*
X196077639Y-71802135D01*
X195948717Y-71973909D01*
X195895916Y-72096927D01*
X195857000Y-72327955D01*
X195552946Y-72327955D01*
X195550322Y-72221078D01*
X195635418Y-71938623D01*
X195691362Y-71793391D01*
X195667014Y-71725357D01*
X195619859Y-71656836D01*
X195599194Y-71516142D01*
X195599194Y-71329534D01*
X196461913Y-71329534D01*
X196571622Y-71329562D01*
X196887737Y-71331241D01*
X197107747Y-71338559D01*
X197256508Y-71355682D01*
X197358877Y-71386778D01*
X197439712Y-71436013D01*
X197523870Y-71507554D01*
X197611874Y-71604836D01*
X197732465Y-71855475D01*
X197772357Y-72143157D01*
X197733967Y-72432013D01*
X197619715Y-72686172D01*
X197432019Y-72869763D01*
X197335634Y-72925109D01*
X197179472Y-72984261D01*
X197095667Y-72952007D01*
X197070730Y-72826740D01*
X197119278Y-72662729D01*
X197262670Y-72481172D01*
X197301973Y-72441984D01*
X197430984Y-72235613D01*
X197439755Y-72029955D01*
X197326650Y-71841373D01*
X197204235Y-71757912D01*
X197038741Y-71713413D01*
X197009118Y-71713877D01*
X196922915Y-71735185D01*
X196886254Y-71813964D01*
X196878434Y-71985328D01*
X196866305Y-72215887D01*
X196789736Y-72566027D01*
X196649134Y-72830854D01*
X196451968Y-72998474D01*
X196208675Y-73056284D01*
X196205705Y-73056990D01*
G37*
G36*
X198471756Y-73528938D02*
G01*
X198554513Y-73588168D01*
X198574257Y-73728779D01*
X198572060Y-73790380D01*
X198531975Y-73900269D01*
X198417892Y-73942789D01*
X198313644Y-73938172D01*
X198180447Y-73853976D01*
X198145281Y-73788878D01*
X198145903Y-73647282D01*
X198239611Y-73544632D01*
X198402616Y-73517010D01*
X198471756Y-73528938D01*
G37*
G36*
X187339540Y-84889443D02*
G01*
X187039989Y-84679341D01*
X186994415Y-84633010D01*
X186856784Y-84454115D01*
X186773845Y-84287056D01*
X186720652Y-84028898D01*
X186725298Y-83963435D01*
X187089874Y-83963435D01*
X187099352Y-84124105D01*
X187155304Y-84272337D01*
X187286722Y-84407726D01*
X187347333Y-84451637D01*
X187595568Y-84551190D01*
X187884878Y-84583908D01*
X188166196Y-84548239D01*
X188390454Y-84442631D01*
X188539343Y-84261004D01*
X188607635Y-84020799D01*
X188585751Y-83769140D01*
X188477330Y-83543078D01*
X188286014Y-83379664D01*
X188220983Y-83350757D01*
X187960173Y-83296706D01*
X187678740Y-83309348D01*
X187422929Y-83382863D01*
X187238983Y-83511431D01*
X187125404Y-83706070D01*
X187089874Y-83963435D01*
X186725298Y-83963435D01*
X186739213Y-83767363D01*
X186849950Y-83487013D01*
X187023682Y-83221223D01*
X187268500Y-83022021D01*
X187595148Y-82904239D01*
X187826900Y-82874032D01*
X188180070Y-82915846D01*
X188487055Y-83057966D01*
X188729284Y-83286099D01*
X188888187Y-83585953D01*
X188945190Y-83943234D01*
X188912465Y-84213254D01*
X188781669Y-84516092D01*
X188570423Y-84753656D01*
X188299659Y-84917860D01*
X187990304Y-85000616D01*
X187884878Y-84998431D01*
X187663288Y-84993839D01*
X187339540Y-84889443D01*
G37*
G36*
X198427905Y-83512427D02*
G01*
X198542062Y-83589271D01*
X198600364Y-83711169D01*
X198567072Y-83853590D01*
X198492094Y-83938550D01*
X198347532Y-83980911D01*
X198198144Y-83900200D01*
X198124935Y-83816325D01*
X198104325Y-83716769D01*
X198178612Y-83586947D01*
X198293633Y-83505169D01*
X198427905Y-83512427D01*
G37*
G36*
X193295919Y-82717947D02*
G01*
X192250915Y-82717947D01*
X192008589Y-82716793D01*
X191683591Y-82711245D01*
X191419462Y-82701894D01*
X191238564Y-82689618D01*
X191163258Y-82675294D01*
X191137143Y-82617719D01*
X191120605Y-82483355D01*
X191120605Y-82334068D01*
X193295919Y-82334068D01*
X193295919Y-82717947D01*
G37*
G36*
X195847506Y-79978693D02*
G01*
X195905451Y-80046623D01*
X195931226Y-80206738D01*
X195951083Y-80446663D01*
X196670856Y-80464753D01*
X197390630Y-80482844D01*
X197390630Y-80256819D01*
X197400992Y-80105776D01*
X197454028Y-80043096D01*
X197582569Y-80030794D01*
X197709537Y-80042565D01*
X197763809Y-80104274D01*
X197774509Y-80254723D01*
X197774537Y-80271768D01*
X197786803Y-80412870D01*
X197848354Y-80468748D01*
X197998438Y-80478653D01*
X198015483Y-80478681D01*
X198156585Y-80490947D01*
X198212464Y-80552498D01*
X198222368Y-80702582D01*
X198222340Y-80719626D01*
X198210074Y-80860729D01*
X198148523Y-80916607D01*
X197998438Y-80926512D01*
X197897347Y-80930694D01*
X197799558Y-80966279D01*
X197774509Y-81054471D01*
X197772529Y-81087503D01*
X197723063Y-81162322D01*
X197582569Y-81182431D01*
X197533022Y-81181111D01*
X197420793Y-81148134D01*
X197390630Y-81054471D01*
X197390567Y-81046992D01*
X197379349Y-80991325D01*
X197332686Y-80956054D01*
X197227453Y-80936568D01*
X197040525Y-80928257D01*
X196748776Y-80926512D01*
X196605786Y-80925107D01*
X196200288Y-80898784D01*
X195904965Y-80836798D01*
X195709165Y-80736055D01*
X195602239Y-80593460D01*
X195541694Y-80369751D01*
X195547766Y-80162676D01*
X195623384Y-80019974D01*
X195762127Y-79966814D01*
X195847506Y-79978693D01*
G37*
G36*
X187832766Y-80487793D02*
G01*
X187488149Y-80444916D01*
X187167000Y-80307774D01*
X186921968Y-80088407D01*
X186772177Y-79799231D01*
X186730270Y-79630144D01*
X186718377Y-79393200D01*
X186772203Y-79123193D01*
X186776942Y-79107287D01*
X186870680Y-78921327D01*
X187015395Y-78744090D01*
X187176325Y-78611443D01*
X187318712Y-78559257D01*
X187341382Y-78561798D01*
X187404377Y-78627490D01*
X187406105Y-78752256D01*
X187352582Y-78895980D01*
X187249824Y-79018547D01*
X187158857Y-79108204D01*
X187103980Y-79240622D01*
X187089874Y-79448466D01*
X187090313Y-79479862D01*
X187146746Y-79756954D01*
X187299661Y-79950646D01*
X187551707Y-80064470D01*
X187725631Y-80107631D01*
X187739053Y-79518955D01*
X188049572Y-79518955D01*
X188050461Y-79647475D01*
X188057244Y-79876942D01*
X188069252Y-80035558D01*
X188084739Y-80094774D01*
X188167035Y-80072570D01*
X188318650Y-79990076D01*
X188467443Y-79880054D01*
X188559514Y-79778418D01*
X188617696Y-79580658D01*
X188598939Y-79353531D01*
X188509365Y-79148551D01*
X188364642Y-79000244D01*
X188180440Y-78943136D01*
X188126646Y-78948982D01*
X188084604Y-78985007D01*
X188061443Y-79075736D01*
X188051615Y-79245581D01*
X188049572Y-79518955D01*
X187739053Y-79518955D01*
X187743647Y-79317449D01*
X187761662Y-78527267D01*
X188028219Y-78538849D01*
X188164129Y-78551553D01*
X188493328Y-78655194D01*
X188738654Y-78852395D01*
X188891947Y-79134662D01*
X188945050Y-79493498D01*
X188912123Y-79771547D01*
X188776430Y-80071769D01*
X188544775Y-80297055D01*
X188226955Y-80438649D01*
X188084739Y-80456379D01*
X187832766Y-80487793D01*
G37*
G36*
X193270465Y-69764886D02*
G01*
X193284984Y-69802219D01*
X193290949Y-69846258D01*
X193285099Y-69950797D01*
X193231325Y-70037685D01*
X193111189Y-70121240D01*
X192906255Y-70215778D01*
X192598086Y-70335617D01*
X192383391Y-70418656D01*
X192160324Y-70511513D01*
X192008439Y-70582831D01*
X191952343Y-70621709D01*
X191998420Y-70656847D01*
X192141244Y-70730888D01*
X192357687Y-70830954D01*
X192624131Y-70945655D01*
X192846710Y-71039046D01*
X193062474Y-71134914D01*
X193195009Y-71207749D01*
X193264583Y-71272346D01*
X193291463Y-71343497D01*
X193295919Y-71435997D01*
X193295698Y-71521903D01*
X193283118Y-71587096D01*
X193237172Y-71608278D01*
X193136758Y-71583947D01*
X192960772Y-71512600D01*
X192688111Y-71392736D01*
X192673402Y-71386254D01*
X192445879Y-71286530D01*
X192163321Y-71163344D01*
X191883369Y-71041832D01*
X191398526Y-70831966D01*
X190965324Y-71016770D01*
X190939494Y-71027747D01*
X190724304Y-71115740D01*
X190557906Y-71177971D01*
X190474474Y-71201575D01*
X190434443Y-71150460D01*
X190416826Y-71020386D01*
X190416964Y-71005242D01*
X190424045Y-70948910D01*
X190452035Y-70896900D01*
X190514886Y-70841722D01*
X190626551Y-70775887D01*
X190800980Y-70691905D01*
X191052127Y-70582285D01*
X191393942Y-70439539D01*
X191840378Y-70256176D01*
X192204255Y-70107600D01*
X192568164Y-69961128D01*
X192839017Y-69856234D01*
X193030744Y-69788540D01*
X193157274Y-69753669D01*
X193232538Y-69747243D01*
X193270465Y-69764886D01*
G37*
G36*
X195597724Y-101320088D02*
G01*
X195596255Y-100920214D01*
X195464992Y-101144144D01*
X195361672Y-101293755D01*
X195101946Y-101528340D01*
X194798906Y-101664487D01*
X194475631Y-101704441D01*
X194155197Y-101650449D01*
X193860683Y-101504756D01*
X193615166Y-101269608D01*
X193441723Y-100947250D01*
X193329865Y-100632305D01*
X191248564Y-100632305D01*
X191248564Y-101144144D01*
X191248086Y-101216523D01*
X191239707Y-101440484D01*
X191223047Y-101597062D01*
X191200922Y-101655983D01*
X191199901Y-101655712D01*
X191139911Y-101605179D01*
X190999260Y-101473368D01*
X190786871Y-101269012D01*
X190511671Y-101000842D01*
X190182583Y-100677591D01*
X189808533Y-100307991D01*
X189398446Y-99900774D01*
X188961247Y-99464673D01*
X186801215Y-97305353D01*
X191248564Y-97305353D01*
X191248564Y-100041432D01*
X191490808Y-99799188D01*
X191733385Y-99611043D01*
X192055889Y-99483029D01*
X192389285Y-99457807D01*
X192710506Y-99529607D01*
X192996489Y-99692659D01*
X193224168Y-99941193D01*
X193370478Y-100269438D01*
X193450419Y-100568325D01*
X197741019Y-100568325D01*
X196718091Y-99543535D01*
X195695164Y-98518745D01*
X195676477Y-98999706D01*
X195657791Y-99480668D01*
X194447557Y-99480668D01*
X194447557Y-97305353D01*
X191248564Y-97305353D01*
X186801215Y-97305353D01*
X186769214Y-97273363D01*
X191184584Y-97239715D01*
X191184584Y-96217695D01*
X186769975Y-96217695D01*
X186769975Y-96153716D01*
X191248564Y-96153716D01*
X195599194Y-96153716D01*
X195599194Y-95066058D01*
X191248564Y-95066058D01*
X191248564Y-96153716D01*
X186769975Y-96153716D01*
X186769975Y-95002078D01*
X191184584Y-95002078D01*
X191184584Y-92282935D01*
X191184955Y-91947666D01*
X191187272Y-91394044D01*
X191191510Y-90889546D01*
X191197433Y-90447311D01*
X191204806Y-90080480D01*
X191213394Y-89802190D01*
X191222962Y-89625581D01*
X191233275Y-89563791D01*
X191263086Y-89584237D01*
X191373876Y-89682494D01*
X191552783Y-89850801D01*
X191786807Y-90076701D01*
X192062949Y-90347736D01*
X192368212Y-90651449D01*
X193454457Y-91739106D01*
X192368212Y-92826764D01*
X191281966Y-93914421D01*
X195599194Y-93914421D01*
X195599194Y-92796185D01*
X196676332Y-93871926D01*
X197753471Y-94947666D01*
X197864556Y-94656792D01*
X197977099Y-94435245D01*
X198212755Y-94174688D01*
X198507830Y-94005666D01*
X198838296Y-93935942D01*
X199180124Y-93973277D01*
X199509287Y-94125436D01*
X199613316Y-94204533D01*
X199818509Y-94422110D01*
X199960655Y-94661457D01*
X200013803Y-94883580D01*
X200013803Y-95066058D01*
X197871890Y-95066058D01*
X198942847Y-96138407D01*
X199138973Y-96335589D01*
X199420503Y-96621680D01*
X199661279Y-96870070D01*
X199848774Y-97067662D01*
X199970458Y-97201356D01*
X200013803Y-97258054D01*
X199976516Y-97266771D01*
X199825922Y-97277229D01*
X199573445Y-97286502D01*
X199233772Y-97294270D01*
X198821596Y-97300214D01*
X198351605Y-97304015D01*
X197838489Y-97305353D01*
X195663174Y-97305353D01*
X195663174Y-98329031D01*
X197838489Y-98329031D01*
X197838489Y-100568325D01*
X200013803Y-100568325D01*
X200013803Y-101719962D01*
X195599194Y-101719962D01*
X195597724Y-101320088D01*
G37*
G36*
X197724513Y-84390879D02*
G01*
X197768076Y-84445658D01*
X197749756Y-84585160D01*
X197694072Y-84756677D01*
X197611242Y-84896928D01*
X197573516Y-84940883D01*
X197555864Y-85002871D01*
X197648700Y-85040323D01*
X197671192Y-85046962D01*
X197754912Y-85114024D01*
X197763223Y-85256388D01*
X197742519Y-85437091D01*
X196670856Y-85454633D01*
X195599194Y-85472175D01*
X195599194Y-85021222D01*
X196362308Y-85021222D01*
X196645581Y-85020520D01*
X196880025Y-85015193D01*
X197033265Y-85000490D01*
X197130527Y-84971662D01*
X197197039Y-84923963D01*
X197258026Y-84852644D01*
X197351606Y-84689307D01*
X197390630Y-84532745D01*
X197395978Y-84465118D01*
X197449182Y-84397588D01*
X197590567Y-84381423D01*
X197724513Y-84390879D01*
G37*
G36*
X187746357Y-75665277D02*
G01*
X187508724Y-75638537D01*
X187233679Y-75546569D01*
X187023540Y-75374044D01*
X186845834Y-75100600D01*
X186837168Y-75083559D01*
X186742401Y-74779491D01*
X186739869Y-74466612D01*
X186821297Y-74175493D01*
X186978416Y-73936703D01*
X187202952Y-73780813D01*
X187409773Y-73696422D01*
X187409773Y-73920535D01*
X187409731Y-73930503D01*
X187386072Y-74092781D01*
X187316055Y-74144648D01*
X187272892Y-74151856D01*
X187171201Y-74247872D01*
X187111522Y-74438111D01*
X187102452Y-74700211D01*
X187103586Y-74715782D01*
X187168201Y-74969829D01*
X187324036Y-75146665D01*
X187585718Y-75263334D01*
X187597448Y-75266703D01*
X187653141Y-75277214D01*
X187690478Y-75258089D01*
X187713130Y-75189663D01*
X187724767Y-75052273D01*
X187729058Y-74826252D01*
X187729306Y-74691359D01*
X188049572Y-74691359D01*
X188050663Y-74905804D01*
X188057910Y-75104580D01*
X188075845Y-75214039D01*
X188108908Y-75256493D01*
X188161536Y-75254255D01*
X188190412Y-75245631D01*
X188413355Y-75111188D01*
X188567703Y-74895978D01*
X188625390Y-74637331D01*
X188621786Y-74589303D01*
X188543570Y-74390010D01*
X188393290Y-74220311D01*
X188210961Y-74129264D01*
X188049572Y-74098412D01*
X188049572Y-74691359D01*
X187729306Y-74691359D01*
X187729673Y-74491936D01*
X187729673Y-73678965D01*
X188057664Y-73717811D01*
X188133162Y-73728593D01*
X188479393Y-73838918D01*
X188734000Y-74034618D01*
X188891159Y-74309528D01*
X188945050Y-74657485D01*
X188945034Y-74665367D01*
X188888719Y-75022548D01*
X188730478Y-75309719D01*
X188480526Y-75518290D01*
X188149080Y-75639673D01*
X188108908Y-75642227D01*
X187746357Y-75665277D01*
G37*
G36*
X196670856Y-73519297D02*
G01*
X197742519Y-73536839D01*
X197742519Y-73920718D01*
X196670856Y-73938260D01*
X195599194Y-73955802D01*
X195599194Y-73501755D01*
X196670856Y-73519297D01*
G37*
G36*
X193322981Y-76268315D02*
G01*
X193328783Y-76417256D01*
X193246742Y-76639681D01*
X193184313Y-76776938D01*
X193164937Y-76869872D01*
X193207977Y-76895781D01*
X193269531Y-76940386D01*
X193295919Y-77087721D01*
X193295919Y-77279660D01*
X191112105Y-77279660D01*
X191132350Y-77103716D01*
X191152594Y-76927771D01*
X191934341Y-76895781D01*
X191979829Y-76893893D01*
X192330102Y-76875039D01*
X192576548Y-76846671D01*
X192740920Y-76799281D01*
X192844970Y-76723364D01*
X192910452Y-76609414D01*
X192959116Y-76447922D01*
X192962716Y-76434051D01*
X193037969Y-76267962D01*
X193156032Y-76203510D01*
X193231346Y-76202517D01*
X193322981Y-76268315D01*
G37*
%TD*%
M02*
