%TF.GenerationSoftware,KiCad,Pcbnew,(6.0.4-0)*%
%TF.CreationDate,2022-09-22T13:53:57+02:00*%
%TF.ProjectId,ESP32_S2_MINI_1,45535033-325f-4533-925f-4d494e495f31,rev?*%
%TF.SameCoordinates,Original*%
%TF.FileFunction,Copper,L3,Inr*%
%TF.FilePolarity,Positive*%
%FSLAX46Y46*%
G04 Gerber Fmt 4.6, Leading zero omitted, Abs format (unit mm)*
G04 Created by KiCad (PCBNEW (6.0.4-0)) date 2022-09-22 13:53:57*
%MOMM*%
%LPD*%
G01*
G04 APERTURE LIST*
G04 Aperture macros list*
%AMRoundRect*
0 Rectangle with rounded corners*
0 $1 Rounding radius*
0 $2 $3 $4 $5 $6 $7 $8 $9 X,Y pos of 4 corners*
0 Add a 4 corners polygon primitive as box body*
4,1,4,$2,$3,$4,$5,$6,$7,$8,$9,$2,$3,0*
0 Add four circle primitives for the rounded corners*
1,1,$1+$1,$2,$3*
1,1,$1+$1,$4,$5*
1,1,$1+$1,$6,$7*
1,1,$1+$1,$8,$9*
0 Add four rect primitives between the rounded corners*
20,1,$1+$1,$2,$3,$4,$5,0*
20,1,$1+$1,$4,$5,$6,$7,0*
20,1,$1+$1,$6,$7,$8,$9,0*
20,1,$1+$1,$8,$9,$2,$3,0*%
G04 Aperture macros list end*
%TA.AperFunction,ComponentPad*%
%ADD10RoundRect,0.500000X0.000000X0.600000X0.000000X0.600000X0.000000X-0.600000X0.000000X-0.600000X0*%
%TD*%
%TA.AperFunction,ComponentPad*%
%ADD11RoundRect,0.500000X0.000000X0.300000X0.000000X0.300000X0.000000X-0.300000X0.000000X-0.300000X0*%
%TD*%
%TA.AperFunction,ComponentPad*%
%ADD12R,1.700000X1.700000*%
%TD*%
%TA.AperFunction,ComponentPad*%
%ADD13O,1.700000X1.700000*%
%TD*%
%TA.AperFunction,ComponentPad*%
%ADD14C,3.500000*%
%TD*%
%TA.AperFunction,ViaPad*%
%ADD15C,0.800000*%
%TD*%
%TA.AperFunction,Conductor*%
%ADD16C,0.200000*%
%TD*%
G04 APERTURE END LIST*
D10*
%TO.N,GND*%
%TO.C,J1*%
X187200032Y-62825268D03*
D11*
X195840032Y-58645268D03*
D10*
X195840032Y-62825268D03*
D11*
X187200032Y-58645268D03*
%TD*%
D12*
%TO.N,DEBUG_TX*%
%TO.C,J3*%
X182880000Y-101600000D03*
D13*
%TO.N,TX*%
X182880000Y-99060000D03*
%TO.N,RX*%
X182880000Y-96520000D03*
%TO.N,MISO*%
X182880000Y-93980000D03*
%TO.N,MOSI*%
X182880000Y-91440000D03*
%TO.N,SCK*%
X182880000Y-88900000D03*
%TO.N,A5*%
X182880000Y-86360000D03*
%TO.N,A4*%
X182880000Y-83820000D03*
%TO.N,A3*%
X182880000Y-81280000D03*
%TO.N,A2*%
X182880000Y-78740000D03*
%TO.N,A1*%
X182880000Y-76200000D03*
%TO.N,A0*%
X182880000Y-73660000D03*
%TO.N,GND*%
X182880000Y-71120000D03*
%TO.N,+3V3*%
X182880000Y-68580000D03*
X182880000Y-66040000D03*
%TO.N,RST*%
X182880000Y-63500000D03*
%TD*%
D12*
%TO.N,I2C_SDA*%
%TO.C,J2*%
X203200000Y-101600000D03*
D13*
%TO.N,I2C_SCL*%
X203200000Y-99060000D03*
%TO.N,D5*%
X203200000Y-96520000D03*
%TO.N,D6*%
X203200000Y-93980000D03*
%TO.N,D9*%
X203200000Y-91440000D03*
%TO.N,D10*%
X203200000Y-88900000D03*
%TO.N,D11*%
X203200000Y-86360000D03*
%TO.N,D12*%
X203200000Y-83820000D03*
%TO.N,D13*%
X203200000Y-81280000D03*
%TO.N,USB*%
X203200000Y-78740000D03*
%TO.N,EN*%
X203200000Y-76200000D03*
%TO.N,VBAT*%
X203200000Y-73660000D03*
%TD*%
D14*
%TO.N,N/C*%
%TO.C,H1*%
X183900000Y-59400000D03*
%TD*%
D15*
%TO.N,/BOOT*%
X198850000Y-98350000D03*
X198440000Y-74090000D03*
X198680000Y-85220000D03*
%TO.N,GND*%
X198650000Y-90650000D03*
X195950000Y-64750000D03*
%TO.N,/ENABLE*%
X187050000Y-101150000D03*
X187200000Y-73400000D03*
%TO.N,USB*%
X193700000Y-72650000D03*
X189550500Y-65450005D03*
X188560000Y-80840000D03*
X190050000Y-68350000D03*
X193351306Y-65498905D03*
%TO.N,+3V3*%
X184300500Y-76030893D03*
X199900000Y-59200000D03*
X191300000Y-73950000D03*
X198900000Y-99700000D03*
X198400000Y-75250000D03*
X196900000Y-59850000D03*
X193600000Y-79000000D03*
%TO.N,+3.3VA*%
X184800000Y-87300000D03*
X185674000Y-81915000D03*
X200000000Y-83850000D03*
X194498725Y-84600648D03*
X190400000Y-87100000D03*
%TO.N,D13*%
X196750000Y-86600000D03*
%TO.N,/USB_DN*%
X193107053Y-89968050D03*
X191996278Y-67439831D03*
%TO.N,/USB_DP*%
X190946278Y-67439831D03*
X192057053Y-89968050D03*
%TO.N,D12*%
X198850000Y-89550000D03*
%TO.N,EN*%
X188950000Y-69100000D03*
%TO.N,VBAT*%
X203200000Y-67056000D03*
X197000000Y-73500000D03*
X194200000Y-67750000D03*
%TO.N,/APA_DATA*%
X189950000Y-89550000D03*
X186588221Y-81658571D03*
%TO.N,/APA_CLOCK*%
X191000000Y-89500000D03*
X187550000Y-81350000D03*
%TO.N,SCK*%
X187100000Y-90550000D03*
%TO.N,A5*%
X198995734Y-92645734D03*
%TO.N,A4*%
X193850000Y-91600000D03*
%TO.N,A3*%
X195300000Y-87450000D03*
%TO.N,A2*%
X195700000Y-89600000D03*
%TO.N,A1*%
X194700000Y-89600000D03*
%TO.N,I2C_PWR*%
X188510000Y-86930000D03*
X198910000Y-93650000D03*
%TO.N,A0*%
X193600000Y-87600000D03*
%TO.N,/VB*%
X188214000Y-77089000D03*
X195400000Y-73000000D03*
X199190000Y-71160000D03*
X197800000Y-62450000D03*
X190119000Y-75692000D03*
X195500000Y-75850000D03*
%TO.N,I2C_SCL*%
X186258040Y-83177720D03*
X191600000Y-79750000D03*
X197800000Y-91350000D03*
X196600500Y-82550000D03*
%TO.N,I2C_SDA*%
X187325000Y-83185000D03*
X196800000Y-91950000D03*
X191650000Y-82300000D03*
X195250000Y-82300000D03*
X197380000Y-78690000D03*
%TO.N,MAG*%
X199950000Y-62100000D03*
X198650000Y-69400000D03*
X201050000Y-98600000D03*
%TO.N,Net-(R14-Pad2)*%
X195300000Y-67500000D03*
X197150000Y-70500000D03*
%TD*%
D16*
%TO.N,/BOOT*%
X200910489Y-87409511D02*
X200869511Y-87409511D01*
X200910489Y-76989511D02*
X200910489Y-75720489D01*
X200910489Y-76989511D02*
X200910489Y-76760489D01*
X200910489Y-87409511D02*
X200910489Y-76989511D01*
X200910489Y-75720489D02*
X199280000Y-74090000D01*
X200869511Y-87409511D02*
X198680000Y-85220000D01*
X200910489Y-96975228D02*
X200910489Y-87409511D01*
X199535717Y-98350000D02*
X200910489Y-96975228D01*
X199280000Y-74090000D02*
X198440000Y-74090000D01*
X198850000Y-98350000D02*
X199535717Y-98350000D01*
%TO.N,/ENABLE*%
X187200000Y-75650000D02*
X187200000Y-73400000D01*
X184000000Y-91500000D02*
X184000000Y-83094716D01*
X184650000Y-82444716D02*
X184650000Y-78200000D01*
X184650000Y-98750000D02*
X184650000Y-92150000D01*
X184650000Y-92150000D02*
X184000000Y-91500000D01*
X184000000Y-83094716D02*
X184650000Y-82444716D01*
X187050000Y-101150000D02*
X184650000Y-98750000D01*
X184650000Y-78200000D02*
X187200000Y-75650000D01*
%TO.N,+3V3*%
X198400000Y-77820000D02*
X198390000Y-77830000D01*
X198400000Y-75250000D02*
X198400000Y-77820000D01*
%TO.N,+3.3VA*%
X184800000Y-87300000D02*
X184500000Y-87000000D01*
X184500000Y-87000000D02*
X184500000Y-83089000D01*
X184500000Y-83089000D02*
X185674000Y-81915000D01*
%TO.N,/USB_DN*%
X191696279Y-67739830D02*
X191696279Y-69128079D01*
X192807054Y-70238854D02*
X192807054Y-89668051D01*
X191996278Y-67439831D02*
X191696279Y-67739830D01*
X191696279Y-69128079D02*
X192807054Y-70238854D01*
X192807054Y-89668051D02*
X193107053Y-89968050D01*
%TO.N,/USB_DP*%
X190946278Y-67439831D02*
X191246277Y-67739830D01*
X192357052Y-70425252D02*
X192357052Y-89668051D01*
X192357052Y-89668051D02*
X192057053Y-89968050D01*
X191246277Y-69314477D02*
X192357052Y-70425252D01*
X191246277Y-67739830D02*
X191246277Y-69314477D01*
%TO.N,/APA_DATA*%
X189400988Y-89000988D02*
X189400988Y-84342454D01*
X189400988Y-84342454D02*
X186717105Y-81658571D01*
X186717105Y-81658571D02*
X186588221Y-81658571D01*
X189950000Y-89550000D02*
X189400988Y-89000988D01*
%TO.N,/APA_CLOCK*%
X189750499Y-83550499D02*
X189750499Y-88044783D01*
X191000000Y-89294284D02*
X191000000Y-89500000D01*
X187550000Y-81350000D02*
X189750499Y-83550499D01*
X189750499Y-88044783D02*
X191000000Y-89294284D01*
%TO.N,I2C_PWR*%
X198910000Y-93650000D02*
X190630000Y-93650000D01*
X190630000Y-93650000D02*
X188510000Y-91530000D01*
X188510000Y-91530000D02*
X188510000Y-86930000D01*
%TO.N,I2C_SDA*%
X197380000Y-78690000D02*
X197380000Y-80170000D01*
X197380000Y-80170000D02*
X195250000Y-82300000D01*
%TO.N,MAG*%
X201050000Y-98600000D02*
X201260000Y-98390000D01*
X201260000Y-72010000D02*
X198650000Y-69400000D01*
X201260000Y-98390000D02*
X201260000Y-72010000D01*
%TD*%
%TA.AperFunction,Conductor*%
%TO.N,+3V3*%
G36*
X193347676Y-73203491D02*
G01*
X193457293Y-73263008D01*
X193456012Y-73265368D01*
X193501974Y-73301249D01*
X193525598Y-73374176D01*
X193528581Y-74090000D01*
X193533414Y-75250000D01*
X193535919Y-75851081D01*
X193539778Y-76777288D01*
X193539988Y-76827769D01*
X193545922Y-76881875D01*
X193546625Y-76885103D01*
X193555685Y-76926730D01*
X193557101Y-76933238D01*
X193564122Y-76959026D01*
X193567962Y-76965833D01*
X193567963Y-76965834D01*
X193574966Y-76978245D01*
X193613877Y-77047210D01*
X193660157Y-77101049D01*
X193662171Y-77103008D01*
X193662175Y-77103012D01*
X193667794Y-77108477D01*
X193693317Y-77133300D01*
X193701283Y-77137507D01*
X193701284Y-77137508D01*
X193717813Y-77146238D01*
X193782849Y-77180587D01*
X193850890Y-77200859D01*
X193855334Y-77201516D01*
X193855339Y-77201517D01*
X193919506Y-77211002D01*
X193919507Y-77211002D01*
X193923958Y-77211660D01*
X193928460Y-77211678D01*
X193928462Y-77211678D01*
X194926359Y-77215631D01*
X198021975Y-77227896D01*
X198077662Y-77222076D01*
X198130501Y-77210691D01*
X198140859Y-77207860D01*
X198150155Y-77205320D01*
X198150156Y-77205319D01*
X198157791Y-77203233D01*
X198164670Y-77199316D01*
X198164672Y-77199315D01*
X198240399Y-77156193D01*
X198245778Y-77153130D01*
X198275913Y-77127018D01*
X198297311Y-77108477D01*
X198297316Y-77108472D01*
X198299434Y-77106637D01*
X198304826Y-77101049D01*
X198309171Y-77096547D01*
X198370868Y-77061418D01*
X198441762Y-77065221D01*
X198495387Y-77101905D01*
X198511172Y-77120268D01*
X198544331Y-77152519D01*
X198633863Y-77199805D01*
X198639797Y-77201573D01*
X198697589Y-77218792D01*
X198697593Y-77218793D01*
X198701903Y-77220077D01*
X198738438Y-77225478D01*
X198770519Y-77230221D01*
X198770523Y-77230221D01*
X198774972Y-77230879D01*
X198779469Y-77230897D01*
X198779471Y-77230897D01*
X200129100Y-77236243D01*
X200430488Y-77237437D01*
X200498529Y-77257709D01*
X200544809Y-77311548D01*
X200555989Y-77363436D01*
X200555989Y-83194480D01*
X200535987Y-83262601D01*
X200482331Y-83309094D01*
X200412057Y-83319198D01*
X200371030Y-83305834D01*
X200346249Y-83292713D01*
X200236274Y-83234484D01*
X200082633Y-83195892D01*
X200075034Y-83195852D01*
X200075033Y-83195852D01*
X200009181Y-83195507D01*
X199924221Y-83195062D01*
X199916841Y-83196834D01*
X199916839Y-83196834D01*
X199777563Y-83230271D01*
X199777560Y-83230272D01*
X199770184Y-83232043D01*
X199629414Y-83304700D01*
X199510039Y-83408838D01*
X199418950Y-83538444D01*
X199416190Y-83545524D01*
X199372175Y-83658417D01*
X199361406Y-83686037D01*
X199360414Y-83693570D01*
X199360414Y-83693571D01*
X199342004Y-83833415D01*
X199340729Y-83843096D01*
X199358113Y-84000553D01*
X199360723Y-84007684D01*
X199360723Y-84007686D01*
X199379991Y-84060337D01*
X199412553Y-84149319D01*
X199416789Y-84155622D01*
X199416789Y-84155623D01*
X199436311Y-84184674D01*
X199500908Y-84280805D01*
X199506527Y-84285918D01*
X199506528Y-84285919D01*
X199612460Y-84382309D01*
X199618076Y-84387419D01*
X199757293Y-84463008D01*
X199910522Y-84503207D01*
X199994477Y-84504526D01*
X200061319Y-84505576D01*
X200061322Y-84505576D01*
X200068916Y-84505695D01*
X200223332Y-84470329D01*
X200294093Y-84434740D01*
X200358070Y-84402564D01*
X200358073Y-84402562D01*
X200362092Y-84400541D01*
X200362094Y-84400540D01*
X200364855Y-84399151D01*
X200365086Y-84399611D01*
X200428067Y-84380070D01*
X200496485Y-84399030D01*
X200543791Y-84451970D01*
X200555989Y-84506055D01*
X200555989Y-86290460D01*
X200535987Y-86358581D01*
X200482331Y-86405074D01*
X200412057Y-86415178D01*
X200347477Y-86385684D01*
X200340894Y-86379555D01*
X199365738Y-85404399D01*
X199331712Y-85342087D01*
X199330090Y-85297551D01*
X199330248Y-85296446D01*
X199339162Y-85233807D01*
X199339307Y-85220000D01*
X199320276Y-85062733D01*
X199264280Y-84914546D01*
X199204098Y-84826980D01*
X199178855Y-84790251D01*
X199178854Y-84790249D01*
X199174553Y-84783992D01*
X199159526Y-84770603D01*
X199114462Y-84730453D01*
X199056275Y-84678611D01*
X199048889Y-84674700D01*
X199010565Y-84654409D01*
X198916274Y-84604484D01*
X198762633Y-84565892D01*
X198755034Y-84565852D01*
X198755033Y-84565852D01*
X198689181Y-84565507D01*
X198604221Y-84565062D01*
X198596841Y-84566834D01*
X198596839Y-84566834D01*
X198457563Y-84600271D01*
X198457560Y-84600272D01*
X198450184Y-84602043D01*
X198309414Y-84674700D01*
X198190039Y-84778838D01*
X198098950Y-84908444D01*
X198091438Y-84927712D01*
X198044962Y-85046917D01*
X198041406Y-85056037D01*
X198040414Y-85063570D01*
X198040414Y-85063571D01*
X198030130Y-85141690D01*
X198020729Y-85213096D01*
X198028953Y-85287585D01*
X198036935Y-85359881D01*
X198038113Y-85370553D01*
X198040723Y-85377684D01*
X198040723Y-85377686D01*
X198087842Y-85506445D01*
X198092553Y-85519319D01*
X198096789Y-85525622D01*
X198096789Y-85525623D01*
X198160920Y-85621059D01*
X198180908Y-85650805D01*
X198298076Y-85757419D01*
X198437293Y-85833008D01*
X198590522Y-85873207D01*
X198674477Y-85874526D01*
X198741319Y-85875576D01*
X198741322Y-85875576D01*
X198748916Y-85875695D01*
X198756319Y-85873999D01*
X198763878Y-85873205D01*
X198764190Y-85876170D01*
X198821319Y-85879607D01*
X198867719Y-85909058D01*
X200519084Y-87560422D01*
X200553109Y-87622734D01*
X200555989Y-87649517D01*
X200555989Y-96776199D01*
X200535987Y-96844320D01*
X200519084Y-96865294D01*
X199999134Y-97385245D01*
X199495204Y-97889175D01*
X199432892Y-97923200D01*
X199362077Y-97918136D01*
X199322292Y-97894158D01*
X199226275Y-97808611D01*
X199218889Y-97804700D01*
X199092988Y-97738039D01*
X199092989Y-97738039D01*
X199086274Y-97734484D01*
X198932633Y-97695892D01*
X198925034Y-97695852D01*
X198925033Y-97695852D01*
X198859181Y-97695507D01*
X198774221Y-97695062D01*
X198766841Y-97696834D01*
X198766839Y-97696834D01*
X198627563Y-97730271D01*
X198627560Y-97730272D01*
X198620184Y-97732043D01*
X198479414Y-97804700D01*
X198360039Y-97908838D01*
X198268950Y-98038444D01*
X198211406Y-98186037D01*
X198210414Y-98193570D01*
X198210414Y-98193571D01*
X198192979Y-98326009D01*
X198190729Y-98343096D01*
X198191563Y-98350646D01*
X198203180Y-98455869D01*
X198208113Y-98500553D01*
X198210723Y-98507684D01*
X198210723Y-98507686D01*
X198259521Y-98641033D01*
X198262553Y-98649319D01*
X198266789Y-98655622D01*
X198266789Y-98655623D01*
X198335373Y-98757686D01*
X198350908Y-98780805D01*
X198356527Y-98785918D01*
X198356528Y-98785919D01*
X198441913Y-98863613D01*
X198468076Y-98887419D01*
X198607293Y-98963008D01*
X198760522Y-99003207D01*
X198844477Y-99004526D01*
X198911319Y-99005576D01*
X198911322Y-99005576D01*
X198918916Y-99005695D01*
X199073332Y-98970329D01*
X199143742Y-98934917D01*
X199208072Y-98902563D01*
X199208075Y-98902561D01*
X199214855Y-98899151D01*
X199220626Y-98894222D01*
X199220629Y-98894220D01*
X199329536Y-98801204D01*
X199329536Y-98801203D01*
X199335314Y-98796269D01*
X199363552Y-98756971D01*
X199419543Y-98713326D01*
X199465872Y-98704500D01*
X199484460Y-98704500D01*
X199504254Y-98706606D01*
X199508607Y-98706811D01*
X199518787Y-98709003D01*
X199549457Y-98705373D01*
X199554800Y-98705058D01*
X199554789Y-98704928D01*
X199559969Y-98704500D01*
X199565168Y-98704500D01*
X199570292Y-98703647D01*
X199570305Y-98703646D01*
X199582758Y-98701573D01*
X199588633Y-98700736D01*
X199625646Y-98696355D01*
X199635987Y-98695131D01*
X199643695Y-98691430D01*
X199652134Y-98690025D01*
X199694118Y-98667371D01*
X199699381Y-98664690D01*
X199718263Y-98655623D01*
X199742375Y-98644045D01*
X199746367Y-98640689D01*
X199748314Y-98638742D01*
X199749939Y-98637252D01*
X199750371Y-98637019D01*
X199750404Y-98637055D01*
X199750562Y-98636916D01*
X199755997Y-98633983D01*
X199770873Y-98617891D01*
X199790074Y-98597119D01*
X199793477Y-98593579D01*
X200316052Y-98071003D01*
X200378362Y-98036980D01*
X200449177Y-98042044D01*
X200506013Y-98084591D01*
X200530824Y-98151111D01*
X200515733Y-98220485D01*
X200508232Y-98232550D01*
X200473321Y-98282223D01*
X200473317Y-98282230D01*
X200468950Y-98288444D01*
X200411406Y-98436037D01*
X200410414Y-98443570D01*
X200410414Y-98443571D01*
X200392749Y-98577755D01*
X200390729Y-98593096D01*
X200396149Y-98642185D01*
X200406183Y-98733070D01*
X200408113Y-98750553D01*
X200410723Y-98757684D01*
X200410723Y-98757686D01*
X200453867Y-98875582D01*
X200462553Y-98899319D01*
X200466789Y-98905622D01*
X200466789Y-98905623D01*
X200533136Y-99004357D01*
X200550908Y-99030805D01*
X200556527Y-99035918D01*
X200556528Y-99035919D01*
X200662460Y-99132309D01*
X200668076Y-99137419D01*
X200807293Y-99213008D01*
X200960522Y-99253207D01*
X201044477Y-99254526D01*
X201111319Y-99255576D01*
X201111322Y-99255576D01*
X201118916Y-99255695D01*
X201273332Y-99220329D01*
X201343742Y-99184917D01*
X201408072Y-99152563D01*
X201408075Y-99152561D01*
X201414855Y-99149151D01*
X201420626Y-99144222D01*
X201420629Y-99144220D01*
X201529536Y-99051204D01*
X201529536Y-99051203D01*
X201535314Y-99046269D01*
X201627755Y-98917624D01*
X201686842Y-98770641D01*
X201696255Y-98704500D01*
X201708581Y-98617891D01*
X201708581Y-98617888D01*
X201709162Y-98613807D01*
X201709307Y-98600000D01*
X201690276Y-98442733D01*
X201634280Y-98294546D01*
X201629978Y-98288286D01*
X201628838Y-98286106D01*
X201614500Y-98227731D01*
X201614500Y-77368628D01*
X201634502Y-77300507D01*
X201688158Y-77254014D01*
X201740998Y-77242629D01*
X202283536Y-77244779D01*
X202287678Y-77244242D01*
X202287681Y-77244242D01*
X202340183Y-77237437D01*
X202351710Y-77235943D01*
X202355744Y-77234862D01*
X202355746Y-77234862D01*
X202413209Y-77219469D01*
X202413211Y-77219468D01*
X202415624Y-77218822D01*
X202417983Y-77217985D01*
X202446167Y-77207984D01*
X202446170Y-77207982D01*
X202454366Y-77205074D01*
X202461463Y-77200043D01*
X202461467Y-77200041D01*
X202510565Y-77165236D01*
X202577706Y-77142158D01*
X202646666Y-77159043D01*
X202653433Y-77163262D01*
X202665912Y-77171600D01*
X202665916Y-77171602D01*
X202670720Y-77174812D01*
X202676023Y-77177090D01*
X202676026Y-77177092D01*
X202849261Y-77251519D01*
X202857228Y-77254942D01*
X202909169Y-77266695D01*
X203049579Y-77298467D01*
X203049584Y-77298468D01*
X203055216Y-77299742D01*
X203060987Y-77299969D01*
X203060989Y-77299969D01*
X203120756Y-77302317D01*
X203258053Y-77307712D01*
X203358499Y-77293148D01*
X203453231Y-77279413D01*
X203453236Y-77279412D01*
X203458945Y-77278584D01*
X203464409Y-77276729D01*
X203464414Y-77276728D01*
X203645693Y-77215192D01*
X203645698Y-77215190D01*
X203651165Y-77213334D01*
X203665915Y-77205074D01*
X203742473Y-77162199D01*
X203811681Y-77146365D01*
X203876574Y-77169663D01*
X203880683Y-77173660D01*
X203970215Y-77220947D01*
X204038256Y-77241219D01*
X204042709Y-77241877D01*
X204042717Y-77241879D01*
X204107926Y-77251519D01*
X204172389Y-77281267D01*
X204210536Y-77341145D01*
X204215500Y-77376164D01*
X204215500Y-77886445D01*
X204195498Y-77954566D01*
X204141842Y-78001059D01*
X204071568Y-78011163D01*
X204003972Y-77978970D01*
X203875258Y-77859987D01*
X203870375Y-77856906D01*
X203870371Y-77856903D01*
X203708464Y-77754748D01*
X203703581Y-77751667D01*
X203515039Y-77676446D01*
X203509379Y-77675320D01*
X203509375Y-77675319D01*
X203321613Y-77637971D01*
X203321610Y-77637971D01*
X203315946Y-77636844D01*
X203310171Y-77636768D01*
X203310167Y-77636768D01*
X203208793Y-77635441D01*
X203112971Y-77634187D01*
X203107274Y-77635166D01*
X203107273Y-77635166D01*
X203070045Y-77641563D01*
X202912910Y-77668564D01*
X202722463Y-77738824D01*
X202548010Y-77842612D01*
X202543670Y-77846418D01*
X202543666Y-77846421D01*
X202415944Y-77958431D01*
X202395392Y-77976455D01*
X202269720Y-78135869D01*
X202267031Y-78140980D01*
X202267029Y-78140983D01*
X202254204Y-78165359D01*
X202175203Y-78315515D01*
X202115007Y-78509378D01*
X202091148Y-78710964D01*
X202104424Y-78913522D01*
X202105845Y-78919118D01*
X202105846Y-78919123D01*
X202150741Y-79095892D01*
X202154392Y-79110269D01*
X202156809Y-79115512D01*
X202194010Y-79196208D01*
X202239377Y-79294616D01*
X202242710Y-79299332D01*
X202346028Y-79445524D01*
X202356533Y-79460389D01*
X202360675Y-79464424D01*
X202373414Y-79476834D01*
X202501938Y-79602035D01*
X202670720Y-79714812D01*
X202676023Y-79717090D01*
X202676026Y-79717092D01*
X202764707Y-79755192D01*
X202857228Y-79794942D01*
X202930244Y-79811464D01*
X203049579Y-79838467D01*
X203049584Y-79838468D01*
X203055216Y-79839742D01*
X203060987Y-79839969D01*
X203060989Y-79839969D01*
X203120756Y-79842317D01*
X203258053Y-79847712D01*
X203358499Y-79833148D01*
X203453231Y-79819413D01*
X203453236Y-79819412D01*
X203458945Y-79818584D01*
X203464409Y-79816729D01*
X203464414Y-79816728D01*
X203645693Y-79755192D01*
X203645698Y-79755190D01*
X203651165Y-79753334D01*
X203669447Y-79743096D01*
X203725683Y-79711602D01*
X203828276Y-79654147D01*
X203890934Y-79602035D01*
X203979913Y-79528031D01*
X203984345Y-79524345D01*
X203988031Y-79519913D01*
X203988035Y-79519909D01*
X203992625Y-79514390D01*
X204051562Y-79474805D01*
X204122544Y-79473368D01*
X204183035Y-79510535D01*
X204213829Y-79574506D01*
X204215500Y-79594958D01*
X204215500Y-80426445D01*
X204195498Y-80494566D01*
X204141842Y-80541059D01*
X204071568Y-80551163D01*
X204003972Y-80518970D01*
X203887787Y-80411569D01*
X203879503Y-80403911D01*
X203875258Y-80399987D01*
X203870375Y-80396906D01*
X203870371Y-80396903D01*
X203708464Y-80294748D01*
X203703581Y-80291667D01*
X203515039Y-80216446D01*
X203509379Y-80215320D01*
X203509375Y-80215319D01*
X203321613Y-80177971D01*
X203321610Y-80177971D01*
X203315946Y-80176844D01*
X203310171Y-80176768D01*
X203310167Y-80176768D01*
X203208793Y-80175441D01*
X203112971Y-80174187D01*
X203107274Y-80175166D01*
X203107273Y-80175166D01*
X203045085Y-80185852D01*
X202912910Y-80208564D01*
X202722463Y-80278824D01*
X202548010Y-80382612D01*
X202543670Y-80386418D01*
X202543666Y-80386421D01*
X202412137Y-80501770D01*
X202395392Y-80516455D01*
X202269720Y-80675869D01*
X202267031Y-80680980D01*
X202267029Y-80680983D01*
X202219128Y-80772027D01*
X202175203Y-80855515D01*
X202166828Y-80882487D01*
X202118279Y-81038842D01*
X202115007Y-81049378D01*
X202091148Y-81250964D01*
X202104424Y-81453522D01*
X202105845Y-81459118D01*
X202105846Y-81459123D01*
X202142500Y-81603444D01*
X202154392Y-81650269D01*
X202156809Y-81655512D01*
X202202535Y-81754700D01*
X202239377Y-81834616D01*
X202356533Y-82000389D01*
X202360675Y-82004424D01*
X202373414Y-82016834D01*
X202501938Y-82142035D01*
X202506742Y-82145245D01*
X202574400Y-82190453D01*
X202670720Y-82254812D01*
X202676023Y-82257090D01*
X202676026Y-82257092D01*
X202851921Y-82332662D01*
X202857228Y-82334942D01*
X202898249Y-82344224D01*
X203049579Y-82378467D01*
X203049584Y-82378468D01*
X203055216Y-82379742D01*
X203060987Y-82379969D01*
X203060989Y-82379969D01*
X203120756Y-82382317D01*
X203258053Y-82387712D01*
X203358499Y-82373148D01*
X203453231Y-82359413D01*
X203453236Y-82359412D01*
X203458945Y-82358584D01*
X203464409Y-82356729D01*
X203464414Y-82356728D01*
X203645693Y-82295192D01*
X203645698Y-82295190D01*
X203651165Y-82293334D01*
X203690012Y-82271579D01*
X203725683Y-82251602D01*
X203828276Y-82194147D01*
X203870435Y-82159084D01*
X203979913Y-82068031D01*
X203984345Y-82064345D01*
X203988031Y-82059913D01*
X203988035Y-82059909D01*
X203992625Y-82054390D01*
X204051562Y-82014805D01*
X204122544Y-82013368D01*
X204183035Y-82050535D01*
X204213829Y-82114506D01*
X204215500Y-82134958D01*
X204215500Y-82966445D01*
X204195498Y-83034566D01*
X204141842Y-83081059D01*
X204071568Y-83091163D01*
X204003972Y-83058970D01*
X203875258Y-82939987D01*
X203870375Y-82936906D01*
X203870371Y-82936903D01*
X203708464Y-82834748D01*
X203703581Y-82831667D01*
X203515039Y-82756446D01*
X203509379Y-82755320D01*
X203509375Y-82755319D01*
X203321613Y-82717971D01*
X203321610Y-82717971D01*
X203315946Y-82716844D01*
X203310171Y-82716768D01*
X203310167Y-82716768D01*
X203208793Y-82715441D01*
X203112971Y-82714187D01*
X203107274Y-82715166D01*
X203107273Y-82715166D01*
X202926266Y-82746269D01*
X202912910Y-82748564D01*
X202722463Y-82818824D01*
X202548010Y-82922612D01*
X202543670Y-82926418D01*
X202543666Y-82926421D01*
X202415877Y-83038490D01*
X202395392Y-83056455D01*
X202269720Y-83215869D01*
X202267031Y-83220980D01*
X202267029Y-83220983D01*
X202229290Y-83292713D01*
X202175203Y-83395515D01*
X202115007Y-83589378D01*
X202091148Y-83790964D01*
X202104424Y-83993522D01*
X202105845Y-83999118D01*
X202105846Y-83999123D01*
X202142180Y-84142185D01*
X202154392Y-84190269D01*
X202156809Y-84195512D01*
X202236959Y-84369371D01*
X202239377Y-84374616D01*
X202244814Y-84382309D01*
X202330340Y-84503326D01*
X202356533Y-84540389D01*
X202360675Y-84544424D01*
X202373414Y-84556834D01*
X202501938Y-84682035D01*
X202670720Y-84794812D01*
X202676023Y-84797090D01*
X202676026Y-84797092D01*
X202764707Y-84835192D01*
X202857228Y-84874942D01*
X202930244Y-84891464D01*
X203049579Y-84918467D01*
X203049584Y-84918468D01*
X203055216Y-84919742D01*
X203060987Y-84919969D01*
X203060989Y-84919969D01*
X203120756Y-84922317D01*
X203258053Y-84927712D01*
X203358499Y-84913148D01*
X203453231Y-84899413D01*
X203453236Y-84899412D01*
X203458945Y-84898584D01*
X203464409Y-84896729D01*
X203464414Y-84896728D01*
X203645693Y-84835192D01*
X203645698Y-84835190D01*
X203651165Y-84833334D01*
X203828276Y-84734147D01*
X203890934Y-84682035D01*
X203979913Y-84608031D01*
X203984345Y-84604345D01*
X203988031Y-84599913D01*
X203988035Y-84599909D01*
X203992625Y-84594390D01*
X204051562Y-84554805D01*
X204122544Y-84553368D01*
X204183035Y-84590535D01*
X204213829Y-84654506D01*
X204215500Y-84674958D01*
X204215500Y-85506445D01*
X204195498Y-85574566D01*
X204141842Y-85621059D01*
X204071568Y-85631163D01*
X204003972Y-85598970D01*
X203875258Y-85479987D01*
X203870375Y-85476906D01*
X203870371Y-85476903D01*
X203724728Y-85385010D01*
X203703581Y-85371667D01*
X203515039Y-85296446D01*
X203509379Y-85295320D01*
X203509375Y-85295319D01*
X203321613Y-85257971D01*
X203321610Y-85257971D01*
X203315946Y-85256844D01*
X203310171Y-85256768D01*
X203310167Y-85256768D01*
X203208793Y-85255441D01*
X203112971Y-85254187D01*
X203107274Y-85255166D01*
X203107273Y-85255166D01*
X202918607Y-85287585D01*
X202912910Y-85288564D01*
X202722463Y-85358824D01*
X202548010Y-85462612D01*
X202543670Y-85466418D01*
X202543666Y-85466421D01*
X202412137Y-85581770D01*
X202395392Y-85596455D01*
X202269720Y-85755869D01*
X202267031Y-85760980D01*
X202267029Y-85760983D01*
X202231041Y-85829385D01*
X202175203Y-85935515D01*
X202115007Y-86129378D01*
X202091148Y-86330964D01*
X202104424Y-86533522D01*
X202105845Y-86539118D01*
X202105846Y-86539123D01*
X202139149Y-86670251D01*
X202154392Y-86730269D01*
X202156809Y-86735512D01*
X202216039Y-86863992D01*
X202239377Y-86914616D01*
X202242710Y-86919332D01*
X202332420Y-87046269D01*
X202356533Y-87080389D01*
X202360675Y-87084424D01*
X202416129Y-87138444D01*
X202501938Y-87222035D01*
X202670720Y-87334812D01*
X202676023Y-87337090D01*
X202676026Y-87337092D01*
X202847054Y-87410571D01*
X202857228Y-87414942D01*
X202930244Y-87431464D01*
X203049579Y-87458467D01*
X203049584Y-87458468D01*
X203055216Y-87459742D01*
X203060987Y-87459969D01*
X203060989Y-87459969D01*
X203120756Y-87462317D01*
X203258053Y-87467712D01*
X203358499Y-87453148D01*
X203453231Y-87439413D01*
X203453236Y-87439412D01*
X203458945Y-87438584D01*
X203464409Y-87436729D01*
X203464414Y-87436728D01*
X203645693Y-87375192D01*
X203645698Y-87375190D01*
X203651165Y-87373334D01*
X203664406Y-87365919D01*
X203725683Y-87331602D01*
X203828276Y-87274147D01*
X203841541Y-87263115D01*
X203979913Y-87148031D01*
X203984345Y-87144345D01*
X203988031Y-87139913D01*
X203988035Y-87139909D01*
X203992625Y-87134390D01*
X204051562Y-87094805D01*
X204122544Y-87093368D01*
X204183035Y-87130535D01*
X204213829Y-87194506D01*
X204215500Y-87214958D01*
X204215500Y-88046445D01*
X204195498Y-88114566D01*
X204141842Y-88161059D01*
X204071568Y-88171163D01*
X204003972Y-88138970D01*
X203875258Y-88019987D01*
X203870375Y-88016906D01*
X203870371Y-88016903D01*
X203708464Y-87914748D01*
X203703581Y-87911667D01*
X203515039Y-87836446D01*
X203509379Y-87835320D01*
X203509375Y-87835319D01*
X203321613Y-87797971D01*
X203321610Y-87797971D01*
X203315946Y-87796844D01*
X203310171Y-87796768D01*
X203310167Y-87796768D01*
X203208793Y-87795441D01*
X203112971Y-87794187D01*
X203107274Y-87795166D01*
X203107273Y-87795166D01*
X202918607Y-87827585D01*
X202912910Y-87828564D01*
X202722463Y-87898824D01*
X202548010Y-88002612D01*
X202543670Y-88006418D01*
X202543666Y-88006421D01*
X202412137Y-88121770D01*
X202395392Y-88136455D01*
X202391817Y-88140990D01*
X202391816Y-88140991D01*
X202385383Y-88149151D01*
X202269720Y-88295869D01*
X202267031Y-88300980D01*
X202267029Y-88300983D01*
X202219128Y-88392027D01*
X202175203Y-88475515D01*
X202115007Y-88669378D01*
X202091148Y-88870964D01*
X202104424Y-89073522D01*
X202105845Y-89079118D01*
X202105846Y-89079123D01*
X202140334Y-89214917D01*
X202154392Y-89270269D01*
X202156809Y-89275512D01*
X202207762Y-89386037D01*
X202239377Y-89454616D01*
X202242710Y-89459332D01*
X202342124Y-89600000D01*
X202356533Y-89620389D01*
X202360675Y-89624424D01*
X202373414Y-89636834D01*
X202501938Y-89762035D01*
X202670720Y-89874812D01*
X202676023Y-89877090D01*
X202676026Y-89877092D01*
X202812031Y-89935524D01*
X202857228Y-89954942D01*
X202915157Y-89968050D01*
X203049579Y-89998467D01*
X203049584Y-89998468D01*
X203055216Y-89999742D01*
X203060987Y-89999969D01*
X203060989Y-89999969D01*
X203120756Y-90002317D01*
X203258053Y-90007712D01*
X203358499Y-89993148D01*
X203453231Y-89979413D01*
X203453236Y-89979412D01*
X203458945Y-89978584D01*
X203464409Y-89976729D01*
X203464414Y-89976728D01*
X203645693Y-89915192D01*
X203645698Y-89915190D01*
X203651165Y-89913334D01*
X203682382Y-89895852D01*
X203745380Y-89860571D01*
X203828276Y-89814147D01*
X203890934Y-89762035D01*
X203979913Y-89688031D01*
X203984345Y-89684345D01*
X203988031Y-89679913D01*
X203988035Y-89679909D01*
X203992625Y-89674390D01*
X204051562Y-89634805D01*
X204122544Y-89633368D01*
X204183035Y-89670535D01*
X204213829Y-89734506D01*
X204215500Y-89754958D01*
X204215500Y-90586445D01*
X204195498Y-90654566D01*
X204141842Y-90701059D01*
X204071568Y-90711163D01*
X204003972Y-90678970D01*
X203891424Y-90574931D01*
X203879503Y-90563911D01*
X203875258Y-90559987D01*
X203870375Y-90556906D01*
X203870371Y-90556903D01*
X203708464Y-90454748D01*
X203703581Y-90451667D01*
X203515039Y-90376446D01*
X203509379Y-90375320D01*
X203509375Y-90375319D01*
X203321613Y-90337971D01*
X203321610Y-90337971D01*
X203315946Y-90336844D01*
X203310171Y-90336768D01*
X203310167Y-90336768D01*
X203208793Y-90335441D01*
X203112971Y-90334187D01*
X203107274Y-90335166D01*
X203107273Y-90335166D01*
X202918607Y-90367585D01*
X202912910Y-90368564D01*
X202722463Y-90438824D01*
X202548010Y-90542612D01*
X202543670Y-90546418D01*
X202543666Y-90546421D01*
X202414518Y-90659682D01*
X202395392Y-90676455D01*
X202269720Y-90835869D01*
X202267031Y-90840980D01*
X202267029Y-90840983D01*
X202219128Y-90932027D01*
X202175203Y-91015515D01*
X202115007Y-91209378D01*
X202091148Y-91410964D01*
X202104424Y-91613522D01*
X202105845Y-91619118D01*
X202105846Y-91619123D01*
X202148238Y-91786037D01*
X202154392Y-91810269D01*
X202156809Y-91815512D01*
X202208136Y-91926850D01*
X202239377Y-91994616D01*
X202245533Y-92003326D01*
X202340300Y-92137419D01*
X202356533Y-92160389D01*
X202360675Y-92164424D01*
X202413604Y-92215985D01*
X202501938Y-92302035D01*
X202670720Y-92414812D01*
X202676023Y-92417090D01*
X202676026Y-92417092D01*
X202848150Y-92491042D01*
X202857228Y-92494942D01*
X202930244Y-92511464D01*
X203049579Y-92538467D01*
X203049584Y-92538468D01*
X203055216Y-92539742D01*
X203060987Y-92539969D01*
X203060989Y-92539969D01*
X203120756Y-92542317D01*
X203258053Y-92547712D01*
X203358499Y-92533148D01*
X203453231Y-92519413D01*
X203453236Y-92519412D01*
X203458945Y-92518584D01*
X203464409Y-92516729D01*
X203464414Y-92516728D01*
X203645693Y-92455192D01*
X203645698Y-92455190D01*
X203651165Y-92453334D01*
X203828276Y-92354147D01*
X203843774Y-92341258D01*
X203979913Y-92228031D01*
X203984345Y-92224345D01*
X203988031Y-92219913D01*
X203988035Y-92219909D01*
X203992625Y-92214390D01*
X204051562Y-92174805D01*
X204122544Y-92173368D01*
X204183035Y-92210535D01*
X204213829Y-92274506D01*
X204215500Y-92294958D01*
X204215500Y-93126445D01*
X204195498Y-93194566D01*
X204141842Y-93241059D01*
X204071568Y-93251163D01*
X204003972Y-93218970D01*
X203875258Y-93099987D01*
X203870375Y-93096906D01*
X203870371Y-93096903D01*
X203708464Y-92994748D01*
X203703581Y-92991667D01*
X203515039Y-92916446D01*
X203509379Y-92915320D01*
X203509375Y-92915319D01*
X203321613Y-92877971D01*
X203321610Y-92877971D01*
X203315946Y-92876844D01*
X203310171Y-92876768D01*
X203310167Y-92876768D01*
X203208793Y-92875441D01*
X203112971Y-92874187D01*
X203107274Y-92875166D01*
X203107273Y-92875166D01*
X202918607Y-92907585D01*
X202912910Y-92908564D01*
X202722463Y-92978824D01*
X202548010Y-93082612D01*
X202543670Y-93086418D01*
X202543666Y-93086421D01*
X202412137Y-93201770D01*
X202395392Y-93216455D01*
X202269720Y-93375869D01*
X202267031Y-93380980D01*
X202267029Y-93380983D01*
X202254073Y-93405609D01*
X202175203Y-93555515D01*
X202115007Y-93749378D01*
X202091148Y-93950964D01*
X202104424Y-94153522D01*
X202105845Y-94159118D01*
X202105846Y-94159123D01*
X202152971Y-94344674D01*
X202154392Y-94350269D01*
X202156809Y-94355512D01*
X202194010Y-94436208D01*
X202239377Y-94534616D01*
X202356533Y-94700389D01*
X202360675Y-94704424D01*
X202373414Y-94716834D01*
X202501938Y-94842035D01*
X202670720Y-94954812D01*
X202676023Y-94957090D01*
X202676026Y-94957092D01*
X202764707Y-94995192D01*
X202857228Y-95034942D01*
X202930244Y-95051464D01*
X203049579Y-95078467D01*
X203049584Y-95078468D01*
X203055216Y-95079742D01*
X203060987Y-95079969D01*
X203060989Y-95079969D01*
X203120756Y-95082317D01*
X203258053Y-95087712D01*
X203358499Y-95073148D01*
X203453231Y-95059413D01*
X203453236Y-95059412D01*
X203458945Y-95058584D01*
X203464409Y-95056729D01*
X203464414Y-95056728D01*
X203645693Y-94995192D01*
X203645698Y-94995190D01*
X203651165Y-94993334D01*
X203828276Y-94894147D01*
X203890934Y-94842035D01*
X203979913Y-94768031D01*
X203984345Y-94764345D01*
X203988031Y-94759913D01*
X203988035Y-94759909D01*
X203992625Y-94754390D01*
X204051562Y-94714805D01*
X204122544Y-94713368D01*
X204183035Y-94750535D01*
X204213829Y-94814506D01*
X204215500Y-94834958D01*
X204215500Y-95666445D01*
X204195498Y-95734566D01*
X204141842Y-95781059D01*
X204071568Y-95791163D01*
X204003972Y-95758970D01*
X203875258Y-95639987D01*
X203870375Y-95636906D01*
X203870371Y-95636903D01*
X203708464Y-95534748D01*
X203703581Y-95531667D01*
X203515039Y-95456446D01*
X203509379Y-95455320D01*
X203509375Y-95455319D01*
X203321613Y-95417971D01*
X203321610Y-95417971D01*
X203315946Y-95416844D01*
X203310171Y-95416768D01*
X203310167Y-95416768D01*
X203208793Y-95415441D01*
X203112971Y-95414187D01*
X203107274Y-95415166D01*
X203107273Y-95415166D01*
X202918607Y-95447585D01*
X202912910Y-95448564D01*
X202722463Y-95518824D01*
X202548010Y-95622612D01*
X202543670Y-95626418D01*
X202543666Y-95626421D01*
X202412137Y-95741770D01*
X202395392Y-95756455D01*
X202269720Y-95915869D01*
X202267031Y-95920980D01*
X202267029Y-95920983D01*
X202254073Y-95945609D01*
X202175203Y-96095515D01*
X202115007Y-96289378D01*
X202091148Y-96490964D01*
X202104424Y-96693522D01*
X202105845Y-96699118D01*
X202105846Y-96699123D01*
X202126119Y-96778945D01*
X202154392Y-96890269D01*
X202156809Y-96895512D01*
X202194010Y-96976208D01*
X202239377Y-97074616D01*
X202356533Y-97240389D01*
X202360675Y-97244424D01*
X202373414Y-97256834D01*
X202501938Y-97382035D01*
X202670720Y-97494812D01*
X202676023Y-97497090D01*
X202676026Y-97497092D01*
X202764707Y-97535192D01*
X202857228Y-97574942D01*
X202930244Y-97591464D01*
X203049579Y-97618467D01*
X203049584Y-97618468D01*
X203055216Y-97619742D01*
X203060987Y-97619969D01*
X203060989Y-97619969D01*
X203120756Y-97622317D01*
X203258053Y-97627712D01*
X203358499Y-97613148D01*
X203453231Y-97599413D01*
X203453236Y-97599412D01*
X203458945Y-97598584D01*
X203464409Y-97596729D01*
X203464414Y-97596728D01*
X203645693Y-97535192D01*
X203645698Y-97535190D01*
X203651165Y-97533334D01*
X203828276Y-97434147D01*
X203890934Y-97382035D01*
X203979913Y-97308031D01*
X203984345Y-97304345D01*
X203988031Y-97299913D01*
X203988035Y-97299909D01*
X203992625Y-97294390D01*
X204051562Y-97254805D01*
X204122544Y-97253368D01*
X204183035Y-97290535D01*
X204213829Y-97354506D01*
X204215500Y-97374958D01*
X204215500Y-98206445D01*
X204195498Y-98274566D01*
X204141842Y-98321059D01*
X204071568Y-98331163D01*
X204003972Y-98298970D01*
X203875258Y-98179987D01*
X203870375Y-98176906D01*
X203870371Y-98176903D01*
X203708464Y-98074748D01*
X203703581Y-98071667D01*
X203515039Y-97996446D01*
X203509379Y-97995320D01*
X203509375Y-97995319D01*
X203321613Y-97957971D01*
X203321610Y-97957971D01*
X203315946Y-97956844D01*
X203310171Y-97956768D01*
X203310167Y-97956768D01*
X203208793Y-97955441D01*
X203112971Y-97954187D01*
X203107274Y-97955166D01*
X203107273Y-97955166D01*
X202944976Y-97983054D01*
X202912910Y-97988564D01*
X202722463Y-98058824D01*
X202548010Y-98162612D01*
X202543670Y-98166418D01*
X202543666Y-98166421D01*
X202412137Y-98281770D01*
X202395392Y-98296455D01*
X202269720Y-98455869D01*
X202267031Y-98460980D01*
X202267029Y-98460983D01*
X202219684Y-98550972D01*
X202175203Y-98635515D01*
X202115007Y-98829378D01*
X202091148Y-99030964D01*
X202104424Y-99233522D01*
X202105845Y-99239118D01*
X202105846Y-99239123D01*
X202126119Y-99318945D01*
X202154392Y-99430269D01*
X202156809Y-99435512D01*
X202194010Y-99516208D01*
X202239377Y-99614616D01*
X202356533Y-99780389D01*
X202360675Y-99784424D01*
X202373414Y-99796834D01*
X202501938Y-99922035D01*
X202670720Y-100034812D01*
X202676023Y-100037090D01*
X202676026Y-100037092D01*
X202764707Y-100075192D01*
X202857228Y-100114942D01*
X202930244Y-100131464D01*
X203049579Y-100158467D01*
X203049584Y-100158468D01*
X203055216Y-100159742D01*
X203060987Y-100159969D01*
X203060989Y-100159969D01*
X203120756Y-100162317D01*
X203258053Y-100167712D01*
X203358499Y-100153148D01*
X203453231Y-100139413D01*
X203453236Y-100139412D01*
X203458945Y-100138584D01*
X203464409Y-100136729D01*
X203464414Y-100136728D01*
X203645693Y-100075192D01*
X203645698Y-100075190D01*
X203651165Y-100073334D01*
X203828276Y-99974147D01*
X203890934Y-99922035D01*
X203979913Y-99848031D01*
X203984345Y-99844345D01*
X203988031Y-99839913D01*
X203988035Y-99839909D01*
X203992625Y-99834390D01*
X204051562Y-99794805D01*
X204122544Y-99793368D01*
X204183035Y-99830535D01*
X204213829Y-99894506D01*
X204215500Y-99914958D01*
X204215500Y-100370922D01*
X204195498Y-100439043D01*
X204141842Y-100485536D01*
X204078244Y-100496132D01*
X204075067Y-100495500D01*
X204068874Y-100495500D01*
X203199718Y-100495501D01*
X202324934Y-100495501D01*
X202289182Y-100502612D01*
X202262874Y-100507844D01*
X202262872Y-100507845D01*
X202250699Y-100510266D01*
X202240379Y-100517161D01*
X202240378Y-100517162D01*
X202209134Y-100538039D01*
X202166516Y-100566516D01*
X202110266Y-100650699D01*
X202095500Y-100724933D01*
X202095501Y-102475066D01*
X202110266Y-102549301D01*
X202166516Y-102633484D01*
X202250699Y-102689734D01*
X202324933Y-102704500D01*
X203199646Y-102704500D01*
X204075066Y-102704499D01*
X204078179Y-102703880D01*
X204146900Y-102716911D01*
X204198430Y-102765750D01*
X204215500Y-102829077D01*
X204215500Y-103764303D01*
X204195498Y-103832424D01*
X204141842Y-103878917D01*
X204071568Y-103889021D01*
X204059836Y-103886761D01*
X202309989Y-103462781D01*
X200407282Y-103001764D01*
X200407279Y-103001764D01*
X200400000Y-103000000D01*
X185600000Y-103000000D01*
X182020655Y-103882260D01*
X181949727Y-103879143D01*
X181891744Y-103838173D01*
X181865115Y-103772359D01*
X181864500Y-103759922D01*
X181864500Y-102829078D01*
X181884502Y-102760957D01*
X181938158Y-102714464D01*
X182001756Y-102703868D01*
X182004933Y-102704500D01*
X182011126Y-102704500D01*
X182880282Y-102704499D01*
X183755066Y-102704499D01*
X183790818Y-102697388D01*
X183817126Y-102692156D01*
X183817128Y-102692155D01*
X183829301Y-102689734D01*
X183839621Y-102682839D01*
X183839622Y-102682838D01*
X183903168Y-102640377D01*
X183913484Y-102633484D01*
X183969734Y-102549301D01*
X183984500Y-102475067D01*
X183984499Y-100724934D01*
X183969734Y-100650699D01*
X183941612Y-100608611D01*
X183920377Y-100576832D01*
X183913484Y-100566516D01*
X183829301Y-100510266D01*
X183755067Y-100495500D01*
X182880354Y-100495500D01*
X182004934Y-100495501D01*
X182001821Y-100496120D01*
X181933100Y-100483089D01*
X181881570Y-100434250D01*
X181864500Y-100370923D01*
X181864500Y-99911448D01*
X181884502Y-99843327D01*
X181938158Y-99796834D01*
X182008432Y-99786730D01*
X182073012Y-99816224D01*
X182078419Y-99821192D01*
X182181938Y-99922035D01*
X182350720Y-100034812D01*
X182356023Y-100037090D01*
X182356026Y-100037092D01*
X182444707Y-100075192D01*
X182537228Y-100114942D01*
X182610244Y-100131464D01*
X182729579Y-100158467D01*
X182729584Y-100158468D01*
X182735216Y-100159742D01*
X182740987Y-100159969D01*
X182740989Y-100159969D01*
X182800756Y-100162317D01*
X182938053Y-100167712D01*
X183038499Y-100153148D01*
X183133231Y-100139413D01*
X183133236Y-100139412D01*
X183138945Y-100138584D01*
X183144409Y-100136729D01*
X183144414Y-100136728D01*
X183325693Y-100075192D01*
X183325698Y-100075190D01*
X183331165Y-100073334D01*
X183508276Y-99974147D01*
X183570934Y-99922035D01*
X183659913Y-99848031D01*
X183664345Y-99844345D01*
X183794147Y-99688276D01*
X183893334Y-99511165D01*
X183895190Y-99505698D01*
X183895192Y-99505693D01*
X183956728Y-99324414D01*
X183956729Y-99324409D01*
X183958584Y-99318945D01*
X183959412Y-99313236D01*
X183959413Y-99313231D01*
X183987179Y-99121727D01*
X183987712Y-99118053D01*
X183989232Y-99060000D01*
X183975502Y-98910571D01*
X183971187Y-98863613D01*
X183971186Y-98863610D01*
X183970658Y-98857859D01*
X183965601Y-98839929D01*
X183917125Y-98668046D01*
X183917124Y-98668044D01*
X183915557Y-98662487D01*
X183912173Y-98655623D01*
X183828330Y-98485608D01*
X183825776Y-98480428D01*
X183704320Y-98317779D01*
X183555258Y-98179987D01*
X183550375Y-98176906D01*
X183550371Y-98176903D01*
X183388464Y-98074748D01*
X183383581Y-98071667D01*
X183195039Y-97996446D01*
X183189379Y-97995320D01*
X183189375Y-97995319D01*
X183001613Y-97957971D01*
X183001610Y-97957971D01*
X182995946Y-97956844D01*
X182990171Y-97956768D01*
X182990167Y-97956768D01*
X182888793Y-97955441D01*
X182792971Y-97954187D01*
X182787274Y-97955166D01*
X182787273Y-97955166D01*
X182624976Y-97983054D01*
X182592910Y-97988564D01*
X182402463Y-98058824D01*
X182228010Y-98162612D01*
X182223670Y-98166418D01*
X182223666Y-98166421D01*
X182075392Y-98296455D01*
X182074047Y-98294921D01*
X182020511Y-98326009D01*
X181949587Y-98322808D01*
X181891652Y-98281770D01*
X181865101Y-98215925D01*
X181864500Y-98203635D01*
X181864500Y-97371448D01*
X181884502Y-97303327D01*
X181938158Y-97256834D01*
X182008432Y-97246730D01*
X182073012Y-97276224D01*
X182078419Y-97281192D01*
X182181938Y-97382035D01*
X182350720Y-97494812D01*
X182356023Y-97497090D01*
X182356026Y-97497092D01*
X182444707Y-97535192D01*
X182537228Y-97574942D01*
X182610244Y-97591464D01*
X182729579Y-97618467D01*
X182729584Y-97618468D01*
X182735216Y-97619742D01*
X182740987Y-97619969D01*
X182740989Y-97619969D01*
X182800756Y-97622317D01*
X182938053Y-97627712D01*
X183038499Y-97613148D01*
X183133231Y-97599413D01*
X183133236Y-97599412D01*
X183138945Y-97598584D01*
X183144409Y-97596729D01*
X183144414Y-97596728D01*
X183325693Y-97535192D01*
X183325698Y-97535190D01*
X183331165Y-97533334D01*
X183508276Y-97434147D01*
X183570934Y-97382035D01*
X183659913Y-97308031D01*
X183664345Y-97304345D01*
X183794147Y-97148276D01*
X183893334Y-96971165D01*
X183895190Y-96965698D01*
X183895192Y-96965693D01*
X183956728Y-96784414D01*
X183956729Y-96784409D01*
X183958584Y-96778945D01*
X183959412Y-96773236D01*
X183959413Y-96773231D01*
X183987179Y-96581727D01*
X183987712Y-96578053D01*
X183989232Y-96520000D01*
X183970658Y-96317859D01*
X183969090Y-96312299D01*
X183917125Y-96128046D01*
X183917124Y-96128044D01*
X183915557Y-96122487D01*
X183904978Y-96101033D01*
X183828331Y-95945609D01*
X183825776Y-95940428D01*
X183704320Y-95777779D01*
X183555258Y-95639987D01*
X183550375Y-95636906D01*
X183550371Y-95636903D01*
X183388464Y-95534748D01*
X183383581Y-95531667D01*
X183195039Y-95456446D01*
X183189379Y-95455320D01*
X183189375Y-95455319D01*
X183001613Y-95417971D01*
X183001610Y-95417971D01*
X182995946Y-95416844D01*
X182990171Y-95416768D01*
X182990167Y-95416768D01*
X182888793Y-95415441D01*
X182792971Y-95414187D01*
X182787274Y-95415166D01*
X182787273Y-95415166D01*
X182598607Y-95447585D01*
X182592910Y-95448564D01*
X182402463Y-95518824D01*
X182228010Y-95622612D01*
X182223670Y-95626418D01*
X182223666Y-95626421D01*
X182075392Y-95756455D01*
X182074047Y-95754921D01*
X182020511Y-95786009D01*
X181949587Y-95782808D01*
X181891652Y-95741770D01*
X181865101Y-95675925D01*
X181864500Y-95663635D01*
X181864500Y-94831448D01*
X181884502Y-94763327D01*
X181938158Y-94716834D01*
X182008432Y-94706730D01*
X182073012Y-94736224D01*
X182078419Y-94741192D01*
X182181938Y-94842035D01*
X182350720Y-94954812D01*
X182356023Y-94957090D01*
X182356026Y-94957092D01*
X182444707Y-94995192D01*
X182537228Y-95034942D01*
X182610244Y-95051464D01*
X182729579Y-95078467D01*
X182729584Y-95078468D01*
X182735216Y-95079742D01*
X182740987Y-95079969D01*
X182740989Y-95079969D01*
X182800756Y-95082317D01*
X182938053Y-95087712D01*
X183038499Y-95073148D01*
X183133231Y-95059413D01*
X183133236Y-95059412D01*
X183138945Y-95058584D01*
X183144409Y-95056729D01*
X183144414Y-95056728D01*
X183325693Y-94995192D01*
X183325698Y-94995190D01*
X183331165Y-94993334D01*
X183508276Y-94894147D01*
X183570934Y-94842035D01*
X183659913Y-94768031D01*
X183664345Y-94764345D01*
X183794147Y-94608276D01*
X183893334Y-94431165D01*
X183895190Y-94425698D01*
X183895192Y-94425693D01*
X183956728Y-94244414D01*
X183956729Y-94244409D01*
X183958584Y-94238945D01*
X183959412Y-94233236D01*
X183959413Y-94233231D01*
X183976991Y-94111996D01*
X183987712Y-94038053D01*
X183989232Y-93980000D01*
X183970658Y-93777859D01*
X183969090Y-93772299D01*
X183917125Y-93588046D01*
X183917124Y-93588044D01*
X183915557Y-93582487D01*
X183904978Y-93561033D01*
X183828331Y-93405609D01*
X183825776Y-93400428D01*
X183704320Y-93237779D01*
X183555258Y-93099987D01*
X183550375Y-93096906D01*
X183550371Y-93096903D01*
X183388464Y-92994748D01*
X183383581Y-92991667D01*
X183195039Y-92916446D01*
X183189379Y-92915320D01*
X183189375Y-92915319D01*
X183001613Y-92877971D01*
X183001610Y-92877971D01*
X182995946Y-92876844D01*
X182990171Y-92876768D01*
X182990167Y-92876768D01*
X182888793Y-92875441D01*
X182792971Y-92874187D01*
X182787274Y-92875166D01*
X182787273Y-92875166D01*
X182598607Y-92907585D01*
X182592910Y-92908564D01*
X182402463Y-92978824D01*
X182228010Y-93082612D01*
X182223670Y-93086418D01*
X182223666Y-93086421D01*
X182075392Y-93216455D01*
X182074047Y-93214921D01*
X182020511Y-93246009D01*
X181949587Y-93242808D01*
X181891652Y-93201770D01*
X181865101Y-93135925D01*
X181864500Y-93123635D01*
X181864500Y-92291448D01*
X181884502Y-92223327D01*
X181938158Y-92176834D01*
X182008432Y-92166730D01*
X182073012Y-92196224D01*
X182078419Y-92201192D01*
X182181938Y-92302035D01*
X182350720Y-92414812D01*
X182356023Y-92417090D01*
X182356026Y-92417092D01*
X182528150Y-92491042D01*
X182537228Y-92494942D01*
X182610244Y-92511464D01*
X182729579Y-92538467D01*
X182729584Y-92538468D01*
X182735216Y-92539742D01*
X182740987Y-92539969D01*
X182740989Y-92539969D01*
X182800756Y-92542317D01*
X182938053Y-92547712D01*
X183038499Y-92533148D01*
X183133231Y-92519413D01*
X183133236Y-92519412D01*
X183138945Y-92518584D01*
X183144409Y-92516729D01*
X183144414Y-92516728D01*
X183325693Y-92455192D01*
X183325698Y-92455190D01*
X183331165Y-92453334D01*
X183508276Y-92354147D01*
X183523774Y-92341258D01*
X183659913Y-92228031D01*
X183664345Y-92224345D01*
X183794147Y-92068276D01*
X183796968Y-92063239D01*
X183796974Y-92063230D01*
X183810744Y-92038641D01*
X183861481Y-91988979D01*
X183931012Y-91974632D01*
X183997263Y-92000153D01*
X184009773Y-92011112D01*
X184258595Y-92259934D01*
X184292621Y-92322246D01*
X184295500Y-92349029D01*
X184295500Y-98698743D01*
X184293394Y-98718537D01*
X184293189Y-98722890D01*
X184290997Y-98733070D01*
X184293911Y-98757686D01*
X184294627Y-98763737D01*
X184294942Y-98769083D01*
X184295072Y-98769072D01*
X184295500Y-98774252D01*
X184295500Y-98779451D01*
X184296353Y-98784575D01*
X184296354Y-98784588D01*
X184298427Y-98797041D01*
X184299264Y-98802916D01*
X184304869Y-98850270D01*
X184308570Y-98857978D01*
X184309975Y-98866417D01*
X184332629Y-98908401D01*
X184335310Y-98913664D01*
X184355955Y-98956658D01*
X184359311Y-98960650D01*
X184361258Y-98962597D01*
X184362748Y-98964222D01*
X184362981Y-98964654D01*
X184362945Y-98964687D01*
X184363084Y-98964845D01*
X184366017Y-98970280D01*
X184373664Y-98977349D01*
X184402881Y-99004357D01*
X184406447Y-99007786D01*
X186364362Y-100965701D01*
X186398388Y-101028013D01*
X186400189Y-101071241D01*
X186390729Y-101143096D01*
X186408113Y-101300553D01*
X186462553Y-101449319D01*
X186550908Y-101580805D01*
X186556527Y-101585918D01*
X186556528Y-101585919D01*
X186567903Y-101596269D01*
X186668076Y-101687419D01*
X186807293Y-101763008D01*
X186960522Y-101803207D01*
X187044477Y-101804526D01*
X187111319Y-101805576D01*
X187111322Y-101805576D01*
X187118916Y-101805695D01*
X187273332Y-101770329D01*
X187343742Y-101734917D01*
X187408072Y-101702563D01*
X187408075Y-101702561D01*
X187414855Y-101699151D01*
X187420626Y-101694222D01*
X187420629Y-101694220D01*
X187529536Y-101601204D01*
X187529536Y-101601203D01*
X187535314Y-101596269D01*
X187627755Y-101467624D01*
X187686842Y-101320641D01*
X187709162Y-101163807D01*
X187709307Y-101150000D01*
X187690276Y-100992733D01*
X187634280Y-100844546D01*
X187556325Y-100731120D01*
X187548855Y-100720251D01*
X187548854Y-100720249D01*
X187544553Y-100713992D01*
X187426275Y-100608611D01*
X187286274Y-100534484D01*
X187132633Y-100495892D01*
X187125034Y-100495852D01*
X187125033Y-100495852D01*
X187056425Y-100495493D01*
X186974221Y-100495062D01*
X186966835Y-100496835D01*
X186965800Y-100496955D01*
X186895832Y-100484915D01*
X186862224Y-100460885D01*
X185041405Y-98640067D01*
X185007380Y-98577755D01*
X185004500Y-98550972D01*
X185004500Y-92201257D01*
X185006606Y-92181463D01*
X185006811Y-92177110D01*
X185009003Y-92166930D01*
X185005373Y-92136260D01*
X185005058Y-92130917D01*
X185004928Y-92130928D01*
X185004500Y-92125748D01*
X185004500Y-92120549D01*
X185003647Y-92115425D01*
X185003646Y-92115412D01*
X185001573Y-92102959D01*
X185000736Y-92097084D01*
X184996355Y-92060071D01*
X184995131Y-92049730D01*
X184991430Y-92042022D01*
X184990025Y-92033583D01*
X184967380Y-91991615D01*
X184964684Y-91986324D01*
X184947474Y-91950483D01*
X184947472Y-91950480D01*
X184944045Y-91943343D01*
X184940689Y-91939350D01*
X184938763Y-91937424D01*
X184937250Y-91935774D01*
X184937014Y-91935338D01*
X184937049Y-91935306D01*
X184936916Y-91935155D01*
X184933983Y-91929720D01*
X184897132Y-91895655D01*
X184893566Y-91892227D01*
X184644560Y-91643221D01*
X184391405Y-91390067D01*
X184357380Y-91327754D01*
X184354500Y-91300971D01*
X184354500Y-90543096D01*
X186440729Y-90543096D01*
X186449358Y-90621257D01*
X186456982Y-90690307D01*
X186458113Y-90700553D01*
X186460723Y-90707684D01*
X186460723Y-90707686D01*
X186505971Y-90831332D01*
X186512553Y-90849319D01*
X186516789Y-90855622D01*
X186516789Y-90855623D01*
X186577421Y-90945852D01*
X186600908Y-90980805D01*
X186606527Y-90985918D01*
X186606528Y-90985919D01*
X186639054Y-91015515D01*
X186718076Y-91087419D01*
X186857293Y-91163008D01*
X187010522Y-91203207D01*
X187094477Y-91204526D01*
X187161319Y-91205576D01*
X187161322Y-91205576D01*
X187168916Y-91205695D01*
X187323332Y-91170329D01*
X187393742Y-91134917D01*
X187458072Y-91102563D01*
X187458075Y-91102561D01*
X187464855Y-91099151D01*
X187470626Y-91094222D01*
X187470629Y-91094220D01*
X187579536Y-91001204D01*
X187579536Y-91001203D01*
X187585314Y-90996269D01*
X187677755Y-90867624D01*
X187736842Y-90720641D01*
X187759162Y-90563807D01*
X187759307Y-90550000D01*
X187740276Y-90392733D01*
X187684280Y-90244546D01*
X187667636Y-90220329D01*
X187598855Y-90120251D01*
X187598854Y-90120249D01*
X187594553Y-90113992D01*
X187476275Y-90008611D01*
X187468889Y-90004700D01*
X187342988Y-89938039D01*
X187342989Y-89938039D01*
X187336274Y-89934484D01*
X187182633Y-89895892D01*
X187175034Y-89895852D01*
X187175033Y-89895852D01*
X187109181Y-89895507D01*
X187024221Y-89895062D01*
X187016841Y-89896834D01*
X187016839Y-89896834D01*
X186877563Y-89930271D01*
X186877560Y-89930272D01*
X186870184Y-89932043D01*
X186729414Y-90004700D01*
X186610039Y-90108838D01*
X186518950Y-90238444D01*
X186512271Y-90255576D01*
X186465585Y-90375319D01*
X186461406Y-90386037D01*
X186460414Y-90393570D01*
X186460414Y-90393571D01*
X186443689Y-90520613D01*
X186440729Y-90543096D01*
X184354500Y-90543096D01*
X184354500Y-88014687D01*
X184374502Y-87946566D01*
X184428158Y-87900073D01*
X184498432Y-87889969D01*
X184540622Y-87903956D01*
X184557293Y-87913008D01*
X184710522Y-87953207D01*
X184794477Y-87954526D01*
X184861319Y-87955576D01*
X184861322Y-87955576D01*
X184868916Y-87955695D01*
X185023332Y-87920329D01*
X185093742Y-87884917D01*
X185158072Y-87852563D01*
X185158075Y-87852561D01*
X185164855Y-87849151D01*
X185170626Y-87844222D01*
X185170629Y-87844220D01*
X185279536Y-87751204D01*
X185279536Y-87751203D01*
X185285314Y-87746269D01*
X185377755Y-87617624D01*
X185436842Y-87470641D01*
X185451746Y-87365919D01*
X185458581Y-87317891D01*
X185458581Y-87317888D01*
X185459162Y-87313807D01*
X185459307Y-87300000D01*
X185455732Y-87270453D01*
X185453659Y-87253326D01*
X185440276Y-87142733D01*
X185384280Y-86994546D01*
X185335909Y-86924166D01*
X185298855Y-86870251D01*
X185298854Y-86870249D01*
X185294553Y-86863992D01*
X185176275Y-86758611D01*
X185036274Y-86684484D01*
X184979610Y-86670251D01*
X184949804Y-86662764D01*
X184888609Y-86626769D01*
X184856588Y-86563403D01*
X184854500Y-86540560D01*
X184854500Y-83288029D01*
X184874502Y-83219908D01*
X184891405Y-83198934D01*
X185486231Y-82604108D01*
X185548543Y-82570082D01*
X185584514Y-82568676D01*
X185584521Y-82568207D01*
X185586637Y-82568240D01*
X185645158Y-82569159D01*
X185712955Y-82590227D01*
X185758600Y-82644606D01*
X185767600Y-82715030D01*
X185746266Y-82767594D01*
X185682039Y-82858980D01*
X185676990Y-82866164D01*
X185649528Y-82936601D01*
X185630300Y-82985919D01*
X185619446Y-83013757D01*
X185618454Y-83021290D01*
X185618454Y-83021291D01*
X185599797Y-83163008D01*
X185598769Y-83170816D01*
X185607461Y-83249545D01*
X185614036Y-83309094D01*
X185616153Y-83328273D01*
X185618763Y-83335404D01*
X185618763Y-83335406D01*
X185659919Y-83447870D01*
X185670593Y-83477039D01*
X185674829Y-83483342D01*
X185674829Y-83483343D01*
X185710725Y-83536761D01*
X185758948Y-83608525D01*
X185764567Y-83613638D01*
X185764568Y-83613639D01*
X185775943Y-83623989D01*
X185876116Y-83715139D01*
X186015333Y-83790728D01*
X186168562Y-83830927D01*
X186252517Y-83832246D01*
X186319359Y-83833296D01*
X186319362Y-83833296D01*
X186326956Y-83833415D01*
X186481372Y-83798049D01*
X186551782Y-83762637D01*
X186616112Y-83730283D01*
X186616115Y-83730281D01*
X186622895Y-83726871D01*
X186706108Y-83655800D01*
X186770898Y-83626769D01*
X186841098Y-83637374D01*
X186872738Y-83658417D01*
X186903092Y-83686037D01*
X186943076Y-83722419D01*
X187082293Y-83798008D01*
X187235522Y-83838207D01*
X187319477Y-83839526D01*
X187386319Y-83840576D01*
X187386322Y-83840576D01*
X187393916Y-83840695D01*
X187548332Y-83805329D01*
X187618742Y-83769917D01*
X187683072Y-83737563D01*
X187683075Y-83737561D01*
X187689855Y-83734151D01*
X187695626Y-83729222D01*
X187695629Y-83729220D01*
X187804536Y-83636204D01*
X187804536Y-83636203D01*
X187810314Y-83631269D01*
X187881884Y-83531669D01*
X187937875Y-83488024D01*
X188008578Y-83481578D01*
X188073298Y-83516103D01*
X189009583Y-84452388D01*
X189043609Y-84514700D01*
X189046488Y-84541483D01*
X189046488Y-86264155D01*
X189026486Y-86332276D01*
X188972830Y-86378769D01*
X188902556Y-86388873D01*
X188861532Y-86375510D01*
X188746274Y-86314484D01*
X188592633Y-86275892D01*
X188585034Y-86275852D01*
X188585033Y-86275852D01*
X188519181Y-86275507D01*
X188434221Y-86275062D01*
X188426841Y-86276834D01*
X188426839Y-86276834D01*
X188287563Y-86310271D01*
X188287560Y-86310272D01*
X188280184Y-86312043D01*
X188139414Y-86384700D01*
X188020039Y-86488838D01*
X187928950Y-86618444D01*
X187911192Y-86663992D01*
X187875688Y-86755055D01*
X187871406Y-86766037D01*
X187870414Y-86773570D01*
X187870414Y-86773571D01*
X187851971Y-86913664D01*
X187850729Y-86923096D01*
X187857230Y-86981978D01*
X187865259Y-87054700D01*
X187868113Y-87080553D01*
X187870723Y-87087684D01*
X187870723Y-87087686D01*
X187918412Y-87218002D01*
X187922553Y-87229319D01*
X187926789Y-87235622D01*
X187926789Y-87235623D01*
X187994974Y-87337092D01*
X188010908Y-87360805D01*
X188016527Y-87365918D01*
X188016528Y-87365919D01*
X188114299Y-87454883D01*
X188151222Y-87515523D01*
X188155500Y-87548077D01*
X188155500Y-91478743D01*
X188153394Y-91498537D01*
X188153189Y-91502890D01*
X188150997Y-91513070D01*
X188152221Y-91523408D01*
X188154627Y-91543737D01*
X188154942Y-91549083D01*
X188155072Y-91549072D01*
X188155500Y-91554252D01*
X188155500Y-91559451D01*
X188156353Y-91564575D01*
X188156354Y-91564588D01*
X188158427Y-91577041D01*
X188159264Y-91582916D01*
X188162204Y-91607755D01*
X188164869Y-91630270D01*
X188168570Y-91637978D01*
X188169975Y-91646417D01*
X188192629Y-91688401D01*
X188195310Y-91693664D01*
X188215955Y-91736658D01*
X188219311Y-91740650D01*
X188221258Y-91742597D01*
X188222748Y-91744222D01*
X188222981Y-91744654D01*
X188222945Y-91744687D01*
X188223084Y-91744845D01*
X188226017Y-91750280D01*
X188233664Y-91757349D01*
X188262881Y-91784357D01*
X188266447Y-91787786D01*
X190343084Y-93864423D01*
X190355592Y-93879909D01*
X190358526Y-93883134D01*
X190364175Y-93891882D01*
X190372352Y-93898328D01*
X190388430Y-93911003D01*
X190392433Y-93914561D01*
X190392518Y-93914461D01*
X190396475Y-93917814D01*
X190400156Y-93921495D01*
X190404388Y-93924519D01*
X190404390Y-93924521D01*
X190414665Y-93931864D01*
X190419409Y-93935426D01*
X190448675Y-93958497D01*
X190448679Y-93958499D01*
X190456857Y-93964946D01*
X190464925Y-93967779D01*
X190471885Y-93972753D01*
X190481863Y-93975737D01*
X190517586Y-93986420D01*
X190523235Y-93988256D01*
X190568208Y-94004050D01*
X190573404Y-94004500D01*
X190576109Y-94004500D01*
X190578365Y-94004597D01*
X190578841Y-94004740D01*
X190578839Y-94004786D01*
X190579038Y-94004799D01*
X190584955Y-94006568D01*
X190635124Y-94004597D01*
X190640070Y-94004500D01*
X198292497Y-94004500D01*
X198360618Y-94024502D01*
X198397078Y-94060224D01*
X198410908Y-94080805D01*
X198416526Y-94085917D01*
X198484486Y-94147755D01*
X198528076Y-94187419D01*
X198667293Y-94263008D01*
X198820522Y-94303207D01*
X198904477Y-94304526D01*
X198971319Y-94305576D01*
X198971322Y-94305576D01*
X198978916Y-94305695D01*
X199133332Y-94270329D01*
X199207094Y-94233231D01*
X199268072Y-94202563D01*
X199268075Y-94202561D01*
X199274855Y-94199151D01*
X199280626Y-94194222D01*
X199280629Y-94194220D01*
X199389536Y-94101204D01*
X199389536Y-94101203D01*
X199395314Y-94096269D01*
X199487755Y-93967624D01*
X199546842Y-93820641D01*
X199569162Y-93663807D01*
X199569307Y-93650000D01*
X199550276Y-93492733D01*
X199494280Y-93344546D01*
X199444276Y-93271789D01*
X199422176Y-93204319D01*
X199440062Y-93135612D01*
X199466283Y-93104614D01*
X199481048Y-93092003D01*
X199573489Y-92963358D01*
X199632576Y-92816375D01*
X199654896Y-92659541D01*
X199655041Y-92645734D01*
X199636010Y-92488467D01*
X199580014Y-92340280D01*
X199520715Y-92253999D01*
X199494589Y-92215985D01*
X199494588Y-92215983D01*
X199490287Y-92209726D01*
X199372009Y-92104345D01*
X199364623Y-92100434D01*
X199272627Y-92051725D01*
X199232008Y-92030218D01*
X199078367Y-91991626D01*
X199070768Y-91991586D01*
X199070767Y-91991586D01*
X199004915Y-91991241D01*
X198919955Y-91990796D01*
X198912575Y-91992568D01*
X198912573Y-91992568D01*
X198773297Y-92026005D01*
X198773294Y-92026006D01*
X198765918Y-92027777D01*
X198625148Y-92100434D01*
X198505773Y-92204572D01*
X198414684Y-92334178D01*
X198405797Y-92356972D01*
X198367503Y-92455192D01*
X198357140Y-92481771D01*
X198356148Y-92489304D01*
X198356148Y-92489305D01*
X198341049Y-92603999D01*
X198336463Y-92638830D01*
X198353847Y-92796287D01*
X198356457Y-92803418D01*
X198356457Y-92803420D01*
X198398602Y-92918586D01*
X198408287Y-92945053D01*
X198412523Y-92951356D01*
X198412523Y-92951357D01*
X198462423Y-93025616D01*
X198483815Y-93093313D01*
X198465211Y-93161829D01*
X198440671Y-93190839D01*
X198420039Y-93208838D01*
X198415669Y-93215056D01*
X198396767Y-93241950D01*
X198341233Y-93286182D01*
X198293680Y-93295500D01*
X190829029Y-93295500D01*
X190760908Y-93275498D01*
X190739934Y-93258595D01*
X189074434Y-91593096D01*
X193190729Y-91593096D01*
X193195094Y-91632632D01*
X193207119Y-91741548D01*
X193208113Y-91750553D01*
X193210723Y-91757684D01*
X193210723Y-91757686D01*
X193229966Y-91810269D01*
X193262553Y-91899319D01*
X193266789Y-91905622D01*
X193266789Y-91905623D01*
X193325825Y-91993477D01*
X193350908Y-92030805D01*
X193356527Y-92035918D01*
X193356528Y-92035919D01*
X193437281Y-92109398D01*
X193468076Y-92137419D01*
X193607293Y-92213008D01*
X193760522Y-92253207D01*
X193844477Y-92254526D01*
X193911319Y-92255576D01*
X193911322Y-92255576D01*
X193918916Y-92255695D01*
X194073332Y-92220329D01*
X194159813Y-92176834D01*
X194208072Y-92152563D01*
X194208075Y-92152561D01*
X194214855Y-92149151D01*
X194220626Y-92144222D01*
X194220629Y-92144220D01*
X194329536Y-92051204D01*
X194329536Y-92051203D01*
X194335314Y-92046269D01*
X194409451Y-91943096D01*
X196140729Y-91943096D01*
X196145502Y-91986324D01*
X196155040Y-92072717D01*
X196158113Y-92100553D01*
X196160723Y-92107684D01*
X196160723Y-92107686D01*
X196204763Y-92228031D01*
X196212553Y-92249319D01*
X196216789Y-92255622D01*
X196216789Y-92255623D01*
X196282995Y-92354147D01*
X196300908Y-92380805D01*
X196306527Y-92385918D01*
X196306528Y-92385919D01*
X196338281Y-92414812D01*
X196418076Y-92487419D01*
X196557293Y-92563008D01*
X196710522Y-92603207D01*
X196794477Y-92604526D01*
X196861319Y-92605576D01*
X196861322Y-92605576D01*
X196868916Y-92605695D01*
X197023332Y-92570329D01*
X197093742Y-92534917D01*
X197158072Y-92502563D01*
X197158075Y-92502561D01*
X197164855Y-92499151D01*
X197170626Y-92494222D01*
X197170629Y-92494220D01*
X197279536Y-92401204D01*
X197279536Y-92401203D01*
X197285314Y-92396269D01*
X197377755Y-92267624D01*
X197436842Y-92120641D01*
X197442878Y-92078229D01*
X197472279Y-92013606D01*
X197531950Y-91975137D01*
X197599594Y-91974106D01*
X197703171Y-92001279D01*
X197703175Y-92001280D01*
X197710522Y-92003207D01*
X197794477Y-92004526D01*
X197861319Y-92005576D01*
X197861322Y-92005576D01*
X197868916Y-92005695D01*
X198023332Y-91970329D01*
X198109781Y-91926850D01*
X198158072Y-91902563D01*
X198158075Y-91902561D01*
X198164855Y-91899151D01*
X198170626Y-91894222D01*
X198170629Y-91894220D01*
X198279536Y-91801204D01*
X198279536Y-91801203D01*
X198285314Y-91796269D01*
X198377755Y-91667624D01*
X198436842Y-91520641D01*
X198445110Y-91462545D01*
X198452342Y-91411729D01*
X198481742Y-91347106D01*
X198541414Y-91308637D01*
X198579062Y-91303498D01*
X198636158Y-91304395D01*
X198711319Y-91305576D01*
X198711322Y-91305576D01*
X198718916Y-91305695D01*
X198873332Y-91270329D01*
X198943742Y-91234917D01*
X199008072Y-91202563D01*
X199008075Y-91202561D01*
X199014855Y-91199151D01*
X199020626Y-91194222D01*
X199020629Y-91194220D01*
X199129536Y-91101204D01*
X199129536Y-91101203D01*
X199135314Y-91096269D01*
X199227755Y-90967624D01*
X199286842Y-90820641D01*
X199302145Y-90713115D01*
X199308581Y-90667891D01*
X199308581Y-90667888D01*
X199309162Y-90663807D01*
X199309307Y-90650000D01*
X199290276Y-90492733D01*
X199234280Y-90344546D01*
X199184386Y-90271949D01*
X199162286Y-90204481D01*
X199180171Y-90135774D01*
X199214990Y-90099309D01*
X199214855Y-90099151D01*
X199216404Y-90097828D01*
X199335314Y-89996269D01*
X199427755Y-89867624D01*
X199486842Y-89720641D01*
X199500535Y-89624424D01*
X199508581Y-89567891D01*
X199508581Y-89567888D01*
X199509162Y-89563807D01*
X199509307Y-89550000D01*
X199490276Y-89392733D01*
X199434280Y-89244546D01*
X199383219Y-89170251D01*
X199348855Y-89120251D01*
X199348854Y-89120249D01*
X199344553Y-89113992D01*
X199226275Y-89008611D01*
X199218889Y-89004700D01*
X199092988Y-88938039D01*
X199092989Y-88938039D01*
X199086274Y-88934484D01*
X198932633Y-88895892D01*
X198925034Y-88895852D01*
X198925033Y-88895852D01*
X198859181Y-88895507D01*
X198774221Y-88895062D01*
X198766841Y-88896834D01*
X198766839Y-88896834D01*
X198627563Y-88930271D01*
X198627560Y-88930272D01*
X198620184Y-88932043D01*
X198479414Y-89004700D01*
X198360039Y-89108838D01*
X198268950Y-89238444D01*
X198240178Y-89312240D01*
X198214443Y-89378248D01*
X198211406Y-89386037D01*
X198210414Y-89393570D01*
X198210414Y-89393571D01*
X198200189Y-89471243D01*
X198190729Y-89543096D01*
X198197083Y-89600646D01*
X198206731Y-89688031D01*
X198208113Y-89700553D01*
X198210723Y-89707684D01*
X198210723Y-89707686D01*
X198254205Y-89826506D01*
X198262553Y-89849319D01*
X198266788Y-89855622D01*
X198266792Y-89855629D01*
X198316247Y-89929225D01*
X198337640Y-89996922D01*
X198319036Y-90065438D01*
X198283619Y-90102530D01*
X198279414Y-90104700D01*
X198160039Y-90208838D01*
X198068950Y-90338444D01*
X198053155Y-90378957D01*
X198025641Y-90449527D01*
X198011406Y-90486037D01*
X198010414Y-90493570D01*
X198010414Y-90493571D01*
X198008848Y-90505469D01*
X197998897Y-90581058D01*
X197998208Y-90586288D01*
X197969486Y-90651215D01*
X197910221Y-90690307D01*
X197872628Y-90695840D01*
X197724221Y-90695062D01*
X197716841Y-90696834D01*
X197716839Y-90696834D01*
X197577563Y-90730271D01*
X197577560Y-90730272D01*
X197570184Y-90732043D01*
X197429414Y-90804700D01*
X197310039Y-90908838D01*
X197218950Y-91038444D01*
X197198812Y-91090095D01*
X197167561Y-91170251D01*
X197161406Y-91186037D01*
X197159060Y-91203861D01*
X197156942Y-91219946D01*
X197128220Y-91284874D01*
X197068956Y-91323966D01*
X197001325Y-91325705D01*
X196890004Y-91297743D01*
X196890000Y-91297743D01*
X196882633Y-91295892D01*
X196875034Y-91295852D01*
X196875033Y-91295852D01*
X196809181Y-91295507D01*
X196724221Y-91295062D01*
X196716841Y-91296834D01*
X196716839Y-91296834D01*
X196577563Y-91330271D01*
X196577560Y-91330272D01*
X196570184Y-91332043D01*
X196429414Y-91404700D01*
X196310039Y-91508838D01*
X196218950Y-91638444D01*
X196210323Y-91660571D01*
X196167409Y-91770641D01*
X196161406Y-91786037D01*
X196160414Y-91793570D01*
X196160414Y-91793571D01*
X196141740Y-91935420D01*
X196140729Y-91943096D01*
X194409451Y-91943096D01*
X194427755Y-91917624D01*
X194486842Y-91770641D01*
X194506483Y-91632632D01*
X194508581Y-91617891D01*
X194508581Y-91617888D01*
X194509162Y-91613807D01*
X194509307Y-91600000D01*
X194490276Y-91442733D01*
X194434280Y-91294546D01*
X194417636Y-91270329D01*
X194348855Y-91170251D01*
X194348854Y-91170249D01*
X194344553Y-91163992D01*
X194226275Y-91058611D01*
X194218889Y-91054700D01*
X194117852Y-91001204D01*
X194086274Y-90984484D01*
X193932633Y-90945892D01*
X193925034Y-90945852D01*
X193925033Y-90945852D01*
X193859181Y-90945507D01*
X193774221Y-90945062D01*
X193766841Y-90946834D01*
X193766839Y-90946834D01*
X193627563Y-90980271D01*
X193627560Y-90980272D01*
X193620184Y-90982043D01*
X193479414Y-91054700D01*
X193360039Y-91158838D01*
X193268950Y-91288444D01*
X193251000Y-91334484D01*
X193221182Y-91410964D01*
X193211406Y-91436037D01*
X193210414Y-91443570D01*
X193210414Y-91443571D01*
X193192457Y-91579973D01*
X193190729Y-91593096D01*
X189074434Y-91593096D01*
X188901405Y-91420067D01*
X188867380Y-91357755D01*
X188864500Y-91330972D01*
X188864500Y-89256233D01*
X188884502Y-89188112D01*
X188938158Y-89141619D01*
X189008432Y-89131515D01*
X189073012Y-89161009D01*
X189098455Y-89194322D01*
X189099208Y-89193836D01*
X189103512Y-89200501D01*
X189106943Y-89207646D01*
X189110299Y-89211638D01*
X189112246Y-89213585D01*
X189113736Y-89215210D01*
X189113969Y-89215642D01*
X189113933Y-89215675D01*
X189114072Y-89215833D01*
X189117005Y-89221268D01*
X189124652Y-89228337D01*
X189153869Y-89255345D01*
X189157435Y-89258774D01*
X189264362Y-89365701D01*
X189298388Y-89428013D01*
X189300189Y-89471241D01*
X189290729Y-89543096D01*
X189297083Y-89600646D01*
X189306731Y-89688031D01*
X189308113Y-89700553D01*
X189310723Y-89707684D01*
X189310723Y-89707686D01*
X189354205Y-89826506D01*
X189362553Y-89849319D01*
X189366789Y-89855622D01*
X189366789Y-89855623D01*
X189439577Y-89963942D01*
X189450908Y-89980805D01*
X189456527Y-89985918D01*
X189456528Y-89985919D01*
X189511478Y-90035919D01*
X189568076Y-90087419D01*
X189707293Y-90163008D01*
X189860522Y-90203207D01*
X189944477Y-90204526D01*
X190011319Y-90205576D01*
X190011322Y-90205576D01*
X190018916Y-90205695D01*
X190173332Y-90170329D01*
X190279535Y-90116915D01*
X190308072Y-90102563D01*
X190308075Y-90102561D01*
X190314855Y-90099151D01*
X190421793Y-90007817D01*
X190486581Y-89978787D01*
X190556781Y-89989392D01*
X190588422Y-90010436D01*
X190618076Y-90037419D01*
X190757293Y-90113008D01*
X190910522Y-90153207D01*
X190994477Y-90154526D01*
X191061319Y-90155576D01*
X191061322Y-90155576D01*
X191068916Y-90155695D01*
X191223332Y-90120329D01*
X191238622Y-90112639D01*
X191259539Y-90102119D01*
X191329383Y-90089379D01*
X191395028Y-90116423D01*
X191434480Y-90171382D01*
X191464424Y-90253207D01*
X191469606Y-90267369D01*
X191473842Y-90273672D01*
X191473842Y-90273673D01*
X191549348Y-90386037D01*
X191557961Y-90398855D01*
X191563580Y-90403968D01*
X191563581Y-90403969D01*
X191669513Y-90500359D01*
X191675129Y-90505469D01*
X191814346Y-90581058D01*
X191967575Y-90621257D01*
X192051530Y-90622576D01*
X192118372Y-90623626D01*
X192118375Y-90623626D01*
X192125969Y-90623745D01*
X192280385Y-90588379D01*
X192370421Y-90543096D01*
X192415125Y-90520613D01*
X192415128Y-90520611D01*
X192421908Y-90517201D01*
X192427679Y-90512272D01*
X192427682Y-90512270D01*
X192500500Y-90450077D01*
X192565290Y-90421046D01*
X192635490Y-90431651D01*
X192667126Y-90452691D01*
X192725129Y-90505469D01*
X192864346Y-90581058D01*
X193017575Y-90621257D01*
X193101530Y-90622576D01*
X193168372Y-90623626D01*
X193168375Y-90623626D01*
X193175969Y-90623745D01*
X193330385Y-90588379D01*
X193420421Y-90543096D01*
X193465125Y-90520613D01*
X193465128Y-90520611D01*
X193471908Y-90517201D01*
X193477679Y-90512272D01*
X193477682Y-90512270D01*
X193586589Y-90419254D01*
X193586589Y-90419253D01*
X193592367Y-90414319D01*
X193684808Y-90285674D01*
X193743895Y-90138691D01*
X193761375Y-90015869D01*
X193765634Y-89985941D01*
X193765634Y-89985938D01*
X193766215Y-89981857D01*
X193766360Y-89968050D01*
X193747329Y-89810783D01*
X193691333Y-89662596D01*
X193643567Y-89593096D01*
X194040729Y-89593096D01*
X194045175Y-89633368D01*
X194054811Y-89720641D01*
X194058113Y-89750553D01*
X194060723Y-89757684D01*
X194060723Y-89757686D01*
X194103585Y-89874812D01*
X194112553Y-89899319D01*
X194116789Y-89905622D01*
X194116789Y-89905623D01*
X194187221Y-90010436D01*
X194200908Y-90030805D01*
X194206527Y-90035918D01*
X194206528Y-90035919D01*
X194295542Y-90116915D01*
X194318076Y-90137419D01*
X194457293Y-90213008D01*
X194610522Y-90253207D01*
X194694477Y-90254526D01*
X194761319Y-90255576D01*
X194761322Y-90255576D01*
X194768916Y-90255695D01*
X194923332Y-90220329D01*
X195019377Y-90172024D01*
X195058072Y-90152563D01*
X195058075Y-90152561D01*
X195064855Y-90149151D01*
X195117656Y-90104055D01*
X195182445Y-90075024D01*
X195252645Y-90085629D01*
X195284285Y-90106672D01*
X195295542Y-90116915D01*
X195318076Y-90137419D01*
X195457293Y-90213008D01*
X195610522Y-90253207D01*
X195694477Y-90254526D01*
X195761319Y-90255576D01*
X195761322Y-90255576D01*
X195768916Y-90255695D01*
X195923332Y-90220329D01*
X196019377Y-90172024D01*
X196058072Y-90152563D01*
X196058075Y-90152561D01*
X196064855Y-90149151D01*
X196070626Y-90144222D01*
X196070629Y-90144220D01*
X196179536Y-90051204D01*
X196179536Y-90051203D01*
X196185314Y-90046269D01*
X196277755Y-89917624D01*
X196336842Y-89770641D01*
X196353109Y-89656338D01*
X196358581Y-89617891D01*
X196358581Y-89617888D01*
X196359162Y-89613807D01*
X196359307Y-89600000D01*
X196340276Y-89442733D01*
X196284280Y-89294546D01*
X196227299Y-89211638D01*
X196198855Y-89170251D01*
X196198854Y-89170249D01*
X196194553Y-89163992D01*
X196076275Y-89058611D01*
X196068889Y-89054700D01*
X195942988Y-88988039D01*
X195942989Y-88988039D01*
X195936274Y-88984484D01*
X195782633Y-88945892D01*
X195775034Y-88945852D01*
X195775033Y-88945852D01*
X195709181Y-88945507D01*
X195624221Y-88945062D01*
X195616841Y-88946834D01*
X195616839Y-88946834D01*
X195477563Y-88980271D01*
X195477560Y-88980272D01*
X195470184Y-88982043D01*
X195329414Y-89054700D01*
X195323695Y-89059689D01*
X195282999Y-89095190D01*
X195218516Y-89124897D01*
X195148209Y-89115027D01*
X195116352Y-89094317D01*
X195081951Y-89063667D01*
X195081945Y-89063663D01*
X195076275Y-89058611D01*
X195068889Y-89054700D01*
X194942988Y-88988039D01*
X194942989Y-88988039D01*
X194936274Y-88984484D01*
X194782633Y-88945892D01*
X194775034Y-88945852D01*
X194775033Y-88945852D01*
X194709181Y-88945507D01*
X194624221Y-88945062D01*
X194616841Y-88946834D01*
X194616839Y-88946834D01*
X194477563Y-88980271D01*
X194477560Y-88980272D01*
X194470184Y-88982043D01*
X194329414Y-89054700D01*
X194210039Y-89158838D01*
X194118950Y-89288444D01*
X194102431Y-89330814D01*
X194065062Y-89426661D01*
X194061406Y-89436037D01*
X194060414Y-89443570D01*
X194060414Y-89443571D01*
X194046318Y-89550646D01*
X194040729Y-89593096D01*
X193643567Y-89593096D01*
X193626244Y-89567891D01*
X193605908Y-89538301D01*
X193605907Y-89538299D01*
X193601606Y-89532042D01*
X193483328Y-89426661D01*
X193475942Y-89422750D01*
X193350041Y-89356089D01*
X193350042Y-89356089D01*
X193343327Y-89352534D01*
X193304308Y-89342733D01*
X193256858Y-89330814D01*
X193195662Y-89294819D01*
X193163642Y-89231453D01*
X193161554Y-89208610D01*
X193161554Y-88318517D01*
X193181556Y-88250396D01*
X193235212Y-88203903D01*
X193305486Y-88193799D01*
X193347677Y-88207787D01*
X193357293Y-88213008D01*
X193510522Y-88253207D01*
X193594477Y-88254526D01*
X193661319Y-88255576D01*
X193661322Y-88255576D01*
X193668916Y-88255695D01*
X193823332Y-88220329D01*
X193921089Y-88171163D01*
X193958072Y-88152563D01*
X193958075Y-88152561D01*
X193964855Y-88149151D01*
X193970626Y-88144222D01*
X193970629Y-88144220D01*
X194079536Y-88051204D01*
X194079536Y-88051203D01*
X194085314Y-88046269D01*
X194177755Y-87917624D01*
X194236842Y-87770641D01*
X194249085Y-87684615D01*
X194258581Y-87617891D01*
X194258581Y-87617888D01*
X194259162Y-87613807D01*
X194259307Y-87600000D01*
X194240320Y-87443096D01*
X194640729Y-87443096D01*
X194645285Y-87484359D01*
X194652665Y-87551204D01*
X194658113Y-87600553D01*
X194660723Y-87607684D01*
X194660723Y-87607686D01*
X194709178Y-87740095D01*
X194712553Y-87749319D01*
X194716789Y-87755622D01*
X194716789Y-87755623D01*
X194770343Y-87835319D01*
X194800908Y-87880805D01*
X194806527Y-87885918D01*
X194806528Y-87885919D01*
X194885413Y-87957698D01*
X194918076Y-87987419D01*
X195057293Y-88063008D01*
X195210522Y-88103207D01*
X195294477Y-88104526D01*
X195361319Y-88105576D01*
X195361322Y-88105576D01*
X195368916Y-88105695D01*
X195523332Y-88070329D01*
X195633965Y-88014687D01*
X195658072Y-88002563D01*
X195658075Y-88002561D01*
X195664855Y-87999151D01*
X195670626Y-87994222D01*
X195670629Y-87994220D01*
X195779536Y-87901204D01*
X195779536Y-87901203D01*
X195785314Y-87896269D01*
X195877755Y-87767624D01*
X195936842Y-87620641D01*
X195957186Y-87477695D01*
X195958581Y-87467891D01*
X195958581Y-87467888D01*
X195959162Y-87463807D01*
X195959307Y-87450000D01*
X195940276Y-87292733D01*
X195884280Y-87144546D01*
X195856506Y-87104134D01*
X195798855Y-87020251D01*
X195798854Y-87020249D01*
X195794553Y-87013992D01*
X195788202Y-87008333D01*
X195719176Y-86946834D01*
X195676275Y-86908611D01*
X195668889Y-86904700D01*
X195542988Y-86838039D01*
X195542989Y-86838039D01*
X195536274Y-86834484D01*
X195382633Y-86795892D01*
X195375034Y-86795852D01*
X195375033Y-86795852D01*
X195309181Y-86795507D01*
X195224221Y-86795062D01*
X195216841Y-86796834D01*
X195216839Y-86796834D01*
X195077563Y-86830271D01*
X195077560Y-86830272D01*
X195070184Y-86832043D01*
X194929414Y-86904700D01*
X194810039Y-87008838D01*
X194718950Y-87138444D01*
X194706549Y-87170251D01*
X194666042Y-87274147D01*
X194661406Y-87286037D01*
X194660414Y-87293570D01*
X194660414Y-87293571D01*
X194643270Y-87423798D01*
X194640729Y-87443096D01*
X194240320Y-87443096D01*
X194240276Y-87442733D01*
X194184280Y-87294546D01*
X194154544Y-87251279D01*
X194098855Y-87170251D01*
X194098854Y-87170249D01*
X194094553Y-87163992D01*
X194080700Y-87151649D01*
X194019176Y-87096834D01*
X193976275Y-87058611D01*
X193968889Y-87054700D01*
X193882465Y-87008941D01*
X193836274Y-86984484D01*
X193682633Y-86945892D01*
X193675034Y-86945852D01*
X193675033Y-86945852D01*
X193609181Y-86945507D01*
X193524221Y-86945062D01*
X193516841Y-86946834D01*
X193516839Y-86946834D01*
X193377563Y-86980271D01*
X193377560Y-86980272D01*
X193370184Y-86982043D01*
X193363439Y-86985524D01*
X193363440Y-86985524D01*
X193345344Y-86994864D01*
X193275637Y-87008333D01*
X193209713Y-86981978D01*
X193168504Y-86924166D01*
X193161554Y-86882898D01*
X193161554Y-86593096D01*
X196090729Y-86593096D01*
X196093528Y-86618444D01*
X196105874Y-86730269D01*
X196108113Y-86750553D01*
X196110723Y-86757684D01*
X196110723Y-86757686D01*
X196156544Y-86882898D01*
X196162553Y-86899319D01*
X196166789Y-86905622D01*
X196166789Y-86905623D01*
X196226757Y-86994864D01*
X196250908Y-87030805D01*
X196256527Y-87035918D01*
X196256528Y-87035919D01*
X196362371Y-87132228D01*
X196368076Y-87137419D01*
X196507293Y-87213008D01*
X196660522Y-87253207D01*
X196744477Y-87254526D01*
X196811319Y-87255576D01*
X196811322Y-87255576D01*
X196818916Y-87255695D01*
X196973332Y-87220329D01*
X197085347Y-87163992D01*
X197108072Y-87152563D01*
X197108075Y-87152561D01*
X197114855Y-87149151D01*
X197120626Y-87144222D01*
X197120629Y-87144220D01*
X197229536Y-87051204D01*
X197229536Y-87051203D01*
X197235314Y-87046269D01*
X197327755Y-86917624D01*
X197386842Y-86770641D01*
X197404617Y-86645745D01*
X197408581Y-86617891D01*
X197408581Y-86617888D01*
X197409162Y-86613807D01*
X197409307Y-86600000D01*
X197390276Y-86442733D01*
X197334280Y-86294546D01*
X197244553Y-86163992D01*
X197126275Y-86058611D01*
X197118889Y-86054700D01*
X196992988Y-85988039D01*
X196992989Y-85988039D01*
X196986274Y-85984484D01*
X196832633Y-85945892D01*
X196825034Y-85945852D01*
X196825033Y-85945852D01*
X196759181Y-85945507D01*
X196674221Y-85945062D01*
X196666841Y-85946834D01*
X196666839Y-85946834D01*
X196527563Y-85980271D01*
X196527560Y-85980272D01*
X196520184Y-85982043D01*
X196379414Y-86054700D01*
X196260039Y-86158838D01*
X196168950Y-86288444D01*
X196158392Y-86315524D01*
X196119408Y-86415514D01*
X196111406Y-86436037D01*
X196110414Y-86443570D01*
X196110414Y-86443571D01*
X196094604Y-86563664D01*
X196090729Y-86593096D01*
X193161554Y-86593096D01*
X193161554Y-84593744D01*
X193839454Y-84593744D01*
X193856838Y-84751201D01*
X193859448Y-84758332D01*
X193859448Y-84758334D01*
X193902587Y-84876217D01*
X193911278Y-84899967D01*
X193999633Y-85031453D01*
X194005252Y-85036566D01*
X194005253Y-85036567D01*
X194034009Y-85062733D01*
X194116801Y-85138067D01*
X194256018Y-85213656D01*
X194409247Y-85253855D01*
X194493202Y-85255174D01*
X194560044Y-85256224D01*
X194560047Y-85256224D01*
X194567641Y-85256343D01*
X194722057Y-85220977D01*
X194792467Y-85185565D01*
X194856797Y-85153211D01*
X194856800Y-85153209D01*
X194863580Y-85149799D01*
X194869351Y-85144870D01*
X194869354Y-85144868D01*
X194978261Y-85051852D01*
X194978261Y-85051851D01*
X194984039Y-85046917D01*
X195076480Y-84918272D01*
X195135567Y-84771289D01*
X195141690Y-84728263D01*
X195157306Y-84618539D01*
X195157306Y-84618536D01*
X195157887Y-84614455D01*
X195158032Y-84600648D01*
X195139001Y-84443381D01*
X195083005Y-84295194D01*
X195014496Y-84195512D01*
X194997580Y-84170899D01*
X194997579Y-84170897D01*
X194993278Y-84164640D01*
X194983158Y-84155623D01*
X194880671Y-84064312D01*
X194875000Y-84059259D01*
X194867614Y-84055348D01*
X194750845Y-83993522D01*
X194734999Y-83985132D01*
X194581358Y-83946540D01*
X194573759Y-83946500D01*
X194573758Y-83946500D01*
X194507906Y-83946155D01*
X194422946Y-83945710D01*
X194415566Y-83947482D01*
X194415564Y-83947482D01*
X194276288Y-83980919D01*
X194276285Y-83980920D01*
X194268909Y-83982691D01*
X194128139Y-84055348D01*
X194008764Y-84159486D01*
X193917675Y-84289092D01*
X193914915Y-84296172D01*
X193874586Y-84399611D01*
X193860131Y-84436685D01*
X193859139Y-84444218D01*
X193859139Y-84444219D01*
X193841761Y-84576224D01*
X193839454Y-84593744D01*
X193161554Y-84593744D01*
X193161554Y-82293096D01*
X194590729Y-82293096D01*
X194595331Y-82334781D01*
X194606418Y-82435196D01*
X194608113Y-82450553D01*
X194610723Y-82457684D01*
X194610723Y-82457686D01*
X194659226Y-82590227D01*
X194662553Y-82599319D01*
X194666789Y-82605622D01*
X194666789Y-82605623D01*
X194741527Y-82716844D01*
X194750908Y-82730805D01*
X194756527Y-82735918D01*
X194756528Y-82735919D01*
X194862460Y-82832309D01*
X194868076Y-82837419D01*
X195007293Y-82913008D01*
X195160522Y-82953207D01*
X195244477Y-82954526D01*
X195311319Y-82955576D01*
X195311322Y-82955576D01*
X195318916Y-82955695D01*
X195473332Y-82920329D01*
X195554775Y-82879368D01*
X195608072Y-82852563D01*
X195608075Y-82852561D01*
X195614855Y-82849151D01*
X195620626Y-82844222D01*
X195620629Y-82844220D01*
X195729536Y-82751204D01*
X195729536Y-82751203D01*
X195735314Y-82746269D01*
X195755485Y-82718198D01*
X195811479Y-82674552D01*
X195882183Y-82668106D01*
X195945147Y-82700910D01*
X195976132Y-82748425D01*
X195978654Y-82755319D01*
X196010441Y-82842183D01*
X196010443Y-82842187D01*
X196013053Y-82849319D01*
X196017289Y-82855622D01*
X196017289Y-82855623D01*
X196074377Y-82940578D01*
X196101408Y-82980805D01*
X196107027Y-82985918D01*
X196107028Y-82985919D01*
X196189532Y-83060991D01*
X196218576Y-83087419D01*
X196357793Y-83163008D01*
X196511022Y-83203207D01*
X196594977Y-83204526D01*
X196661819Y-83205576D01*
X196661822Y-83205576D01*
X196669416Y-83205695D01*
X196823832Y-83170329D01*
X196894242Y-83134917D01*
X196958572Y-83102563D01*
X196958575Y-83102561D01*
X196965355Y-83099151D01*
X196971126Y-83094222D01*
X196971129Y-83094220D01*
X197080036Y-83001204D01*
X197080036Y-83001203D01*
X197085814Y-82996269D01*
X197178255Y-82867624D01*
X197237342Y-82720641D01*
X197254608Y-82599319D01*
X197259081Y-82567891D01*
X197259081Y-82567888D01*
X197259662Y-82563807D01*
X197259807Y-82550000D01*
X197240776Y-82392733D01*
X197184780Y-82244546D01*
X197169843Y-82222813D01*
X197099355Y-82120251D01*
X197099354Y-82120249D01*
X197095053Y-82113992D01*
X196976775Y-82008611D01*
X196969389Y-82004700D01*
X196843488Y-81938039D01*
X196843489Y-81938039D01*
X196836774Y-81934484D01*
X196683133Y-81895892D01*
X196675534Y-81895852D01*
X196675533Y-81895852D01*
X196609681Y-81895507D01*
X196524721Y-81895062D01*
X196517339Y-81896834D01*
X196517333Y-81896835D01*
X196474294Y-81907168D01*
X196403386Y-81903622D01*
X196345652Y-81862303D01*
X196319421Y-81796329D01*
X196333023Y-81726648D01*
X196355784Y-81695555D01*
X197594420Y-80456918D01*
X197609902Y-80444413D01*
X197613129Y-80441477D01*
X197621882Y-80435825D01*
X197641009Y-80411562D01*
X197644559Y-80407567D01*
X197644460Y-80407483D01*
X197647818Y-80403520D01*
X197651494Y-80399844D01*
X197654517Y-80395614D01*
X197661854Y-80385348D01*
X197665415Y-80380605D01*
X197688497Y-80351325D01*
X197688499Y-80351321D01*
X197694946Y-80343143D01*
X197697779Y-80335075D01*
X197702753Y-80328115D01*
X197712640Y-80295055D01*
X197716420Y-80282414D01*
X197718256Y-80276765D01*
X197731424Y-80239269D01*
X197734050Y-80231792D01*
X197734500Y-80226596D01*
X197734500Y-80223891D01*
X197734597Y-80221635D01*
X197734740Y-80221159D01*
X197734786Y-80221161D01*
X197734799Y-80220962D01*
X197736568Y-80215045D01*
X197734597Y-80164876D01*
X197734500Y-80159930D01*
X197734500Y-79306082D01*
X197754502Y-79237961D01*
X197778669Y-79210271D01*
X197859536Y-79141204D01*
X197859536Y-79141203D01*
X197865314Y-79136269D01*
X197957755Y-79007624D01*
X198016842Y-78860641D01*
X198037323Y-78716730D01*
X198038581Y-78707891D01*
X198038581Y-78707888D01*
X198039162Y-78703807D01*
X198039307Y-78690000D01*
X198020276Y-78532733D01*
X197964280Y-78384546D01*
X197920629Y-78321033D01*
X197878855Y-78260251D01*
X197878854Y-78260249D01*
X197874553Y-78253992D01*
X197756275Y-78148611D01*
X197748889Y-78144700D01*
X197651688Y-78093235D01*
X197616274Y-78074484D01*
X197462633Y-78035892D01*
X197455034Y-78035852D01*
X197455033Y-78035852D01*
X197389181Y-78035507D01*
X197304221Y-78035062D01*
X197296841Y-78036834D01*
X197296839Y-78036834D01*
X197157563Y-78070271D01*
X197157560Y-78070272D01*
X197150184Y-78072043D01*
X197009414Y-78144700D01*
X196890039Y-78248838D01*
X196798950Y-78378444D01*
X196741406Y-78526037D01*
X196740414Y-78533570D01*
X196740414Y-78533571D01*
X196739850Y-78537859D01*
X196720729Y-78683096D01*
X196738113Y-78840553D01*
X196740723Y-78847684D01*
X196740723Y-78847686D01*
X196764816Y-78913522D01*
X196792553Y-78989319D01*
X196880908Y-79120805D01*
X196886527Y-79125918D01*
X196886528Y-79125919D01*
X196984299Y-79214883D01*
X197021222Y-79275523D01*
X197025500Y-79308077D01*
X197025500Y-79970971D01*
X197005498Y-80039092D01*
X196988595Y-80060066D01*
X195437734Y-81610927D01*
X195375422Y-81644953D01*
X195335871Y-81646705D01*
X195332633Y-81645892D01*
X195325040Y-81645852D01*
X195325038Y-81645852D01*
X195254326Y-81645482D01*
X195174221Y-81645062D01*
X195166841Y-81646834D01*
X195166839Y-81646834D01*
X195027563Y-81680271D01*
X195027560Y-81680272D01*
X195020184Y-81682043D01*
X194879414Y-81754700D01*
X194760039Y-81858838D01*
X194668950Y-81988444D01*
X194648384Y-82041194D01*
X194617561Y-82120251D01*
X194611406Y-82136037D01*
X194610414Y-82143570D01*
X194610414Y-82143571D01*
X194592598Y-82278900D01*
X194590729Y-82293096D01*
X193161554Y-82293096D01*
X193161554Y-73314222D01*
X193181556Y-73246101D01*
X193235212Y-73199608D01*
X193305486Y-73189504D01*
X193347676Y-73203491D01*
G37*
%TD.AperFunction*%
%TA.AperFunction,Conductor*%
G36*
X186928044Y-57424502D02*
G01*
X186974537Y-57478158D01*
X186984641Y-57548432D01*
X186955147Y-57613012D01*
X186899799Y-57650024D01*
X186877795Y-57657365D01*
X186857002Y-57670232D01*
X186735720Y-57745284D01*
X186728186Y-57749946D01*
X186603888Y-57874462D01*
X186511568Y-58024232D01*
X186456179Y-58191223D01*
X186445532Y-58295140D01*
X186445532Y-58995396D01*
X186445869Y-58998642D01*
X186445869Y-58998646D01*
X186452981Y-59067185D01*
X186456449Y-59100611D01*
X186458630Y-59107147D01*
X186458630Y-59107149D01*
X186470606Y-59143044D01*
X186512129Y-59267505D01*
X186515985Y-59273736D01*
X186594120Y-59400000D01*
X186604710Y-59417114D01*
X186729226Y-59541412D01*
X186878996Y-59633732D01*
X186885944Y-59636037D01*
X186885945Y-59636037D01*
X187039456Y-59686955D01*
X187039458Y-59686955D01*
X187045987Y-59689121D01*
X187149904Y-59699768D01*
X187250160Y-59699768D01*
X187253406Y-59699431D01*
X187253410Y-59699431D01*
X187348517Y-59689563D01*
X187348521Y-59689562D01*
X187355375Y-59688851D01*
X187361911Y-59686670D01*
X187361913Y-59686670D01*
X187500289Y-59640504D01*
X187522269Y-59633171D01*
X187579285Y-59597888D01*
X187665652Y-59544443D01*
X187665653Y-59544442D01*
X187671878Y-59540590D01*
X187796176Y-59416074D01*
X187888496Y-59266304D01*
X187938071Y-59116842D01*
X187941719Y-59105844D01*
X187941719Y-59105842D01*
X187943885Y-59099313D01*
X187954532Y-58995396D01*
X187954532Y-58295140D01*
X187954195Y-58291890D01*
X187944327Y-58196783D01*
X187944326Y-58196779D01*
X187943615Y-58189925D01*
X187938447Y-58174433D01*
X187890253Y-58029979D01*
X187887935Y-58023031D01*
X187795354Y-57873422D01*
X187670838Y-57749124D01*
X187521068Y-57656804D01*
X187514120Y-57654499D01*
X187514117Y-57654498D01*
X187500836Y-57650093D01*
X187442476Y-57609662D01*
X187415239Y-57544098D01*
X187427772Y-57474217D01*
X187476097Y-57422205D01*
X187540503Y-57404500D01*
X195499923Y-57404500D01*
X195568044Y-57424502D01*
X195614537Y-57478158D01*
X195624641Y-57548432D01*
X195595147Y-57613012D01*
X195539799Y-57650024D01*
X195517795Y-57657365D01*
X195497002Y-57670232D01*
X195375720Y-57745284D01*
X195368186Y-57749946D01*
X195243888Y-57874462D01*
X195151568Y-58024232D01*
X195096179Y-58191223D01*
X195085532Y-58295140D01*
X195085532Y-58995396D01*
X195085869Y-58998642D01*
X195085869Y-58998646D01*
X195092981Y-59067185D01*
X195096449Y-59100611D01*
X195098630Y-59107147D01*
X195098630Y-59107149D01*
X195110606Y-59143044D01*
X195152129Y-59267505D01*
X195155985Y-59273736D01*
X195234120Y-59400000D01*
X195244710Y-59417114D01*
X195369226Y-59541412D01*
X195518996Y-59633732D01*
X195525944Y-59636037D01*
X195525945Y-59636037D01*
X195679456Y-59686955D01*
X195679458Y-59686955D01*
X195685987Y-59689121D01*
X195789904Y-59699768D01*
X195890160Y-59699768D01*
X195893406Y-59699431D01*
X195893410Y-59699431D01*
X195988517Y-59689563D01*
X195988521Y-59689562D01*
X195995375Y-59688851D01*
X196001911Y-59686670D01*
X196001913Y-59686670D01*
X196140289Y-59640504D01*
X196162269Y-59633171D01*
X196219285Y-59597888D01*
X196305652Y-59544443D01*
X196305653Y-59544442D01*
X196311878Y-59540590D01*
X196436176Y-59416074D01*
X196528496Y-59266304D01*
X196578071Y-59116842D01*
X196581719Y-59105844D01*
X196581719Y-59105842D01*
X196583885Y-59099313D01*
X196594532Y-58995396D01*
X196594532Y-58295140D01*
X196594195Y-58291890D01*
X196584327Y-58196783D01*
X196584326Y-58196779D01*
X196583615Y-58189925D01*
X196578447Y-58174433D01*
X196530253Y-58029979D01*
X196527935Y-58023031D01*
X196435354Y-57873422D01*
X196310838Y-57749124D01*
X196161068Y-57656804D01*
X196154120Y-57654499D01*
X196154117Y-57654498D01*
X196140836Y-57650093D01*
X196082476Y-57609662D01*
X196055239Y-57544098D01*
X196067772Y-57474217D01*
X196116097Y-57422205D01*
X196180503Y-57404500D01*
X201892524Y-57404500D01*
X201917103Y-57406921D01*
X201930000Y-57409486D01*
X201942172Y-57407065D01*
X201954580Y-57407065D01*
X201954580Y-57407385D01*
X201965456Y-57406645D01*
X201998145Y-57408622D01*
X202197880Y-57420704D01*
X202212984Y-57422538D01*
X202469458Y-57469538D01*
X202484231Y-57473179D01*
X202733180Y-57550755D01*
X202747398Y-57556147D01*
X202985182Y-57663165D01*
X202998638Y-57670227D01*
X203137705Y-57754296D01*
X203221788Y-57805126D01*
X203234308Y-57813768D01*
X203331427Y-57889856D01*
X203439573Y-57974583D01*
X203450961Y-57984673D01*
X203635327Y-58169039D01*
X203645417Y-58180427D01*
X203806231Y-58385690D01*
X203814873Y-58398211D01*
X203949773Y-58621362D01*
X203956835Y-58634818D01*
X204063851Y-58872598D01*
X204069245Y-58886820D01*
X204103079Y-58995396D01*
X204146821Y-59135769D01*
X204150462Y-59150542D01*
X204197462Y-59407016D01*
X204199296Y-59422120D01*
X204213355Y-59654544D01*
X204212615Y-59665420D01*
X204212935Y-59665420D01*
X204212935Y-59677828D01*
X204210514Y-59690000D01*
X204212935Y-59702170D01*
X204213079Y-59702894D01*
X204215500Y-59727476D01*
X204215500Y-64606959D01*
X204195498Y-64675080D01*
X204141842Y-64721573D01*
X204089003Y-64732958D01*
X196714898Y-64703863D01*
X196646857Y-64683592D01*
X196600576Y-64629754D01*
X196594328Y-64607323D01*
X196593000Y-64607649D01*
X196591189Y-64600274D01*
X196590276Y-64592733D01*
X196534280Y-64444546D01*
X196444553Y-64313992D01*
X196326275Y-64208611D01*
X196326653Y-64208186D01*
X196285419Y-64156968D01*
X196277864Y-64086375D01*
X196312676Y-64019790D01*
X196436176Y-63896074D01*
X196528496Y-63746304D01*
X196583885Y-63579313D01*
X196594532Y-63475396D01*
X196594532Y-62443096D01*
X197140729Y-62443096D01*
X197144147Y-62474052D01*
X197152665Y-62551204D01*
X197158113Y-62600553D01*
X197160723Y-62607684D01*
X197160723Y-62607686D01*
X197202565Y-62722024D01*
X197212553Y-62749319D01*
X197300908Y-62880805D01*
X197306527Y-62885918D01*
X197306528Y-62885919D01*
X197317463Y-62895869D01*
X197418076Y-62987419D01*
X197557293Y-63063008D01*
X197710522Y-63103207D01*
X197794477Y-63104526D01*
X197861319Y-63105576D01*
X197861322Y-63105576D01*
X197868916Y-63105695D01*
X198023332Y-63070329D01*
X198093742Y-63034917D01*
X198158072Y-63002563D01*
X198158075Y-63002561D01*
X198164855Y-62999151D01*
X198170626Y-62994222D01*
X198170629Y-62994220D01*
X198279536Y-62901204D01*
X198279536Y-62901203D01*
X198285314Y-62896269D01*
X198377755Y-62767624D01*
X198436842Y-62620641D01*
X198449627Y-62530805D01*
X198458581Y-62467891D01*
X198458581Y-62467888D01*
X198459162Y-62463807D01*
X198459307Y-62450000D01*
X198457531Y-62435319D01*
X198453011Y-62397971D01*
X198440276Y-62292733D01*
X198384280Y-62144546D01*
X198356506Y-62104134D01*
X198348920Y-62093096D01*
X199290729Y-62093096D01*
X199308113Y-62250553D01*
X199310723Y-62257684D01*
X199310723Y-62257686D01*
X199346125Y-62354426D01*
X199362553Y-62399319D01*
X199366789Y-62405622D01*
X199366789Y-62405623D01*
X199429418Y-62498824D01*
X199450908Y-62530805D01*
X199456527Y-62535918D01*
X199456528Y-62535919D01*
X199562460Y-62632309D01*
X199568076Y-62637419D01*
X199707293Y-62713008D01*
X199860522Y-62753207D01*
X199944477Y-62754526D01*
X200011319Y-62755576D01*
X200011322Y-62755576D01*
X200018916Y-62755695D01*
X200173332Y-62720329D01*
X200243742Y-62684917D01*
X200308072Y-62652563D01*
X200308075Y-62652561D01*
X200314855Y-62649151D01*
X200320626Y-62644222D01*
X200320629Y-62644220D01*
X200429536Y-62551204D01*
X200429536Y-62551203D01*
X200435314Y-62546269D01*
X200527755Y-62417624D01*
X200586842Y-62270641D01*
X200600896Y-62171890D01*
X200608581Y-62117891D01*
X200608581Y-62117888D01*
X200609162Y-62113807D01*
X200609307Y-62100000D01*
X200606498Y-62076783D01*
X200600689Y-62028782D01*
X200590276Y-61942733D01*
X200534280Y-61794546D01*
X200444553Y-61663992D01*
X200326275Y-61558611D01*
X200318889Y-61554700D01*
X200192988Y-61488039D01*
X200192989Y-61488039D01*
X200186274Y-61484484D01*
X200032633Y-61445892D01*
X200025034Y-61445852D01*
X200025033Y-61445852D01*
X199959181Y-61445507D01*
X199874221Y-61445062D01*
X199866841Y-61446834D01*
X199866839Y-61446834D01*
X199727563Y-61480271D01*
X199727560Y-61480272D01*
X199720184Y-61482043D01*
X199579414Y-61554700D01*
X199460039Y-61658838D01*
X199368950Y-61788444D01*
X199351721Y-61832634D01*
X199321566Y-61909979D01*
X199311406Y-61936037D01*
X199310414Y-61943570D01*
X199310414Y-61943571D01*
X199292877Y-62076783D01*
X199290729Y-62093096D01*
X198348920Y-62093096D01*
X198298855Y-62020251D01*
X198298854Y-62020249D01*
X198294553Y-62013992D01*
X198176275Y-61908611D01*
X198168889Y-61904700D01*
X198042988Y-61838039D01*
X198042989Y-61838039D01*
X198036274Y-61834484D01*
X197882633Y-61795892D01*
X197875034Y-61795852D01*
X197875033Y-61795852D01*
X197809181Y-61795507D01*
X197724221Y-61795062D01*
X197716841Y-61796834D01*
X197716839Y-61796834D01*
X197577563Y-61830271D01*
X197577560Y-61830272D01*
X197570184Y-61832043D01*
X197429414Y-61904700D01*
X197310039Y-62008838D01*
X197218950Y-62138444D01*
X197190178Y-62212240D01*
X197167409Y-62270641D01*
X197161406Y-62286037D01*
X197160414Y-62293570D01*
X197160414Y-62293571D01*
X197141753Y-62435319D01*
X197140729Y-62443096D01*
X196594532Y-62443096D01*
X196594532Y-62175140D01*
X196591358Y-62144546D01*
X196584327Y-62076783D01*
X196584326Y-62076779D01*
X196583615Y-62069925D01*
X196564955Y-62013992D01*
X196530253Y-61909979D01*
X196527935Y-61903031D01*
X196461408Y-61795524D01*
X196439207Y-61759648D01*
X196439206Y-61759647D01*
X196435354Y-61753422D01*
X196310838Y-61629124D01*
X196161068Y-61536804D01*
X196014048Y-61488039D01*
X196000608Y-61483581D01*
X196000606Y-61483581D01*
X195994077Y-61481415D01*
X195890160Y-61470768D01*
X195789904Y-61470768D01*
X195786658Y-61471105D01*
X195786654Y-61471105D01*
X195691547Y-61480973D01*
X195691543Y-61480974D01*
X195684689Y-61481685D01*
X195678153Y-61483866D01*
X195678151Y-61483866D01*
X195539775Y-61530032D01*
X195517795Y-61537365D01*
X195511563Y-61541221D01*
X195511564Y-61541221D01*
X195375720Y-61625284D01*
X195368186Y-61629946D01*
X195243888Y-61754462D01*
X195151568Y-61904232D01*
X195149263Y-61911180D01*
X195149263Y-61911181D01*
X195108428Y-62034295D01*
X195096179Y-62071223D01*
X195085532Y-62175140D01*
X195085532Y-63475396D01*
X195085869Y-63478642D01*
X195085869Y-63478646D01*
X195094490Y-63561727D01*
X195096449Y-63580611D01*
X195152129Y-63747505D01*
X195244710Y-63897114D01*
X195369226Y-64021412D01*
X195469886Y-64083460D01*
X195517378Y-64136231D01*
X195528802Y-64206303D01*
X195500528Y-64271427D01*
X195486599Y-64285668D01*
X195460039Y-64308838D01*
X195368950Y-64438444D01*
X195366190Y-64445524D01*
X195314312Y-64578584D01*
X195311406Y-64586037D01*
X195310414Y-64593570D01*
X195308526Y-64600925D01*
X195305824Y-64600231D01*
X195282380Y-64653213D01*
X195223111Y-64692299D01*
X195185692Y-64697829D01*
X194998326Y-64697090D01*
X193886768Y-64692705D01*
X193882707Y-64692689D01*
X193847673Y-64697090D01*
X193820549Y-64700497D01*
X193820545Y-64700498D01*
X193816507Y-64701005D01*
X193754313Y-64717143D01*
X193752054Y-64717915D01*
X193725448Y-64727005D01*
X193725446Y-64727006D01*
X193717336Y-64729777D01*
X193633824Y-64787028D01*
X193629501Y-64791455D01*
X193629494Y-64791461D01*
X193599755Y-64821917D01*
X193537852Y-64856682D01*
X193478910Y-64856093D01*
X193433939Y-64844797D01*
X193426340Y-64844757D01*
X193426339Y-64844757D01*
X193360487Y-64844412D01*
X193275527Y-64843967D01*
X193268147Y-64845739D01*
X193268145Y-64845739D01*
X193128869Y-64879176D01*
X193128866Y-64879177D01*
X193121490Y-64880948D01*
X192980720Y-64953605D01*
X192861345Y-65057743D01*
X192770256Y-65187349D01*
X192767496Y-65194429D01*
X192729167Y-65292738D01*
X192712712Y-65334942D01*
X192711720Y-65342475D01*
X192711720Y-65342476D01*
X192697020Y-65454139D01*
X192692035Y-65492001D01*
X192692869Y-65499551D01*
X192707017Y-65627700D01*
X192709419Y-65649458D01*
X192712029Y-65656589D01*
X192712029Y-65656591D01*
X192759386Y-65786000D01*
X192763859Y-65798224D01*
X192768095Y-65804527D01*
X192768095Y-65804528D01*
X192819355Y-65880810D01*
X192852214Y-65929710D01*
X192857833Y-65934823D01*
X192857834Y-65934824D01*
X192932284Y-66002568D01*
X192969382Y-66036324D01*
X193108599Y-66111913D01*
X193261828Y-66152112D01*
X193336104Y-66153279D01*
X193372016Y-66153843D01*
X193439814Y-66174912D01*
X193485459Y-66229291D01*
X193496036Y-66279302D01*
X193500220Y-67283402D01*
X193501127Y-67501081D01*
X193509039Y-69400000D01*
X193513627Y-70501081D01*
X193516372Y-71160000D01*
X193519490Y-71908031D01*
X193519578Y-71929263D01*
X193499860Y-71997466D01*
X193451369Y-72041754D01*
X193345344Y-72096478D01*
X193275637Y-72109947D01*
X193209713Y-72083592D01*
X193168504Y-72025780D01*
X193161554Y-71984512D01*
X193161554Y-70290111D01*
X193163660Y-70270317D01*
X193163865Y-70265964D01*
X193166057Y-70255784D01*
X193162427Y-70225114D01*
X193162112Y-70219771D01*
X193161982Y-70219782D01*
X193161554Y-70214602D01*
X193161554Y-70209403D01*
X193160701Y-70204279D01*
X193160700Y-70204266D01*
X193158627Y-70191813D01*
X193157790Y-70185938D01*
X193153409Y-70148925D01*
X193152185Y-70138584D01*
X193148484Y-70130876D01*
X193147079Y-70122437D01*
X193124425Y-70080453D01*
X193121744Y-70075190D01*
X193112743Y-70056446D01*
X193101099Y-70032196D01*
X193097743Y-70028204D01*
X193095796Y-70026257D01*
X193094306Y-70024632D01*
X193094073Y-70024200D01*
X193094109Y-70024167D01*
X193093970Y-70024009D01*
X193091037Y-70018574D01*
X193054173Y-69984497D01*
X193050633Y-69981094D01*
X192087683Y-69018145D01*
X192053659Y-68955834D01*
X192050779Y-68929051D01*
X192050779Y-68199232D01*
X192070781Y-68131111D01*
X192124437Y-68084618D01*
X192148650Y-68076412D01*
X192212206Y-68061856D01*
X192212208Y-68061855D01*
X192219610Y-68060160D01*
X192290020Y-68024748D01*
X192354350Y-67992394D01*
X192354353Y-67992392D01*
X192361133Y-67988982D01*
X192366904Y-67984053D01*
X192366907Y-67984051D01*
X192475814Y-67891035D01*
X192475814Y-67891034D01*
X192481592Y-67886100D01*
X192574033Y-67757455D01*
X192633120Y-67610472D01*
X192648688Y-67501081D01*
X192654859Y-67457722D01*
X192654859Y-67457719D01*
X192655440Y-67453638D01*
X192655585Y-67439831D01*
X192636554Y-67282564D01*
X192580558Y-67134377D01*
X192490831Y-67003823D01*
X192372553Y-66898442D01*
X192365167Y-66894531D01*
X192239266Y-66827870D01*
X192239267Y-66827870D01*
X192232552Y-66824315D01*
X192078911Y-66785723D01*
X192071312Y-66785683D01*
X192071311Y-66785683D01*
X192005459Y-66785338D01*
X191920499Y-66784893D01*
X191913119Y-66786665D01*
X191913117Y-66786665D01*
X191773841Y-66820102D01*
X191773838Y-66820103D01*
X191766462Y-66821874D01*
X191625692Y-66894531D01*
X191619975Y-66899518D01*
X191619968Y-66899523D01*
X191554014Y-66957059D01*
X191489532Y-66986767D01*
X191419225Y-66976897D01*
X191387367Y-66956187D01*
X191328229Y-66903498D01*
X191328223Y-66903494D01*
X191322553Y-66898442D01*
X191315167Y-66894531D01*
X191189266Y-66827870D01*
X191189267Y-66827870D01*
X191182552Y-66824315D01*
X191028911Y-66785723D01*
X191021312Y-66785683D01*
X191021311Y-66785683D01*
X190955459Y-66785338D01*
X190870499Y-66784893D01*
X190863119Y-66786665D01*
X190863117Y-66786665D01*
X190723841Y-66820102D01*
X190723838Y-66820103D01*
X190716462Y-66821874D01*
X190575692Y-66894531D01*
X190456317Y-66998669D01*
X190365228Y-67128275D01*
X190307684Y-67275868D01*
X190306692Y-67283401D01*
X190306692Y-67283402D01*
X190288111Y-67424542D01*
X190287007Y-67432927D01*
X190293617Y-67492794D01*
X190301376Y-67563078D01*
X190288970Y-67632983D01*
X190240740Y-67685083D01*
X190172000Y-67702837D01*
X190145443Y-67699109D01*
X190140007Y-67697744D01*
X190140005Y-67697744D01*
X190132633Y-67695892D01*
X190125034Y-67695852D01*
X190125033Y-67695852D01*
X190059181Y-67695507D01*
X189974221Y-67695062D01*
X189966841Y-67696834D01*
X189966839Y-67696834D01*
X189827563Y-67730271D01*
X189827560Y-67730272D01*
X189820184Y-67732043D01*
X189679414Y-67804700D01*
X189560039Y-67908838D01*
X189468950Y-68038444D01*
X189411406Y-68186037D01*
X189410414Y-68193570D01*
X189410414Y-68193571D01*
X189392980Y-68326000D01*
X189390729Y-68343096D01*
X189391563Y-68350647D01*
X189393887Y-68371702D01*
X189381481Y-68441606D01*
X189333251Y-68493706D01*
X189264510Y-68511460D01*
X189209692Y-68496883D01*
X189186274Y-68484484D01*
X189032633Y-68445892D01*
X189025034Y-68445852D01*
X189025033Y-68445852D01*
X188959181Y-68445507D01*
X188874221Y-68445062D01*
X188866841Y-68446834D01*
X188866839Y-68446834D01*
X188727563Y-68480271D01*
X188727560Y-68480272D01*
X188720184Y-68482043D01*
X188579414Y-68554700D01*
X188460039Y-68658838D01*
X188368950Y-68788444D01*
X188311406Y-68936037D01*
X188310414Y-68943570D01*
X188310414Y-68943571D01*
X188302459Y-69003999D01*
X188290729Y-69093096D01*
X188308113Y-69250553D01*
X188310723Y-69257684D01*
X188310723Y-69257686D01*
X188336533Y-69328214D01*
X188362553Y-69399319D01*
X188366789Y-69405622D01*
X188366789Y-69405623D01*
X188383771Y-69430894D01*
X188450908Y-69530805D01*
X188456527Y-69535918D01*
X188456528Y-69535919D01*
X188494542Y-69570509D01*
X188568076Y-69637419D01*
X188707293Y-69713008D01*
X188860522Y-69753207D01*
X188944477Y-69754526D01*
X189011319Y-69755576D01*
X189011322Y-69755576D01*
X189018916Y-69755695D01*
X189173332Y-69720329D01*
X189243742Y-69684917D01*
X189308072Y-69652563D01*
X189308075Y-69652561D01*
X189314855Y-69649151D01*
X189320626Y-69644222D01*
X189320629Y-69644220D01*
X189429536Y-69551204D01*
X189429536Y-69551203D01*
X189435314Y-69546269D01*
X189527755Y-69417624D01*
X189586842Y-69270641D01*
X189609162Y-69113807D01*
X189609307Y-69100000D01*
X189606967Y-69080665D01*
X189618642Y-69010635D01*
X189666325Y-68958034D01*
X189734876Y-68939563D01*
X189792178Y-68954801D01*
X189807293Y-68963008D01*
X189960522Y-69003207D01*
X190044477Y-69004526D01*
X190111319Y-69005576D01*
X190111322Y-69005576D01*
X190118916Y-69005695D01*
X190273332Y-68970329D01*
X190355592Y-68928957D01*
X190408072Y-68902563D01*
X190408075Y-68902561D01*
X190414855Y-68899151D01*
X190420626Y-68894222D01*
X190420629Y-68894220D01*
X190529536Y-68801204D01*
X190529536Y-68801203D01*
X190535314Y-68796269D01*
X190627755Y-68667624D01*
X190648870Y-68615099D01*
X190692837Y-68559355D01*
X190759962Y-68536230D01*
X190828933Y-68553067D01*
X190877853Y-68604520D01*
X190891777Y-68662096D01*
X190891777Y-69263220D01*
X190889671Y-69283014D01*
X190889466Y-69287367D01*
X190887274Y-69297547D01*
X190888498Y-69307885D01*
X190890904Y-69328214D01*
X190891219Y-69333560D01*
X190891349Y-69333549D01*
X190891777Y-69338729D01*
X190891777Y-69343928D01*
X190892630Y-69349052D01*
X190892631Y-69349065D01*
X190894704Y-69361518D01*
X190895541Y-69367393D01*
X190899922Y-69404406D01*
X190901146Y-69414747D01*
X190904847Y-69422455D01*
X190906252Y-69430894D01*
X190928906Y-69472878D01*
X190931587Y-69478141D01*
X190952232Y-69521135D01*
X190955588Y-69525127D01*
X190957535Y-69527074D01*
X190959025Y-69528699D01*
X190959258Y-69529131D01*
X190959222Y-69529164D01*
X190959361Y-69529322D01*
X190962294Y-69534757D01*
X190969941Y-69541826D01*
X190999158Y-69568834D01*
X191002698Y-69572237D01*
X191965648Y-70535186D01*
X191999672Y-70597497D01*
X192002552Y-70624280D01*
X192002552Y-79015958D01*
X191982550Y-79084079D01*
X191928894Y-79130572D01*
X191858620Y-79140676D01*
X191837667Y-79135221D01*
X191836274Y-79134484D01*
X191828912Y-79132635D01*
X191828910Y-79132634D01*
X191690002Y-79097743D01*
X191682633Y-79095892D01*
X191675034Y-79095852D01*
X191675033Y-79095852D01*
X191609181Y-79095507D01*
X191524221Y-79095062D01*
X191516841Y-79096834D01*
X191516839Y-79096834D01*
X191377563Y-79130271D01*
X191377560Y-79130272D01*
X191370184Y-79132043D01*
X191229414Y-79204700D01*
X191110039Y-79308838D01*
X191018950Y-79438444D01*
X190996423Y-79496224D01*
X190965902Y-79574506D01*
X190961406Y-79586037D01*
X190960414Y-79593570D01*
X190960414Y-79593571D01*
X190944453Y-79714812D01*
X190940729Y-79743096D01*
X190946453Y-79794942D01*
X190952188Y-79846883D01*
X190958113Y-79900553D01*
X190960723Y-79907684D01*
X190960723Y-79907686D01*
X191002981Y-80023161D01*
X191012553Y-80049319D01*
X191016789Y-80055622D01*
X191016789Y-80055623D01*
X191086881Y-80159930D01*
X191100908Y-80180805D01*
X191106527Y-80185918D01*
X191106528Y-80185919D01*
X191195586Y-80266955D01*
X191218076Y-80287419D01*
X191357293Y-80363008D01*
X191510522Y-80403207D01*
X191594477Y-80404526D01*
X191661319Y-80405576D01*
X191661322Y-80405576D01*
X191668916Y-80405695D01*
X191823332Y-80370329D01*
X191830118Y-80366916D01*
X191833871Y-80365565D01*
X191904740Y-80361309D01*
X191966659Y-80396044D01*
X191999970Y-80458741D01*
X192002552Y-80484116D01*
X192002552Y-81552128D01*
X191982550Y-81620249D01*
X191928894Y-81666742D01*
X191858620Y-81676846D01*
X191845862Y-81674333D01*
X191732633Y-81645892D01*
X191725034Y-81645852D01*
X191725033Y-81645852D01*
X191659181Y-81645507D01*
X191574221Y-81645062D01*
X191566841Y-81646834D01*
X191566839Y-81646834D01*
X191427563Y-81680271D01*
X191427560Y-81680272D01*
X191420184Y-81682043D01*
X191279414Y-81754700D01*
X191160039Y-81858838D01*
X191068950Y-81988444D01*
X191048384Y-82041194D01*
X191017561Y-82120251D01*
X191011406Y-82136037D01*
X191010414Y-82143570D01*
X191010414Y-82143571D01*
X190992598Y-82278900D01*
X190990729Y-82293096D01*
X190995331Y-82334781D01*
X191006418Y-82435196D01*
X191008113Y-82450553D01*
X191010723Y-82457684D01*
X191010723Y-82457686D01*
X191059226Y-82590227D01*
X191062553Y-82599319D01*
X191066789Y-82605622D01*
X191066789Y-82605623D01*
X191141527Y-82716844D01*
X191150908Y-82730805D01*
X191156527Y-82735918D01*
X191156528Y-82735919D01*
X191262460Y-82832309D01*
X191268076Y-82837419D01*
X191407293Y-82913008D01*
X191560522Y-82953207D01*
X191644477Y-82954526D01*
X191711319Y-82955576D01*
X191711322Y-82955576D01*
X191718916Y-82955695D01*
X191848423Y-82926034D01*
X191919289Y-82930323D01*
X191976587Y-82972245D01*
X192002125Y-83038490D01*
X192002552Y-83048854D01*
X192002552Y-89208673D01*
X191982550Y-89276794D01*
X191928894Y-89323287D01*
X191905967Y-89331191D01*
X191888002Y-89335505D01*
X191834616Y-89348321D01*
X191834613Y-89348322D01*
X191827237Y-89350093D01*
X191820495Y-89353573D01*
X191820489Y-89353575D01*
X191798782Y-89364779D01*
X191729075Y-89378248D01*
X191663152Y-89351892D01*
X191623127Y-89297351D01*
X191622171Y-89294819D01*
X191584280Y-89194546D01*
X191561231Y-89161009D01*
X191498855Y-89070251D01*
X191498854Y-89070249D01*
X191494553Y-89063992D01*
X191488514Y-89058611D01*
X191428403Y-89005055D01*
X191376275Y-88958611D01*
X191350686Y-88945062D01*
X191242988Y-88888039D01*
X191242989Y-88888039D01*
X191236274Y-88884484D01*
X191082633Y-88845892D01*
X191083117Y-88843965D01*
X191027424Y-88819673D01*
X191019201Y-88812147D01*
X190164752Y-87957698D01*
X190130726Y-87895386D01*
X190135791Y-87824571D01*
X190178338Y-87767735D01*
X190244858Y-87742924D01*
X190285820Y-87746727D01*
X190303170Y-87751279D01*
X190303176Y-87751280D01*
X190310522Y-87753207D01*
X190394477Y-87754526D01*
X190461319Y-87755576D01*
X190461322Y-87755576D01*
X190468916Y-87755695D01*
X190623332Y-87720329D01*
X190694342Y-87684615D01*
X190758072Y-87652563D01*
X190758075Y-87652561D01*
X190764855Y-87649151D01*
X190770626Y-87644222D01*
X190770629Y-87644220D01*
X190879536Y-87551204D01*
X190879536Y-87551203D01*
X190885314Y-87546269D01*
X190977755Y-87417624D01*
X191036842Y-87270641D01*
X191052020Y-87163992D01*
X191058581Y-87117891D01*
X191058581Y-87117888D01*
X191059162Y-87113807D01*
X191059307Y-87100000D01*
X191058505Y-87093368D01*
X191052058Y-87040095D01*
X191040276Y-86942733D01*
X190984280Y-86794546D01*
X190964686Y-86766037D01*
X190898855Y-86670251D01*
X190898854Y-86670249D01*
X190894553Y-86663992D01*
X190776275Y-86558611D01*
X190636274Y-86484484D01*
X190482633Y-86445892D01*
X190475034Y-86445852D01*
X190475033Y-86445852D01*
X190409181Y-86445507D01*
X190324221Y-86445062D01*
X190316841Y-86446834D01*
X190316839Y-86446834D01*
X190260413Y-86460381D01*
X190189505Y-86456834D01*
X190131771Y-86415514D01*
X190105541Y-86349541D01*
X190104999Y-86337862D01*
X190104999Y-83601757D01*
X190107105Y-83581963D01*
X190107310Y-83577610D01*
X190109502Y-83567430D01*
X190105872Y-83536761D01*
X190105557Y-83531416D01*
X190105427Y-83531427D01*
X190104999Y-83526249D01*
X190104999Y-83521048D01*
X190102072Y-83503462D01*
X190101235Y-83497585D01*
X190096854Y-83460570D01*
X190095630Y-83450229D01*
X190091929Y-83442521D01*
X190090524Y-83434082D01*
X190067879Y-83392114D01*
X190065183Y-83386823D01*
X190047973Y-83350982D01*
X190047971Y-83350979D01*
X190044544Y-83343842D01*
X190041188Y-83339849D01*
X190039262Y-83337923D01*
X190037749Y-83336273D01*
X190037513Y-83335837D01*
X190037548Y-83335805D01*
X190037415Y-83335654D01*
X190034482Y-83330219D01*
X189997618Y-83296142D01*
X189994052Y-83292713D01*
X188410107Y-81708768D01*
X188376081Y-81646456D01*
X188381146Y-81575641D01*
X188423693Y-81518805D01*
X188490213Y-81493994D01*
X188501181Y-81493689D01*
X188621318Y-81495576D01*
X188621321Y-81495576D01*
X188628916Y-81495695D01*
X188783332Y-81460329D01*
X188859917Y-81421811D01*
X188918072Y-81392563D01*
X188918075Y-81392561D01*
X188924855Y-81389151D01*
X188930626Y-81384222D01*
X188930629Y-81384220D01*
X189039536Y-81291204D01*
X189039536Y-81291203D01*
X189045314Y-81286269D01*
X189137755Y-81157624D01*
X189196842Y-81010641D01*
X189214289Y-80888046D01*
X189218581Y-80857891D01*
X189218581Y-80857888D01*
X189219162Y-80853807D01*
X189219307Y-80840000D01*
X189200276Y-80682733D01*
X189144280Y-80534546D01*
X189090928Y-80456918D01*
X189058855Y-80410251D01*
X189058854Y-80410249D01*
X189054553Y-80403992D01*
X189046597Y-80396903D01*
X188986257Y-80343143D01*
X188936275Y-80298611D01*
X188928889Y-80294700D01*
X188802988Y-80228039D01*
X188802989Y-80228039D01*
X188796274Y-80224484D01*
X188642633Y-80185892D01*
X188635034Y-80185852D01*
X188635033Y-80185852D01*
X188569181Y-80185507D01*
X188484221Y-80185062D01*
X188476841Y-80186834D01*
X188476839Y-80186834D01*
X188337563Y-80220271D01*
X188337560Y-80220272D01*
X188330184Y-80222043D01*
X188189414Y-80294700D01*
X188070039Y-80398838D01*
X187978950Y-80528444D01*
X187936092Y-80638369D01*
X187928949Y-80656690D01*
X187885568Y-80712891D01*
X187818689Y-80736718D01*
X187780861Y-80733124D01*
X187640004Y-80697743D01*
X187640000Y-80697743D01*
X187632633Y-80695892D01*
X187625034Y-80695852D01*
X187625033Y-80695852D01*
X187559181Y-80695507D01*
X187474221Y-80695062D01*
X187466841Y-80696834D01*
X187466839Y-80696834D01*
X187327563Y-80730271D01*
X187327560Y-80730272D01*
X187320184Y-80732043D01*
X187179414Y-80804700D01*
X187060039Y-80908838D01*
X187055672Y-80915051D01*
X187055667Y-80915057D01*
X186991284Y-81006664D01*
X186935750Y-81050896D01*
X186865118Y-81058081D01*
X186838502Y-81048798D01*
X186838297Y-81049331D01*
X186831210Y-81046610D01*
X186824495Y-81043055D01*
X186670854Y-81004463D01*
X186663255Y-81004423D01*
X186663254Y-81004423D01*
X186597402Y-81004078D01*
X186512442Y-81003633D01*
X186505062Y-81005405D01*
X186505060Y-81005405D01*
X186365784Y-81038842D01*
X186365781Y-81038843D01*
X186358405Y-81040614D01*
X186217635Y-81113271D01*
X186098260Y-81217409D01*
X186093892Y-81223623D01*
X186093891Y-81223625D01*
X186068852Y-81259251D01*
X186013317Y-81303482D01*
X185942685Y-81310667D01*
X185920609Y-81304429D01*
X185916988Y-81303039D01*
X185910274Y-81299484D01*
X185756633Y-81260892D01*
X185749034Y-81260852D01*
X185749033Y-81260852D01*
X185683181Y-81260507D01*
X185598221Y-81260062D01*
X185590841Y-81261834D01*
X185590839Y-81261834D01*
X185451563Y-81295271D01*
X185451560Y-81295272D01*
X185444184Y-81297043D01*
X185303414Y-81369700D01*
X185213939Y-81447755D01*
X185213330Y-81448286D01*
X185148848Y-81477994D01*
X185078540Y-81468125D01*
X185024730Y-81421811D01*
X185004500Y-81353337D01*
X185004500Y-78399029D01*
X185024502Y-78330908D01*
X185041405Y-78309934D01*
X186269243Y-77082096D01*
X187554729Y-77082096D01*
X187562910Y-77156193D01*
X187571083Y-77230221D01*
X187572113Y-77239553D01*
X187574723Y-77246684D01*
X187574723Y-77246686D01*
X187594419Y-77300507D01*
X187626553Y-77388319D01*
X187714908Y-77519805D01*
X187720527Y-77524918D01*
X187720528Y-77524919D01*
X187731903Y-77535269D01*
X187832076Y-77626419D01*
X187971293Y-77702008D01*
X188124522Y-77742207D01*
X188208477Y-77743526D01*
X188275319Y-77744576D01*
X188275322Y-77744576D01*
X188282916Y-77744695D01*
X188437332Y-77709329D01*
X188518385Y-77668564D01*
X188572072Y-77641563D01*
X188572075Y-77641561D01*
X188578855Y-77638151D01*
X188584626Y-77633222D01*
X188584629Y-77633220D01*
X188693536Y-77540204D01*
X188693536Y-77540203D01*
X188699314Y-77535269D01*
X188791755Y-77406624D01*
X188850842Y-77259641D01*
X188862915Y-77174812D01*
X188872581Y-77106891D01*
X188872581Y-77106888D01*
X188873162Y-77102807D01*
X188873307Y-77089000D01*
X188870430Y-77065221D01*
X188867598Y-77041819D01*
X188854276Y-76931733D01*
X188798280Y-76783546D01*
X188708553Y-76652992D01*
X188590275Y-76547611D01*
X188582889Y-76543700D01*
X188456988Y-76477039D01*
X188456989Y-76477039D01*
X188450274Y-76473484D01*
X188296633Y-76434892D01*
X188289034Y-76434852D01*
X188289033Y-76434852D01*
X188223181Y-76434507D01*
X188138221Y-76434062D01*
X188130841Y-76435834D01*
X188130839Y-76435834D01*
X187991563Y-76469271D01*
X187991560Y-76469272D01*
X187984184Y-76471043D01*
X187843414Y-76543700D01*
X187724039Y-76647838D01*
X187632950Y-76777444D01*
X187612050Y-76831050D01*
X187580929Y-76910872D01*
X187575406Y-76925037D01*
X187574414Y-76932570D01*
X187574414Y-76932571D01*
X187555881Y-77073348D01*
X187554729Y-77082096D01*
X186269243Y-77082096D01*
X187414423Y-75936916D01*
X187429909Y-75924408D01*
X187433134Y-75921474D01*
X187441882Y-75915825D01*
X187461003Y-75891570D01*
X187464563Y-75887565D01*
X187464463Y-75887480D01*
X187467816Y-75883523D01*
X187471495Y-75879844D01*
X187481876Y-75865318D01*
X187485440Y-75860572D01*
X187508501Y-75831319D01*
X187508502Y-75831318D01*
X187514946Y-75823143D01*
X187517779Y-75815076D01*
X187522754Y-75808114D01*
X187536430Y-75762382D01*
X187538246Y-75756795D01*
X187554050Y-75711792D01*
X187554500Y-75706596D01*
X187554500Y-75703889D01*
X187554597Y-75701635D01*
X187554740Y-75701159D01*
X187554786Y-75701161D01*
X187554799Y-75700962D01*
X187556568Y-75695045D01*
X187556177Y-75685096D01*
X189459729Y-75685096D01*
X189463502Y-75719269D01*
X189475873Y-75831319D01*
X189477113Y-75842553D01*
X189479723Y-75849684D01*
X189479723Y-75849686D01*
X189511645Y-75936916D01*
X189531553Y-75991319D01*
X189619908Y-76122805D01*
X189625527Y-76127918D01*
X189625528Y-76127919D01*
X189636903Y-76138269D01*
X189737076Y-76229419D01*
X189876293Y-76305008D01*
X190029522Y-76345207D01*
X190113477Y-76346526D01*
X190180319Y-76347576D01*
X190180322Y-76347576D01*
X190187916Y-76347695D01*
X190342332Y-76312329D01*
X190450249Y-76258053D01*
X190477072Y-76244563D01*
X190477075Y-76244561D01*
X190483855Y-76241151D01*
X190489626Y-76236222D01*
X190489629Y-76236220D01*
X190598536Y-76143204D01*
X190598536Y-76143203D01*
X190604314Y-76138269D01*
X190696755Y-76009624D01*
X190755842Y-75862641D01*
X190778162Y-75705807D01*
X190778307Y-75692000D01*
X190777417Y-75684641D01*
X190763543Y-75569996D01*
X190759276Y-75534733D01*
X190703280Y-75386546D01*
X190660232Y-75323911D01*
X190617855Y-75262251D01*
X190617854Y-75262249D01*
X190613553Y-75255992D01*
X190495275Y-75150611D01*
X190487889Y-75146700D01*
X190390558Y-75095166D01*
X190355274Y-75076484D01*
X190201633Y-75037892D01*
X190194034Y-75037852D01*
X190194033Y-75037852D01*
X190128181Y-75037507D01*
X190043221Y-75037062D01*
X190035841Y-75038834D01*
X190035839Y-75038834D01*
X189896563Y-75072271D01*
X189896560Y-75072272D01*
X189889184Y-75074043D01*
X189748414Y-75146700D01*
X189629039Y-75250838D01*
X189537950Y-75380444D01*
X189535190Y-75387524D01*
X189483894Y-75519092D01*
X189480406Y-75528037D01*
X189479414Y-75535570D01*
X189479414Y-75535571D01*
X189461377Y-75672581D01*
X189459729Y-75685096D01*
X187556177Y-75685096D01*
X187554597Y-75644876D01*
X187554500Y-75639930D01*
X187554500Y-74016082D01*
X187574502Y-73947961D01*
X187598669Y-73920271D01*
X187679536Y-73851204D01*
X187679536Y-73851203D01*
X187685314Y-73846269D01*
X187777755Y-73717624D01*
X187836842Y-73570641D01*
X187859162Y-73413807D01*
X187859307Y-73400000D01*
X187840276Y-73242733D01*
X187784280Y-73094546D01*
X187694553Y-72963992D01*
X187576275Y-72858611D01*
X187568889Y-72854700D01*
X187442988Y-72788039D01*
X187442989Y-72788039D01*
X187436274Y-72784484D01*
X187282633Y-72745892D01*
X187275034Y-72745852D01*
X187275033Y-72745852D01*
X187209181Y-72745507D01*
X187124221Y-72745062D01*
X187116841Y-72746834D01*
X187116839Y-72746834D01*
X186977563Y-72780271D01*
X186977560Y-72780272D01*
X186970184Y-72782043D01*
X186829414Y-72854700D01*
X186710039Y-72958838D01*
X186618950Y-73088444D01*
X186561406Y-73236037D01*
X186560414Y-73243570D01*
X186560414Y-73243571D01*
X186543220Y-73374176D01*
X186540729Y-73393096D01*
X186558113Y-73550553D01*
X186612553Y-73699319D01*
X186616789Y-73705622D01*
X186616789Y-73705623D01*
X186627611Y-73721727D01*
X186700908Y-73830805D01*
X186706527Y-73835918D01*
X186706528Y-73835919D01*
X186804299Y-73924883D01*
X186841222Y-73985523D01*
X186845500Y-74018077D01*
X186845500Y-75450971D01*
X186825498Y-75519092D01*
X186808595Y-75540066D01*
X184435580Y-77913082D01*
X184420098Y-77925587D01*
X184416871Y-77928523D01*
X184408118Y-77934175D01*
X184388991Y-77958438D01*
X184385441Y-77962433D01*
X184385540Y-77962517D01*
X184382182Y-77966480D01*
X184378506Y-77970156D01*
X184375483Y-77974385D01*
X184375483Y-77974386D01*
X184368146Y-77984652D01*
X184364585Y-77989395D01*
X184341503Y-78018675D01*
X184341501Y-78018679D01*
X184335054Y-78026857D01*
X184332221Y-78034925D01*
X184327247Y-78041885D01*
X184324263Y-78051863D01*
X184313580Y-78087586D01*
X184311744Y-78093235D01*
X184295950Y-78138208D01*
X184295500Y-78143404D01*
X184295500Y-78146109D01*
X184295403Y-78148365D01*
X184295260Y-78148841D01*
X184295214Y-78148839D01*
X184295201Y-78149038D01*
X184293432Y-78154955D01*
X184293841Y-78165359D01*
X184295403Y-78205124D01*
X184295500Y-78210070D01*
X184295500Y-82245686D01*
X184275498Y-82313807D01*
X184258596Y-82334781D01*
X183785578Y-82807800D01*
X183770098Y-82820302D01*
X183766868Y-82823241D01*
X183758118Y-82828891D01*
X183738991Y-82853154D01*
X183735441Y-82857149D01*
X183735540Y-82857233D01*
X183732182Y-82861196D01*
X183728506Y-82864872D01*
X183725483Y-82869101D01*
X183725483Y-82869102D01*
X183718146Y-82879368D01*
X183714587Y-82884108D01*
X183702484Y-82899462D01*
X183644605Y-82940578D01*
X183573685Y-82943875D01*
X183536296Y-82928023D01*
X183526074Y-82921573D01*
X183383581Y-82831667D01*
X183195039Y-82756446D01*
X183189379Y-82755320D01*
X183189375Y-82755319D01*
X183001613Y-82717971D01*
X183001610Y-82717971D01*
X182995946Y-82716844D01*
X182990171Y-82716768D01*
X182990167Y-82716768D01*
X182888793Y-82715441D01*
X182792971Y-82714187D01*
X182787274Y-82715166D01*
X182787273Y-82715166D01*
X182606266Y-82746269D01*
X182592910Y-82748564D01*
X182402463Y-82818824D01*
X182228010Y-82922612D01*
X182223670Y-82926418D01*
X182223666Y-82926421D01*
X182075392Y-83056455D01*
X182074047Y-83054921D01*
X182020511Y-83086009D01*
X181949587Y-83082808D01*
X181891652Y-83041770D01*
X181865101Y-82975925D01*
X181864500Y-82963635D01*
X181864500Y-82131448D01*
X181884502Y-82063327D01*
X181938158Y-82016834D01*
X182008432Y-82006730D01*
X182073012Y-82036224D01*
X182078419Y-82041192D01*
X182181938Y-82142035D01*
X182186742Y-82145245D01*
X182254400Y-82190453D01*
X182350720Y-82254812D01*
X182356023Y-82257090D01*
X182356026Y-82257092D01*
X182531921Y-82332662D01*
X182537228Y-82334942D01*
X182578249Y-82344224D01*
X182729579Y-82378467D01*
X182729584Y-82378468D01*
X182735216Y-82379742D01*
X182740987Y-82379969D01*
X182740989Y-82379969D01*
X182800756Y-82382317D01*
X182938053Y-82387712D01*
X183038499Y-82373148D01*
X183133231Y-82359413D01*
X183133236Y-82359412D01*
X183138945Y-82358584D01*
X183144409Y-82356729D01*
X183144414Y-82356728D01*
X183325693Y-82295192D01*
X183325698Y-82295190D01*
X183331165Y-82293334D01*
X183370012Y-82271579D01*
X183405683Y-82251602D01*
X183508276Y-82194147D01*
X183550435Y-82159084D01*
X183659913Y-82068031D01*
X183664345Y-82064345D01*
X183727472Y-81988444D01*
X183790453Y-81912718D01*
X183790455Y-81912715D01*
X183794147Y-81908276D01*
X183893334Y-81731165D01*
X183895190Y-81725698D01*
X183895192Y-81725693D01*
X183956728Y-81544414D01*
X183956729Y-81544409D01*
X183958584Y-81538945D01*
X183959412Y-81533236D01*
X183959413Y-81533231D01*
X183985959Y-81350143D01*
X183987712Y-81338053D01*
X183989232Y-81280000D01*
X183970658Y-81077859D01*
X183965080Y-81058081D01*
X183917125Y-80888046D01*
X183917124Y-80888044D01*
X183915557Y-80882487D01*
X183904978Y-80861033D01*
X183828331Y-80705609D01*
X183825776Y-80700428D01*
X183812563Y-80682733D01*
X183714314Y-80551163D01*
X183704320Y-80537779D01*
X183567787Y-80411569D01*
X183559503Y-80403911D01*
X183555258Y-80399987D01*
X183550375Y-80396906D01*
X183550371Y-80396903D01*
X183388464Y-80294748D01*
X183383581Y-80291667D01*
X183195039Y-80216446D01*
X183189379Y-80215320D01*
X183189375Y-80215319D01*
X183001613Y-80177971D01*
X183001610Y-80177971D01*
X182995946Y-80176844D01*
X182990171Y-80176768D01*
X182990167Y-80176768D01*
X182888793Y-80175441D01*
X182792971Y-80174187D01*
X182787274Y-80175166D01*
X182787273Y-80175166D01*
X182725085Y-80185852D01*
X182592910Y-80208564D01*
X182402463Y-80278824D01*
X182228010Y-80382612D01*
X182223670Y-80386418D01*
X182223666Y-80386421D01*
X182075392Y-80516455D01*
X182074047Y-80514921D01*
X182020511Y-80546009D01*
X181949587Y-80542808D01*
X181891652Y-80501770D01*
X181865101Y-80435925D01*
X181864500Y-80423635D01*
X181864500Y-79591448D01*
X181884502Y-79523327D01*
X181938158Y-79476834D01*
X182008432Y-79466730D01*
X182073012Y-79496224D01*
X182078419Y-79501192D01*
X182181938Y-79602035D01*
X182350720Y-79714812D01*
X182356023Y-79717090D01*
X182356026Y-79717092D01*
X182444707Y-79755192D01*
X182537228Y-79794942D01*
X182610244Y-79811464D01*
X182729579Y-79838467D01*
X182729584Y-79838468D01*
X182735216Y-79839742D01*
X182740987Y-79839969D01*
X182740989Y-79839969D01*
X182800756Y-79842317D01*
X182938053Y-79847712D01*
X183038499Y-79833148D01*
X183133231Y-79819413D01*
X183133236Y-79819412D01*
X183138945Y-79818584D01*
X183144409Y-79816729D01*
X183144414Y-79816728D01*
X183325693Y-79755192D01*
X183325698Y-79755190D01*
X183331165Y-79753334D01*
X183349447Y-79743096D01*
X183405683Y-79711602D01*
X183508276Y-79654147D01*
X183570934Y-79602035D01*
X183659913Y-79528031D01*
X183664345Y-79524345D01*
X183735789Y-79438444D01*
X183790453Y-79372718D01*
X183790455Y-79372715D01*
X183794147Y-79368276D01*
X183867127Y-79237961D01*
X183890510Y-79196208D01*
X183890511Y-79196206D01*
X183893334Y-79191165D01*
X183895190Y-79185698D01*
X183895192Y-79185693D01*
X183956728Y-79004414D01*
X183956729Y-79004409D01*
X183958584Y-78998945D01*
X183959412Y-78993236D01*
X183959413Y-78993231D01*
X183979728Y-78853115D01*
X183987712Y-78798053D01*
X183989232Y-78740000D01*
X183970658Y-78537859D01*
X183965327Y-78518957D01*
X183917125Y-78348046D01*
X183917124Y-78348044D01*
X183915557Y-78342487D01*
X183904978Y-78321033D01*
X183828331Y-78165609D01*
X183825776Y-78160428D01*
X183816526Y-78148040D01*
X183790389Y-78113039D01*
X183704320Y-77997779D01*
X183626223Y-77925587D01*
X183559503Y-77863911D01*
X183555258Y-77859987D01*
X183550375Y-77856906D01*
X183550371Y-77856903D01*
X183388464Y-77754748D01*
X183383581Y-77751667D01*
X183195039Y-77676446D01*
X183189379Y-77675320D01*
X183189375Y-77675319D01*
X183001613Y-77637971D01*
X183001610Y-77637971D01*
X182995946Y-77636844D01*
X182990171Y-77636768D01*
X182990167Y-77636768D01*
X182888793Y-77635441D01*
X182792971Y-77634187D01*
X182787274Y-77635166D01*
X182787273Y-77635166D01*
X182750045Y-77641563D01*
X182592910Y-77668564D01*
X182402463Y-77738824D01*
X182228010Y-77842612D01*
X182223670Y-77846418D01*
X182223666Y-77846421D01*
X182075392Y-77976455D01*
X182074047Y-77974921D01*
X182020511Y-78006009D01*
X181949587Y-78002808D01*
X181891652Y-77961770D01*
X181865101Y-77895925D01*
X181864500Y-77883635D01*
X181864500Y-77051448D01*
X181884502Y-76983327D01*
X181938158Y-76936834D01*
X182008432Y-76926730D01*
X182073012Y-76956224D01*
X182078419Y-76961192D01*
X182181938Y-77062035D01*
X182350720Y-77174812D01*
X182356023Y-77177090D01*
X182356026Y-77177092D01*
X182529261Y-77251519D01*
X182537228Y-77254942D01*
X182589169Y-77266695D01*
X182729579Y-77298467D01*
X182729584Y-77298468D01*
X182735216Y-77299742D01*
X182740987Y-77299969D01*
X182740989Y-77299969D01*
X182800756Y-77302317D01*
X182938053Y-77307712D01*
X183038499Y-77293148D01*
X183133231Y-77279413D01*
X183133236Y-77279412D01*
X183138945Y-77278584D01*
X183144409Y-77276729D01*
X183144414Y-77276728D01*
X183325693Y-77215192D01*
X183325698Y-77215190D01*
X183331165Y-77213334D01*
X183345915Y-77205074D01*
X183428108Y-77159043D01*
X183508276Y-77114147D01*
X183514345Y-77109100D01*
X183659913Y-76988031D01*
X183664345Y-76984345D01*
X183705566Y-76934782D01*
X183790453Y-76832718D01*
X183790455Y-76832715D01*
X183794147Y-76828276D01*
X183893334Y-76651165D01*
X183895190Y-76645698D01*
X183895192Y-76645693D01*
X183956728Y-76464414D01*
X183956729Y-76464409D01*
X183958584Y-76458945D01*
X183959412Y-76453236D01*
X183959413Y-76453231D01*
X183980337Y-76308916D01*
X183987712Y-76258053D01*
X183989232Y-76200000D01*
X183977797Y-76075551D01*
X183971187Y-76003613D01*
X183971186Y-76003610D01*
X183970658Y-75997859D01*
X183937374Y-75879844D01*
X183917125Y-75808046D01*
X183917124Y-75808044D01*
X183915557Y-75802487D01*
X183895799Y-75762420D01*
X183828331Y-75625609D01*
X183825776Y-75620428D01*
X183704320Y-75457779D01*
X183555258Y-75319987D01*
X183550375Y-75316906D01*
X183550371Y-75316903D01*
X183388464Y-75214748D01*
X183383581Y-75211667D01*
X183195039Y-75136446D01*
X183189379Y-75135320D01*
X183189375Y-75135319D01*
X183001613Y-75097971D01*
X183001610Y-75097971D01*
X182995946Y-75096844D01*
X182990171Y-75096768D01*
X182990167Y-75096768D01*
X182888793Y-75095441D01*
X182792971Y-75094187D01*
X182787274Y-75095166D01*
X182787273Y-75095166D01*
X182651048Y-75118574D01*
X182592910Y-75128564D01*
X182402463Y-75198824D01*
X182228010Y-75302612D01*
X182223670Y-75306418D01*
X182223666Y-75306421D01*
X182075392Y-75436455D01*
X182074047Y-75434921D01*
X182020511Y-75466009D01*
X181949587Y-75462808D01*
X181891652Y-75421770D01*
X181865101Y-75355925D01*
X181864500Y-75343635D01*
X181864500Y-74511448D01*
X181884502Y-74443327D01*
X181938158Y-74396834D01*
X182008432Y-74386730D01*
X182073012Y-74416224D01*
X182078419Y-74421192D01*
X182181938Y-74522035D01*
X182350720Y-74634812D01*
X182356023Y-74637090D01*
X182356026Y-74637092D01*
X182444707Y-74675192D01*
X182537228Y-74714942D01*
X182610244Y-74731464D01*
X182729579Y-74758467D01*
X182729584Y-74758468D01*
X182735216Y-74759742D01*
X182740987Y-74759969D01*
X182740989Y-74759969D01*
X182800756Y-74762317D01*
X182938053Y-74767712D01*
X183045817Y-74752087D01*
X183133231Y-74739413D01*
X183133236Y-74739412D01*
X183138945Y-74738584D01*
X183144409Y-74736729D01*
X183144414Y-74736728D01*
X183325693Y-74675192D01*
X183325698Y-74675190D01*
X183331165Y-74673334D01*
X183508276Y-74574147D01*
X183570934Y-74522035D01*
X183659913Y-74448031D01*
X183664345Y-74444345D01*
X183794147Y-74288276D01*
X183893334Y-74111165D01*
X183895190Y-74105698D01*
X183895192Y-74105693D01*
X183956728Y-73924414D01*
X183956729Y-73924409D01*
X183958584Y-73918945D01*
X183959412Y-73913236D01*
X183959413Y-73913231D01*
X183987179Y-73721727D01*
X183987712Y-73718053D01*
X183989232Y-73660000D01*
X183970658Y-73457859D01*
X183915557Y-73262487D01*
X183907477Y-73246101D01*
X183828331Y-73085609D01*
X183825776Y-73080428D01*
X183704320Y-72917779D01*
X183555258Y-72779987D01*
X183550375Y-72776906D01*
X183550371Y-72776903D01*
X183388464Y-72674748D01*
X183383581Y-72671667D01*
X183195039Y-72596446D01*
X183189379Y-72595320D01*
X183189375Y-72595319D01*
X183001613Y-72557971D01*
X183001610Y-72557971D01*
X182995946Y-72556844D01*
X182990171Y-72556768D01*
X182990167Y-72556768D01*
X182888793Y-72555441D01*
X182792971Y-72554187D01*
X182787274Y-72555166D01*
X182787273Y-72555166D01*
X182598607Y-72587585D01*
X182592910Y-72588564D01*
X182402463Y-72658824D01*
X182228010Y-72762612D01*
X182223670Y-72766418D01*
X182223666Y-72766421D01*
X182075392Y-72896455D01*
X182074047Y-72894921D01*
X182020511Y-72926009D01*
X181949587Y-72922808D01*
X181891652Y-72881770D01*
X181865101Y-72815925D01*
X181864500Y-72803635D01*
X181864500Y-71971448D01*
X181884502Y-71903327D01*
X181938158Y-71856834D01*
X182008432Y-71846730D01*
X182073012Y-71876224D01*
X182078419Y-71881192D01*
X182181938Y-71982035D01*
X182350720Y-72094812D01*
X182356023Y-72097090D01*
X182356026Y-72097092D01*
X182444707Y-72135192D01*
X182537228Y-72174942D01*
X182610244Y-72191464D01*
X182729579Y-72218467D01*
X182729584Y-72218468D01*
X182735216Y-72219742D01*
X182740987Y-72219969D01*
X182740989Y-72219969D01*
X182800756Y-72222317D01*
X182938053Y-72227712D01*
X183038499Y-72213148D01*
X183133231Y-72199413D01*
X183133236Y-72199412D01*
X183138945Y-72198584D01*
X183144409Y-72196729D01*
X183144414Y-72196728D01*
X183325693Y-72135192D01*
X183325698Y-72135190D01*
X183331165Y-72133334D01*
X183372926Y-72109947D01*
X183419986Y-72083592D01*
X183508276Y-72034147D01*
X183518337Y-72025780D01*
X183659913Y-71908031D01*
X183664345Y-71904345D01*
X183794147Y-71748276D01*
X183893334Y-71571165D01*
X183895190Y-71565698D01*
X183895192Y-71565693D01*
X183956728Y-71384414D01*
X183956729Y-71384409D01*
X183958584Y-71378945D01*
X183959412Y-71373236D01*
X183959413Y-71373231D01*
X183987179Y-71181727D01*
X183987712Y-71178053D01*
X183989232Y-71120000D01*
X183970658Y-70917859D01*
X183915557Y-70722487D01*
X183825776Y-70540428D01*
X183704320Y-70377779D01*
X183572347Y-70255784D01*
X183559503Y-70243911D01*
X183555258Y-70239987D01*
X183550375Y-70236906D01*
X183550371Y-70236903D01*
X183388464Y-70134748D01*
X183383581Y-70131667D01*
X183311614Y-70102955D01*
X183255755Y-70059134D01*
X183232455Y-69992069D01*
X183249111Y-69923054D01*
X183300436Y-69874000D01*
X183322098Y-69865239D01*
X183372252Y-69850192D01*
X183381842Y-69846433D01*
X183573095Y-69752739D01*
X183581945Y-69747464D01*
X183755328Y-69623792D01*
X183763200Y-69617139D01*
X183914052Y-69466812D01*
X183920730Y-69458965D01*
X184045003Y-69286020D01*
X184050313Y-69277183D01*
X184144670Y-69086267D01*
X184148469Y-69076672D01*
X184210377Y-68872910D01*
X184212555Y-68862837D01*
X184213986Y-68851962D01*
X184211775Y-68837778D01*
X184198617Y-68834000D01*
X182752000Y-68834000D01*
X182683879Y-68813998D01*
X182637386Y-68760342D01*
X182626000Y-68708000D01*
X182626000Y-68307885D01*
X183134000Y-68307885D01*
X183138475Y-68323124D01*
X183139865Y-68324329D01*
X183147548Y-68326000D01*
X184198344Y-68326000D01*
X184211875Y-68322027D01*
X184213180Y-68312947D01*
X184171214Y-68145875D01*
X184167894Y-68136124D01*
X184082972Y-67940814D01*
X184078105Y-67931739D01*
X183962426Y-67752926D01*
X183956136Y-67744757D01*
X183812806Y-67587240D01*
X183805273Y-67580215D01*
X183638139Y-67448222D01*
X183629552Y-67442517D01*
X183592116Y-67421851D01*
X183542146Y-67371419D01*
X183527374Y-67301976D01*
X183552490Y-67235571D01*
X183579842Y-67208964D01*
X183755327Y-67083792D01*
X183763200Y-67077139D01*
X183914052Y-66926812D01*
X183920730Y-66918965D01*
X184045003Y-66746020D01*
X184050313Y-66737183D01*
X184144670Y-66546267D01*
X184148469Y-66536672D01*
X184210377Y-66332910D01*
X184212555Y-66322837D01*
X184213986Y-66311962D01*
X184211775Y-66297778D01*
X184198617Y-66294000D01*
X183152115Y-66294000D01*
X183136876Y-66298475D01*
X183135671Y-66299865D01*
X183134000Y-66307548D01*
X183134000Y-68307885D01*
X182626000Y-68307885D01*
X182626000Y-65912000D01*
X182646002Y-65843879D01*
X182699658Y-65797386D01*
X182752000Y-65786000D01*
X184198344Y-65786000D01*
X184211875Y-65782027D01*
X184213180Y-65772947D01*
X184171214Y-65605875D01*
X184167894Y-65596124D01*
X184101359Y-65443101D01*
X188891229Y-65443101D01*
X188908613Y-65600558D01*
X188911223Y-65607689D01*
X188911223Y-65607691D01*
X188926508Y-65649458D01*
X188963053Y-65749324D01*
X188967289Y-65755627D01*
X188967289Y-65755628D01*
X189000149Y-65804528D01*
X189051408Y-65880810D01*
X189057027Y-65885923D01*
X189057028Y-65885924D01*
X189105149Y-65929710D01*
X189168576Y-65987424D01*
X189307793Y-66063013D01*
X189461022Y-66103212D01*
X189544977Y-66104531D01*
X189611819Y-66105581D01*
X189611822Y-66105581D01*
X189619416Y-66105700D01*
X189773832Y-66070334D01*
X189851614Y-66031214D01*
X189908572Y-66002568D01*
X189908575Y-66002566D01*
X189915355Y-65999156D01*
X189921126Y-65994227D01*
X189921129Y-65994225D01*
X190030036Y-65901209D01*
X190030036Y-65901208D01*
X190035814Y-65896274D01*
X190128255Y-65767629D01*
X190187342Y-65620646D01*
X190209662Y-65463812D01*
X190209807Y-65450005D01*
X190190776Y-65292738D01*
X190134780Y-65144551D01*
X190091727Y-65081908D01*
X190049355Y-65020256D01*
X190049354Y-65020254D01*
X190045053Y-65013997D01*
X189926775Y-64908616D01*
X189919389Y-64904705D01*
X189827577Y-64856093D01*
X189786774Y-64834489D01*
X189633133Y-64795897D01*
X189625534Y-64795857D01*
X189625533Y-64795857D01*
X189559681Y-64795512D01*
X189474721Y-64795067D01*
X189467341Y-64796839D01*
X189467339Y-64796839D01*
X189328063Y-64830276D01*
X189328060Y-64830277D01*
X189320684Y-64832048D01*
X189179914Y-64904705D01*
X189060539Y-65008843D01*
X188969450Y-65138449D01*
X188911906Y-65286042D01*
X188891229Y-65443101D01*
X184101359Y-65443101D01*
X184082972Y-65400814D01*
X184078105Y-65391739D01*
X183962426Y-65212926D01*
X183956136Y-65204757D01*
X183812806Y-65047240D01*
X183805273Y-65040215D01*
X183638139Y-64908222D01*
X183629552Y-64902517D01*
X183443117Y-64799599D01*
X183433705Y-64795369D01*
X183319391Y-64754888D01*
X183261855Y-64713294D01*
X183235939Y-64647196D01*
X183249873Y-64577580D01*
X183299232Y-64526549D01*
X183320943Y-64516804D01*
X183331165Y-64513334D01*
X183508276Y-64414147D01*
X183570934Y-64362035D01*
X183659913Y-64288031D01*
X183664345Y-64284345D01*
X183729252Y-64206303D01*
X183790453Y-64132718D01*
X183790455Y-64132715D01*
X183794147Y-64128276D01*
X183893334Y-63951165D01*
X183895190Y-63945698D01*
X183895192Y-63945693D01*
X183956728Y-63764414D01*
X183956729Y-63764409D01*
X183958584Y-63758945D01*
X183959412Y-63753236D01*
X183959413Y-63753231D01*
X183984629Y-63579313D01*
X183987712Y-63558053D01*
X183989232Y-63500000D01*
X183986971Y-63475396D01*
X186445532Y-63475396D01*
X186445869Y-63478642D01*
X186445869Y-63478646D01*
X186454490Y-63561727D01*
X186456449Y-63580611D01*
X186512129Y-63747505D01*
X186604710Y-63897114D01*
X186729226Y-64021412D01*
X186878996Y-64113732D01*
X186885944Y-64116037D01*
X186885945Y-64116037D01*
X187039456Y-64166955D01*
X187039458Y-64166955D01*
X187045987Y-64169121D01*
X187149904Y-64179768D01*
X187250160Y-64179768D01*
X187253406Y-64179431D01*
X187253410Y-64179431D01*
X187348517Y-64169563D01*
X187348521Y-64169562D01*
X187355375Y-64168851D01*
X187361911Y-64166670D01*
X187361913Y-64166670D01*
X187500289Y-64120504D01*
X187522269Y-64113171D01*
X187616893Y-64054616D01*
X187665652Y-64024443D01*
X187665653Y-64024442D01*
X187671878Y-64020590D01*
X187796176Y-63896074D01*
X187888496Y-63746304D01*
X187943885Y-63579313D01*
X187954532Y-63475396D01*
X187954532Y-62354426D01*
X188284532Y-62354426D01*
X188324998Y-62465606D01*
X188401050Y-62556241D01*
X188410596Y-62561753D01*
X188410598Y-62561754D01*
X188464723Y-62593003D01*
X188503514Y-62615399D01*
X188590677Y-62630768D01*
X188649387Y-62630768D01*
X188736550Y-62615399D01*
X188775341Y-62593003D01*
X188829466Y-62561754D01*
X188829468Y-62561753D01*
X188839014Y-62556241D01*
X188915066Y-62465606D01*
X188955532Y-62354426D01*
X194084532Y-62354426D01*
X194124998Y-62465606D01*
X194201050Y-62556241D01*
X194210596Y-62561753D01*
X194210598Y-62561754D01*
X194264723Y-62593003D01*
X194303514Y-62615399D01*
X194390677Y-62630768D01*
X194449387Y-62630768D01*
X194536550Y-62615399D01*
X194575341Y-62593003D01*
X194629466Y-62561754D01*
X194629468Y-62561753D01*
X194639014Y-62556241D01*
X194715066Y-62465606D01*
X194755532Y-62354426D01*
X194755532Y-62236110D01*
X194715066Y-62124930D01*
X194639014Y-62034295D01*
X194629468Y-62028783D01*
X194629466Y-62028782D01*
X194546097Y-61980649D01*
X194536550Y-61975137D01*
X194449387Y-61959768D01*
X194390677Y-61959768D01*
X194303514Y-61975137D01*
X194293967Y-61980649D01*
X194210598Y-62028782D01*
X194210596Y-62028783D01*
X194201050Y-62034295D01*
X194124998Y-62124930D01*
X194084532Y-62236110D01*
X194084532Y-62354426D01*
X188955532Y-62354426D01*
X188955532Y-62236110D01*
X188915066Y-62124930D01*
X188839014Y-62034295D01*
X188829468Y-62028783D01*
X188829466Y-62028782D01*
X188746097Y-61980649D01*
X188736550Y-61975137D01*
X188649387Y-61959768D01*
X188590677Y-61959768D01*
X188503514Y-61975137D01*
X188493967Y-61980649D01*
X188410598Y-62028782D01*
X188410596Y-62028783D01*
X188401050Y-62034295D01*
X188324998Y-62124930D01*
X188284532Y-62236110D01*
X188284532Y-62354426D01*
X187954532Y-62354426D01*
X187954532Y-62175140D01*
X187951358Y-62144546D01*
X187944327Y-62076783D01*
X187944326Y-62076779D01*
X187943615Y-62069925D01*
X187924955Y-62013992D01*
X187890253Y-61909979D01*
X187887935Y-61903031D01*
X187821408Y-61795524D01*
X187799207Y-61759648D01*
X187799206Y-61759647D01*
X187795354Y-61753422D01*
X187670838Y-61629124D01*
X187521068Y-61536804D01*
X187374048Y-61488039D01*
X187360608Y-61483581D01*
X187360606Y-61483581D01*
X187354077Y-61481415D01*
X187250160Y-61470768D01*
X187149904Y-61470768D01*
X187146658Y-61471105D01*
X187146654Y-61471105D01*
X187051547Y-61480973D01*
X187051543Y-61480974D01*
X187044689Y-61481685D01*
X187038153Y-61483866D01*
X187038151Y-61483866D01*
X186899775Y-61530032D01*
X186877795Y-61537365D01*
X186871563Y-61541221D01*
X186871564Y-61541221D01*
X186735720Y-61625284D01*
X186728186Y-61629946D01*
X186603888Y-61754462D01*
X186511568Y-61904232D01*
X186509263Y-61911180D01*
X186509263Y-61911181D01*
X186468428Y-62034295D01*
X186456179Y-62071223D01*
X186445532Y-62175140D01*
X186445532Y-63475396D01*
X183986971Y-63475396D01*
X183970658Y-63297859D01*
X183915557Y-63102487D01*
X183900535Y-63072024D01*
X183828331Y-62925609D01*
X183825776Y-62920428D01*
X183704320Y-62757779D01*
X183555258Y-62619987D01*
X183550375Y-62616906D01*
X183550371Y-62616903D01*
X183388464Y-62514748D01*
X183383581Y-62511667D01*
X183195039Y-62436446D01*
X183189379Y-62435320D01*
X183189375Y-62435319D01*
X183001613Y-62397971D01*
X183001610Y-62397971D01*
X182995946Y-62396844D01*
X182990171Y-62396768D01*
X182990167Y-62396768D01*
X182888793Y-62395441D01*
X182792971Y-62394187D01*
X182787274Y-62395166D01*
X182787273Y-62395166D01*
X182620646Y-62423798D01*
X182592910Y-62428564D01*
X182402463Y-62498824D01*
X182228010Y-62602612D01*
X182223670Y-62606418D01*
X182223666Y-62606421D01*
X182075392Y-62736455D01*
X182074047Y-62734921D01*
X182020511Y-62766009D01*
X181949587Y-62762808D01*
X181891652Y-62721770D01*
X181865101Y-62655925D01*
X181864500Y-62643635D01*
X181864500Y-60345165D01*
X181884502Y-60277044D01*
X181938158Y-60230551D01*
X182008432Y-60220447D01*
X182073012Y-60249941D01*
X182103213Y-60288846D01*
X182128954Y-60340361D01*
X182170236Y-60422980D01*
X182331631Y-60656500D01*
X182524320Y-60864950D01*
X182527774Y-60867762D01*
X182741001Y-61041356D01*
X182741005Y-61041359D01*
X182744458Y-61044170D01*
X182987652Y-61190585D01*
X182991747Y-61192319D01*
X182991749Y-61192320D01*
X183174820Y-61269840D01*
X183249049Y-61301272D01*
X183253342Y-61302410D01*
X183253347Y-61302412D01*
X183396898Y-61340473D01*
X183523435Y-61374024D01*
X183805334Y-61407389D01*
X184089122Y-61400701D01*
X184093517Y-61399969D01*
X184093522Y-61399969D01*
X184364734Y-61354827D01*
X184364738Y-61354826D01*
X184369136Y-61354094D01*
X184546887Y-61297878D01*
X184635544Y-61269840D01*
X184635546Y-61269839D01*
X184639790Y-61268497D01*
X184643801Y-61266571D01*
X184643806Y-61266569D01*
X184891665Y-61147549D01*
X184891666Y-61147548D01*
X184895684Y-61145619D01*
X185051724Y-61041356D01*
X185128002Y-60990389D01*
X185128006Y-60990386D01*
X185131710Y-60987911D01*
X185135027Y-60984940D01*
X185135031Y-60984937D01*
X185339845Y-60801490D01*
X185343161Y-60798520D01*
X185525817Y-60581225D01*
X185528174Y-60577446D01*
X185673669Y-60344152D01*
X185673671Y-60344149D01*
X185676033Y-60340361D01*
X185790813Y-60080734D01*
X185867866Y-59807525D01*
X185878618Y-59727476D01*
X185905227Y-59529367D01*
X185905228Y-59529359D01*
X185905654Y-59526185D01*
X185909311Y-59409844D01*
X185909519Y-59403222D01*
X185909519Y-59403217D01*
X185909620Y-59400000D01*
X185889571Y-59116842D01*
X185884324Y-59092468D01*
X185830761Y-58843681D01*
X185830761Y-58843679D01*
X185829825Y-58839334D01*
X185731574Y-58573013D01*
X185596778Y-58323192D01*
X185428127Y-58094856D01*
X185365445Y-58031181D01*
X185232117Y-57895743D01*
X185228986Y-57892562D01*
X185114417Y-57805126D01*
X185006872Y-57723050D01*
X185006868Y-57723047D01*
X185003327Y-57720345D01*
X184955709Y-57693677D01*
X184860637Y-57640434D01*
X184810976Y-57589697D01*
X184796629Y-57520165D01*
X184822151Y-57453915D01*
X184879439Y-57411979D01*
X184922204Y-57404500D01*
X186859923Y-57404500D01*
X186928044Y-57424502D01*
G37*
%TD.AperFunction*%
%TA.AperFunction,Conductor*%
G36*
X198443420Y-74915059D02*
G01*
X198497707Y-74947817D01*
X198538050Y-74989132D01*
X198542669Y-74992676D01*
X198594383Y-75032358D01*
X198617638Y-75055612D01*
X198644094Y-75090089D01*
X198660537Y-75118572D01*
X198677161Y-75158707D01*
X198685674Y-75190474D01*
X198691346Y-75233556D01*
X198691346Y-75266444D01*
X198686973Y-75299657D01*
X198685674Y-75309525D01*
X198677161Y-75341294D01*
X198660538Y-75381426D01*
X198644091Y-75409912D01*
X198617641Y-75444382D01*
X198594384Y-75467640D01*
X198548093Y-75503161D01*
X198541821Y-75507974D01*
X198523097Y-75525097D01*
X198510825Y-75536320D01*
X198510819Y-75536326D01*
X198508819Y-75538155D01*
X198506983Y-75540151D01*
X198491531Y-75556947D01*
X198430689Y-75593536D01*
X198359724Y-75591423D01*
X198308655Y-75559666D01*
X198261324Y-75511194D01*
X198261318Y-75511189D01*
X198258179Y-75507974D01*
X198254614Y-75505239D01*
X198254609Y-75505234D01*
X198205616Y-75467640D01*
X198182359Y-75444382D01*
X198155909Y-75409912D01*
X198139462Y-75381426D01*
X198122839Y-75341294D01*
X198114326Y-75309525D01*
X198113027Y-75299657D01*
X198108654Y-75266444D01*
X198108654Y-75233556D01*
X198114326Y-75190474D01*
X198122839Y-75158706D01*
X198125746Y-75151689D01*
X198139463Y-75118572D01*
X198155908Y-75090089D01*
X198182358Y-75055618D01*
X198205614Y-75032361D01*
X198257332Y-74992676D01*
X198264414Y-74987621D01*
X198285360Y-74973735D01*
X198287018Y-74972636D01*
X198312045Y-74953668D01*
X198316299Y-74948788D01*
X198321027Y-74944373D01*
X198322950Y-74946432D01*
X198372423Y-74914846D01*
X198443420Y-74915059D01*
G37*
%TD.AperFunction*%
%TD*%
%TA.AperFunction,Conductor*%
%TO.N,VBAT*%
G36*
X194997302Y-64956588D02*
G01*
X195357944Y-64958011D01*
X195425984Y-64978282D01*
X195466271Y-65020700D01*
X195469139Y-65027625D01*
X195474167Y-65034178D01*
X195474169Y-65034181D01*
X195529496Y-65106284D01*
X195557379Y-65142621D01*
X195672375Y-65230861D01*
X195806291Y-65286330D01*
X195950000Y-65305250D01*
X196093709Y-65286330D01*
X196227625Y-65230861D01*
X196342621Y-65142621D01*
X196430861Y-65027625D01*
X196432274Y-65024213D01*
X196482125Y-64976681D01*
X196540356Y-64962676D01*
X202532556Y-64986319D01*
X204343497Y-64993464D01*
X204411538Y-65013735D01*
X204457819Y-65067573D01*
X204469000Y-65119463D01*
X204469000Y-72711022D01*
X204448998Y-72779143D01*
X204395342Y-72825636D01*
X204325068Y-72835740D01*
X204260488Y-72806246D01*
X204249807Y-72795822D01*
X204132806Y-72667240D01*
X204125273Y-72660215D01*
X203958139Y-72528222D01*
X203949552Y-72522517D01*
X203763117Y-72419599D01*
X203753705Y-72415369D01*
X203552959Y-72344280D01*
X203542988Y-72341646D01*
X203471837Y-72328972D01*
X203458540Y-72330432D01*
X203454000Y-72344989D01*
X203454000Y-73788000D01*
X203433998Y-73856121D01*
X203380342Y-73902614D01*
X203328000Y-73914000D01*
X201883225Y-73914000D01*
X201869694Y-73917973D01*
X201868257Y-73927966D01*
X201898565Y-74062446D01*
X201901645Y-74072275D01*
X201981770Y-74269603D01*
X201986413Y-74278794D01*
X202097694Y-74460388D01*
X202103777Y-74468699D01*
X202243213Y-74629667D01*
X202250580Y-74636883D01*
X202414434Y-74772916D01*
X202422881Y-74778831D01*
X202606756Y-74886279D01*
X202616042Y-74890729D01*
X202815001Y-74966703D01*
X202824899Y-74969579D01*
X202926192Y-74990187D01*
X202988958Y-75023369D01*
X203023820Y-75085217D01*
X203019711Y-75156094D01*
X202977935Y-75213499D01*
X202936648Y-75234531D01*
X202823393Y-75267864D01*
X202817928Y-75270721D01*
X202654972Y-75355912D01*
X202654968Y-75355915D01*
X202649512Y-75358767D01*
X202644712Y-75362627D01*
X202644711Y-75362627D01*
X202630357Y-75374168D01*
X202496600Y-75481711D01*
X202370480Y-75632016D01*
X202367516Y-75637408D01*
X202367513Y-75637412D01*
X202333842Y-75698660D01*
X202275956Y-75803954D01*
X202274095Y-75809821D01*
X202274094Y-75809823D01*
X202261458Y-75849657D01*
X202216628Y-75990978D01*
X202194757Y-76185963D01*
X202211175Y-76381483D01*
X202265258Y-76570091D01*
X202268076Y-76575574D01*
X202352123Y-76739113D01*
X202352126Y-76739117D01*
X202354944Y-76744601D01*
X202378367Y-76774153D01*
X202383807Y-76781017D01*
X202410445Y-76846827D01*
X202397275Y-76916591D01*
X202348478Y-76968160D01*
X202284564Y-76985281D01*
X202064277Y-76984408D01*
X201636001Y-76982711D01*
X201567960Y-76962439D01*
X201521680Y-76908600D01*
X201510500Y-76856712D01*
X201510500Y-73394183D01*
X201864389Y-73394183D01*
X201865912Y-73402607D01*
X201878292Y-73406000D01*
X202927885Y-73406000D01*
X202943124Y-73401525D01*
X202944329Y-73400135D01*
X202946000Y-73392452D01*
X202946000Y-72343102D01*
X202942082Y-72329758D01*
X202927806Y-72327771D01*
X202889324Y-72333660D01*
X202879288Y-72336051D01*
X202676868Y-72402212D01*
X202667359Y-72406209D01*
X202478463Y-72504542D01*
X202469738Y-72510036D01*
X202299433Y-72637905D01*
X202291726Y-72644748D01*
X202144590Y-72798717D01*
X202138104Y-72806727D01*
X202018098Y-72982649D01*
X202013000Y-72991623D01*
X201923338Y-73184783D01*
X201919775Y-73194470D01*
X201864389Y-73394183D01*
X201510500Y-73394183D01*
X201510500Y-72047085D01*
X201512921Y-72022502D01*
X201512987Y-72022170D01*
X201515408Y-72010000D01*
X201510500Y-71985326D01*
X201495966Y-71912260D01*
X201440601Y-71829399D01*
X201430286Y-71822507D01*
X201430284Y-71822505D01*
X201429995Y-71822312D01*
X201410902Y-71806642D01*
X199225805Y-69621545D01*
X199191779Y-69559233D01*
X199189978Y-69516004D01*
X199204172Y-69408189D01*
X199204172Y-69408188D01*
X199205250Y-69400000D01*
X199186330Y-69256291D01*
X199130861Y-69122375D01*
X199042621Y-69007379D01*
X198927625Y-68919139D01*
X198793709Y-68863670D01*
X198650000Y-68844750D01*
X198506291Y-68863670D01*
X198372375Y-68919139D01*
X198257379Y-69007379D01*
X198169139Y-69122375D01*
X198113670Y-69256291D01*
X198094750Y-69400000D01*
X198113670Y-69543709D01*
X198169139Y-69677625D01*
X198257379Y-69792621D01*
X198372375Y-69880861D01*
X198506291Y-69936330D01*
X198650000Y-69955250D01*
X198658188Y-69954172D01*
X198658189Y-69954172D01*
X198766004Y-69939978D01*
X198836153Y-69950917D01*
X198871545Y-69975805D01*
X199286473Y-70390733D01*
X199320499Y-70453045D01*
X199315434Y-70523860D01*
X199272887Y-70580696D01*
X199206367Y-70605507D01*
X199198015Y-70605805D01*
X199190000Y-70604750D01*
X199046291Y-70623670D01*
X198912375Y-70679139D01*
X198797379Y-70767379D01*
X198709139Y-70882375D01*
X198653670Y-71016291D01*
X198634750Y-71160000D01*
X198653670Y-71303709D01*
X198709139Y-71437625D01*
X198797379Y-71552621D01*
X198912375Y-71640861D01*
X199046291Y-71696330D01*
X199190000Y-71715250D01*
X199333709Y-71696330D01*
X199467625Y-71640861D01*
X199582621Y-71552621D01*
X199670861Y-71437625D01*
X199726330Y-71303709D01*
X199745250Y-71160000D01*
X199744246Y-71152371D01*
X199764174Y-71084501D01*
X199817830Y-71038008D01*
X199888104Y-71027904D01*
X199952684Y-71057398D01*
X199959267Y-71063527D01*
X200972595Y-72076855D01*
X201006621Y-72139167D01*
X201009500Y-72165950D01*
X201009500Y-75161049D01*
X200989498Y-75229170D01*
X200935842Y-75275663D01*
X200865568Y-75285767D01*
X200800988Y-75256273D01*
X200794405Y-75250144D01*
X199483358Y-73939098D01*
X199467688Y-73920005D01*
X199467495Y-73919716D01*
X199467493Y-73919714D01*
X199460601Y-73909399D01*
X199407536Y-73873943D01*
X199377741Y-73854034D01*
X199280000Y-73834592D01*
X199267829Y-73837013D01*
X199267828Y-73837013D01*
X199267496Y-73837079D01*
X199242915Y-73839500D01*
X199003811Y-73839500D01*
X198935690Y-73819498D01*
X198903849Y-73790205D01*
X198902157Y-73788000D01*
X198832621Y-73697379D01*
X198717625Y-73609139D01*
X198583709Y-73553670D01*
X198440000Y-73534750D01*
X198296291Y-73553670D01*
X198162375Y-73609139D01*
X198047379Y-73697379D01*
X197959139Y-73812375D01*
X197903670Y-73946291D01*
X197884750Y-74090000D01*
X197903670Y-74233709D01*
X197959139Y-74367625D01*
X198047379Y-74482621D01*
X198053929Y-74487647D01*
X198143976Y-74556743D01*
X198185843Y-74614081D01*
X198190065Y-74684952D01*
X198155301Y-74746855D01*
X198130274Y-74765823D01*
X198130003Y-74765979D01*
X198122375Y-74769139D01*
X198007379Y-74857379D01*
X197919139Y-74972375D01*
X197863670Y-75106291D01*
X197844750Y-75250000D01*
X197863670Y-75393709D01*
X197919139Y-75527625D01*
X198007379Y-75642621D01*
X198090355Y-75706291D01*
X198100205Y-75713849D01*
X198142072Y-75771187D01*
X198149500Y-75813811D01*
X198149500Y-76842399D01*
X198129498Y-76910520D01*
X198075842Y-76957013D01*
X198023003Y-76968398D01*
X194819333Y-76955705D01*
X193924986Y-76952162D01*
X193856945Y-76931890D01*
X193810665Y-76878051D01*
X193799486Y-76826688D01*
X193797778Y-76416613D01*
X193795417Y-75850000D01*
X194944750Y-75850000D01*
X194963670Y-75993709D01*
X195019139Y-76127625D01*
X195107379Y-76242621D01*
X195222375Y-76330861D01*
X195356291Y-76386330D01*
X195500000Y-76405250D01*
X195643709Y-76386330D01*
X195777625Y-76330861D01*
X195892621Y-76242621D01*
X195980861Y-76127625D01*
X196036330Y-75993709D01*
X196055250Y-75850000D01*
X196036330Y-75706291D01*
X195980861Y-75572375D01*
X195892621Y-75457379D01*
X195777625Y-75369139D01*
X195643709Y-75313670D01*
X195500000Y-75294750D01*
X195356291Y-75313670D01*
X195222375Y-75369139D01*
X195107379Y-75457379D01*
X195019139Y-75572375D01*
X194963670Y-75706291D01*
X194944750Y-75850000D01*
X193795417Y-75850000D01*
X193789281Y-74377405D01*
X193784773Y-73295458D01*
X193804491Y-73227254D01*
X193862555Y-73178524D01*
X193969993Y-73134023D01*
X193969998Y-73134020D01*
X193977625Y-73130861D01*
X194092621Y-73042621D01*
X194125325Y-73000000D01*
X194844750Y-73000000D01*
X194863670Y-73143709D01*
X194919139Y-73277625D01*
X195007379Y-73392621D01*
X195122375Y-73480861D01*
X195256291Y-73536330D01*
X195400000Y-73555250D01*
X195543709Y-73536330D01*
X195677625Y-73480861D01*
X195792621Y-73392621D01*
X195880861Y-73277625D01*
X195936330Y-73143709D01*
X195955250Y-73000000D01*
X195936330Y-72856291D01*
X195880861Y-72722375D01*
X195792621Y-72607379D01*
X195677625Y-72519139D01*
X195543709Y-72463670D01*
X195400000Y-72444750D01*
X195256291Y-72463670D01*
X195122375Y-72519139D01*
X195007379Y-72607379D01*
X194919139Y-72722375D01*
X194863670Y-72856291D01*
X194844750Y-73000000D01*
X194125325Y-73000000D01*
X194180861Y-72927625D01*
X194236330Y-72793709D01*
X194255250Y-72650000D01*
X194236330Y-72506291D01*
X194180861Y-72372375D01*
X194092621Y-72257379D01*
X193977625Y-72169139D01*
X193969998Y-72165980D01*
X193969993Y-72165977D01*
X193857171Y-72119246D01*
X193801890Y-72074698D01*
X193779389Y-72003362D01*
X193775473Y-71063527D01*
X193773125Y-70500000D01*
X196594750Y-70500000D01*
X196613670Y-70643709D01*
X196669139Y-70777625D01*
X196757379Y-70892621D01*
X196872375Y-70980861D01*
X197006291Y-71036330D01*
X197150000Y-71055250D01*
X197293709Y-71036330D01*
X197427625Y-70980861D01*
X197542621Y-70892621D01*
X197630861Y-70777625D01*
X197686330Y-70643709D01*
X197705250Y-70500000D01*
X197686330Y-70356291D01*
X197630861Y-70222375D01*
X197542621Y-70107379D01*
X197427625Y-70019139D01*
X197293709Y-69963670D01*
X197150000Y-69944750D01*
X197006291Y-69963670D01*
X196872375Y-70019139D01*
X196757379Y-70107379D01*
X196669139Y-70222375D01*
X196613670Y-70356291D01*
X196594750Y-70500000D01*
X193773125Y-70500000D01*
X193760625Y-67500000D01*
X194744750Y-67500000D01*
X194763670Y-67643709D01*
X194819139Y-67777625D01*
X194907379Y-67892621D01*
X195022375Y-67980861D01*
X195156291Y-68036330D01*
X195300000Y-68055250D01*
X195443709Y-68036330D01*
X195577625Y-67980861D01*
X195692621Y-67892621D01*
X195780861Y-67777625D01*
X195836330Y-67643709D01*
X195855250Y-67500000D01*
X195836330Y-67356291D01*
X195780861Y-67222375D01*
X195692621Y-67107379D01*
X195577625Y-67019139D01*
X195443709Y-66963670D01*
X195300000Y-66944750D01*
X195156291Y-66963670D01*
X195022375Y-67019139D01*
X194907379Y-67107379D01*
X194819139Y-67222375D01*
X194763670Y-67356291D01*
X194744750Y-67500000D01*
X193760625Y-67500000D01*
X193754049Y-65921630D01*
X193773766Y-65853429D01*
X193780067Y-65844427D01*
X193832167Y-65776530D01*
X193887636Y-65642614D01*
X193906556Y-65498905D01*
X193887636Y-65355196D01*
X193832167Y-65221280D01*
X193781224Y-65154890D01*
X193755623Y-65088670D01*
X193769888Y-65019121D01*
X193819489Y-64968325D01*
X193881683Y-64952187D01*
X194997302Y-64956588D01*
G37*
%TD.AperFunction*%
%TD*%
M02*
