M48
; DRILL file {KiCad (6.0.4-0)} date 2022 September 22, Thursday 13:54:00
; FORMAT={-:-/ absolute / metric / decimal}
; #@! TF.CreationDate,2022-09-22T13:54:00+02:00
; #@! TF.GenerationSoftware,Kicad,Pcbnew,(6.0.4-0)
; #@! TF.FileFunction,Plated,1,4,PTH
FMAT,2
METRIC
; #@! TA.AperFunction,Plated,PTH,ViaDrill
T1C0.400
; #@! TA.AperFunction,Plated,PTH,ComponentDrill
T2C0.600
; #@! TA.AperFunction,Plated,PTH,ComponentDrill
T3C1.000
; #@! TA.AperFunction,Plated,PTH,ComponentDrill
T4C2.500
%
G90
G05
T1
X184.3Y-76.031
X184.8Y-87.3
X185.674Y-81.915
X186.258Y-83.178
X186.588Y-81.659
X187.05Y-101.15
X187.1Y-90.55
X187.2Y-73.4
X187.325Y-83.185
X187.55Y-81.35
X188.214Y-77.089
X188.51Y-86.93
X188.56Y-80.84
X188.95Y-69.1
X189.55Y-65.45
X189.95Y-89.55
X190.05Y-68.35
X190.119Y-75.692
X190.4Y-87.1
X190.946Y-67.44
X191.0Y-89.5
X191.3Y-73.95
X191.6Y-79.75
X191.65Y-82.3
X191.996Y-67.44
X192.057Y-89.968
X193.107Y-89.968
X193.351Y-65.499
X193.6Y-79.0
X193.6Y-87.6
X193.7Y-72.65
X193.85Y-91.6
X194.2Y-67.75
X194.499Y-84.601
X194.7Y-89.6
X195.25Y-82.3
X195.3Y-67.5
X195.3Y-87.45
X195.4Y-73.0
X195.5Y-75.85
X195.7Y-89.6
X195.95Y-64.75
X196.6Y-82.55
X196.75Y-86.6
X196.8Y-91.95
X196.9Y-59.85
X197.0Y-73.5
X197.15Y-70.5
X197.38Y-78.69
X197.8Y-62.45
X197.8Y-91.35
X198.4Y-75.25
X198.44Y-74.09
X198.65Y-69.4
X198.65Y-90.65
X198.68Y-85.22
X198.85Y-89.55
X198.85Y-98.35
X198.9Y-99.7
X198.91Y-93.65
X198.996Y-92.646
X199.19Y-71.16
X199.9Y-59.2
X199.95Y-62.1
X200.0Y-83.85
X201.05Y-98.6
X203.2Y-67.056
T3
X182.88Y-63.5
X182.88Y-66.04
X182.88Y-68.58
X182.88Y-71.12
X182.88Y-73.66
X182.88Y-76.2
X182.88Y-78.74
X182.88Y-81.28
X182.88Y-83.82
X182.88Y-86.36
X182.88Y-88.9
X182.88Y-91.44
X182.88Y-93.98
X182.88Y-96.52
X182.88Y-99.06
X182.88Y-101.6
X203.2Y-73.66
X203.2Y-76.2
X203.2Y-78.74
X203.2Y-81.28
X203.2Y-83.82
X203.2Y-86.36
X203.2Y-88.9
X203.2Y-91.44
X203.2Y-93.98
X203.2Y-96.52
X203.2Y-99.06
X203.2Y-101.6
T4
X183.9Y-59.4
T2
G00X187.2Y-58.945
M15
G01X187.2Y-58.345
M16
G05
G00X187.2Y-63.375
M15
G01X187.2Y-62.275
M16
G05
G00X195.84Y-58.945
M15
G01X195.84Y-58.345
M16
G05
G00X195.84Y-63.375
M15
G01X195.84Y-62.275
M16
G05
T0
M30
